<svg width="16" height="14" viewBox="0 0 16 14" fill="none" xmlns="http://www.w3.org/2000/svg">
<path fill-rule="evenodd" clip-rule="evenodd" d="M9.57057 3.00024C9.71398 3.00024 9.83163 3.08295 9.92352 3.24909C10.0153 3.41462 10.0614 3.6312 10.0614 3.89835C10.0614 4.1658 10.0153 4.381 9.92352 4.54446C9.83163 4.7082 9.71398 4.78994 9.57057 4.78994C9.41802 4.78994 9.29593 4.7082 9.20402 4.54446C9.11213 4.381 9.06623 4.1658 9.06623 3.89835C9.06623 3.6312 9.11213 3.41462 9.20402 3.24909C9.29593 3.08295 9.41802 3.00024 9.57057 3.00024ZM4.92429 4.76916H5.54295V3.9399L4.92429 4.76916ZM12.9931 4.76916H13.6116V3.9399L12.9931 4.76916ZM16 10.9445V-0.000816941H7.98702e-06V10.9445H3.4735V12.39H2.07687V13.9994H13.923V12.39H12.5264V10.9445H16ZM5.24838 7.56502H4.52008V8.65528H2.94778V7.56502L1.2307 7.63575V6.36274L3.44422 2.517H4.52008V6.06997H5.24838V7.56502ZM10.1143 6.03019C10.004 6.35562 9.85085 6.63702 9.65503 6.87468C9.45912 7.11195 9.22749 7.29677 8.95992 7.42847C8.69224 7.56065 8.40133 7.62656 8.08685 7.62656C7.77237 7.62656 7.48124 7.56065 7.21378 7.42847C6.9461 7.29677 6.71437 7.11195 6.51867 6.87468C6.32274 6.63731 6.16962 6.35562 6.05931 6.03019C5.94886 5.70506 5.89382 5.34896 5.89382 4.96181C5.89382 4.57494 5.94886 4.21863 6.05931 3.89341C6.16962 3.56798 6.32274 3.28649 6.51867 3.04932C6.71437 2.81156 6.9461 2.62555 7.21378 2.49069C7.48124 2.35611 7.77237 2.28844 8.08685 2.28844C8.40133 2.28844 8.69224 2.35611 8.95992 2.49069C9.22737 2.62555 9.45912 2.81156 9.65503 3.04932C9.85085 3.28649 10.004 3.56798 10.1143 3.89341C10.2247 4.21863 10.2799 4.57494 10.2799 4.96181C10.2799 5.34867 10.2246 5.70506 10.1143 6.03019ZM10.7516 7.56502V6.06997L13.3749 2.517H14.4507V6.06997L14.7692 6.36274V7.63575L14.4507 7.56502V8.65528H12.8784V7.56502H10.7516Z" fill="#AAAAAA"/>
</svg>
