<svg width="18" height="16" viewBox="0 0 18 16" fill="none" xmlns="http://www.w3.org/2000/svg">
<path fill-rule="evenodd" clip-rule="evenodd" d="M12.9999 1.99916V-0.000687003H11V1.99916H6.9999V-0.000687003H4.99994V1.99916H1V3.99931H17V1.99916H12.9999ZM0.99816 15.9975H17.0015L17 5.99915H1L0.99816 15.9975ZM11 7.9993H13.9999V9.99945H11V7.9993ZM11 11.9992H13.9999V13.9993H11V11.9992ZM7.9999 7.9993H9.99998V9.99945H7.9999V7.9993ZM7.9999 11.9992H9.99998V13.9993H7.9999V11.9992ZM3.99996 7.9993H6.9999V9.99945H3.99996V7.9993ZM3.99996 11.9992H6.9999V13.9993H3.99996V11.9992Z" fill="#AAAAAA"/>
</svg>
