<svg width="17" height="17" viewBox="0 0 17 17" fill="none" xmlns="http://www.w3.org/2000/svg">
<path fill-rule="evenodd" clip-rule="evenodd" d="M16.1817 1.09654C16.5545 1.14265 16.8482 1.43622 16.894 1.80864C16.8995 1.85336 17.0279 2.91463 16.9935 4.15202C16.9428 5.97239 16.5815 7.19445 15.889 7.88666L15.0893 8.68652L13.7954 9.9802L10.7512 13.024L9.90968 13.8655L8.75234 15.0226L8.17384 14.444L6.43788 12.7083L7.59512 11.5511L12.4172 6.72981L12.4179 6.7291C12.425 6.72189 12.4315 6.71466 12.4383 6.70735L12.4408 6.70465C12.4464 6.69879 12.4521 6.69283 12.4574 6.68666C12.4608 6.68262 12.4642 6.67845 12.4674 6.67432C12.4695 6.67167 12.4716 6.66904 12.4737 6.66648C12.4752 6.66464 12.4767 6.6628 12.4783 6.66095C12.4833 6.65477 12.4884 6.64858 12.4931 6.64233C12.4962 6.63827 12.4992 6.63381 12.5022 6.62938C12.5034 6.62755 12.5047 6.62573 12.5059 6.62394C12.5125 6.61503 12.5192 6.60583 12.5253 6.59633C12.5279 6.59245 12.5302 6.58838 12.5326 6.58432C12.5337 6.58237 12.5348 6.58043 12.536 6.57851C12.5422 6.56873 12.5485 6.55864 12.554 6.54855C12.5589 6.54013 12.5631 6.53103 12.5676 6.52212C12.5687 6.51987 12.5699 6.51763 12.5711 6.5154C12.5739 6.51017 12.5766 6.50494 12.5791 6.49947C12.584 6.48923 12.5884 6.47867 12.5928 6.46807L12.5944 6.46424C12.5949 6.46295 12.5955 6.46163 12.5961 6.46029C12.5977 6.45672 12.5993 6.45301 12.6008 6.4492C12.667 6.27951 12.6745 6.09181 12.623 5.91817C12.6222 5.91578 12.6213 5.91332 12.6204 5.91088C12.6198 5.90907 12.6191 5.90727 12.6185 5.90551C12.612 5.88482 12.605 5.86394 12.5968 5.84336C12.5951 5.83926 12.5932 5.83541 12.5914 5.83156C12.5897 5.82817 12.5881 5.82478 12.5866 5.82121C12.5851 5.81794 12.5836 5.81465 12.5822 5.81136C12.5761 5.79771 12.57 5.78395 12.563 5.77065C12.5608 5.76657 12.5584 5.76259 12.5559 5.75856C12.5539 5.75535 12.5519 5.75212 12.5501 5.74878L12.5468 5.74302C12.5389 5.72897 12.5309 5.71486 12.5219 5.70119C12.5136 5.6886 12.5041 5.67634 12.4949 5.66446L12.4917 5.66032C12.4893 5.65712 12.4871 5.6539 12.4848 5.65069C12.4811 5.64534 12.4773 5.64002 12.4732 5.63489C12.4557 5.61342 12.437 5.59273 12.417 5.57286C12.0975 5.25317 11.5793 5.25317 11.2597 5.57265V5.57286L5.28044 11.5511L3.54516 9.81605L3.54448 9.81546L2.96576 9.23674L4.1231 8.0797L8.00882 4.19468L9.3028 2.90099H9.30292L10.1025 2.10152C10.7952 1.4091 12.017 1.04795 13.8381 0.997014C15.0758 0.962681 16.1371 1.09101 16.1817 1.09654ZM5.47338 2.10152C5.69254 1.88236 6.01664 1.80586 6.31074 1.90392L7.56674 2.32215L1.80852 8.07949L1.23002 7.50147C0.9104 7.18188 0.9104 6.66361 1.22992 6.34441L5.47338 2.10152ZM3.54448 12.1297L5.85904 14.444C6.17856 14.7635 6.17856 15.2817 5.85904 15.6009C5.53952 15.9206 5.02134 15.9206 4.70182 15.6009L2.38726 13.2869C2.06774 12.9672 2.06774 12.4493 2.38726 12.1297C2.70688 11.8101 3.22496 11.8101 3.54448 12.1297ZM16.0865 11.6782L15.6678 10.4224L9.90968 16.1798L10.4883 16.7581C10.6418 16.9117 10.8498 16.9977 11.0669 16.9977C11.284 16.9977 11.4921 16.9117 11.6454 16.7581L15.8888 12.5159C16.108 12.2964 16.1845 11.9724 16.0865 11.6782Z" fill="#AAAAAA"/>
</svg>
