<svg width="18" height="17" viewBox="0 0 18 17" fill="none" xmlns="http://www.w3.org/2000/svg">
<path fill-rule="evenodd" clip-rule="evenodd" d="M17.0015 3.09114C17.0015 1.93488 16.0642 0.99748 14.9079 0.99748H3.09176C1.93556 0.99748 0.99816 1.93488 0.99816 3.09114V14.9073C0.99816 16.0633 1.93556 17.0009 3.09176 17.0009H14.9079C16.0642 17.0009 17.0015 16.0633 17.0015 14.9073V3.09114ZM8.95684 4.70976C10.0849 4.70976 10.9994 5.6239 10.9994 6.75204C10.9994 7.88 10.0849 8.79454 8.95684 8.79454C7.82868 8.79454 6.9143 7.88 6.9143 6.75204C6.9143 5.6239 7.82868 4.70976 8.95684 4.70976ZM12.265 14.1615H5.79198C5.17492 14.1615 4.6747 13.6548 4.6747 13.0378C4.6747 11.2741 5.76178 9.75914 7.30214 9.1364C7.7717 9.46282 8.34172 9.65466 8.95696 9.65466C9.59474 9.65466 10.1839 9.44886 10.6628 9.09978C12.2518 9.69918 13.3825 11.2391 13.3825 13.0378C13.3825 13.6548 12.8822 14.1615 12.265 14.1615Z" fill="#AAAAAA"/>
</svg>
