<svg width="17" height="13" viewBox="0 0 17 13" fill="none" xmlns="http://www.w3.org/2000/svg">
<path fill-rule="evenodd" clip-rule="evenodd" d="M15.05 8.48827L16.9409 2.81483C17.0357 2.54264 16.9641 2.3785 16.8877 2.27005C16.6917 1.99331 16.2888 1.99024 16.2105 1.99024L5.52454 1.98846L5.23946 0.632144C5.16268 0.311952 4.93482 0.00660801 4.47614 0.00660801L1.99988 -0.000800014C1.6887 -0.000800014 0.99268 0.152656 0.99268 0.44464L0.99988 0.999216C1.03112 1.9377 1.6768 1.99914 1.99988 1.99914H3.99984L5.96022 9.84261C5.65202 10.1702 5.48414 10.6477 5.48414 11.0922C5.48414 12.072 6.26222 12.9747 7.2558 12.9747C8.1941 12.9747 8.89746 12.0937 9.01166 11.5681H12.7911C12.9052 12.0937 13.4749 12.9958 14.5464 12.9958C15.523 12.9958 16.317 12.1471 16.317 11.1699C16.317 10.1973 15.7273 9.33474 14.556 9.33474C14.0692 9.33474 13.4913 9.59733 13.2231 9.99171H8.57908C8.24228 9.46603 7.78212 9.30336 7.31622 9.28496L7.2527 8.94054H14.3185C14.8509 8.94054 14.9558 8.74602 15.05 8.48827ZM6.5679 11.1485C6.5679 10.7756 6.87036 10.4723 7.24196 10.4723C7.61262 10.4723 7.91464 10.7756 7.91464 11.1485C7.91464 11.5208 7.61262 11.8241 7.24196 11.8241C6.87036 11.823 6.5679 11.5208 6.5679 11.1485ZM14.5601 11.815C14.1931 11.815 13.8942 11.516 13.8942 11.1478C13.8942 10.7798 14.1926 10.4805 14.5601 10.4805C14.9277 10.4805 15.2256 10.7798 15.2256 11.1478C15.2256 11.516 14.9271 11.815 14.5601 11.815Z" fill="#AAAAAA"/>
</svg>
