<svg width="16" height="13" viewBox="0 0 16 13" fill="none" xmlns="http://www.w3.org/2000/svg">
<path fill-rule="evenodd" clip-rule="evenodd" d="M7.33326 -0.000687957H1.33323C0.59795 -0.000687957 7.98702e-06 0.6472 7.98702e-06 1.44379V11.555C7.98702e-06 12.3512 0.59795 12.9992 1.33323 12.9992H7.33326V7.64469L8.39058 6.49933L7.33326 5.35386V-0.000687957ZM2.66658 2.88818H5.33328C5.7019 2.88818 5.99991 3.21192 5.99991 3.61037C5.99991 4.00901 5.7019 4.33245 5.33328 4.33245H2.66658C2.29798 4.33245 1.99997 4.00901 1.99997 3.61037C1.99997 3.21192 2.29798 2.88818 2.66658 2.88818ZM5.33328 10.1103H2.66658C2.29798 10.1103 1.99997 9.78683 1.99997 9.38798C1.99997 8.98963 2.29798 8.6661 2.66658 8.6661H5.33328C5.7019 8.6661 5.99991 8.98963 5.99991 9.38798C5.99991 9.78683 5.7019 10.1103 5.33328 10.1103ZM5.99991 7.22131H3.33332C2.96459 7.22131 2.66658 6.89797 2.66658 6.49933C2.66658 6.10058 2.96459 5.77723 3.33332 5.77723H5.99991C6.36864 5.77723 6.66665 6.10058 6.66665 6.49933C6.66665 6.89797 6.36864 7.22131 5.99991 7.22131ZM14.6666 -0.000687957H8.66661V4.75563L10.276 6.49933L8.66661 8.2427V12.9992H14.6666C15.4019 12.9992 16 12.3512 16 11.5548V1.44379C16 0.6472 15.4019 -0.000687957 14.6666 -0.000687957ZM9.99996 4.33245C9.63123 4.33245 9.33335 4.00901 9.33335 3.61037C9.33335 3.21192 9.63123 2.88818 9.99996 2.88818H12.6666C13.0353 2.88818 13.3333 3.21192 13.3333 3.61037C13.3333 4.00901 13.0353 4.33245 12.6666 4.33245H9.99996ZM12.6666 10.1103H9.99996C9.63123 10.1103 9.33335 9.78683 9.33335 9.38798C9.33335 8.98963 9.63123 8.6661 9.99996 8.6661H12.6666C13.0353 8.6661 13.3333 8.98963 13.3333 9.38798C13.3333 9.78683 13.0353 10.1103 12.6666 10.1103ZM13.3333 7.22131H11.3333C10.9646 7.22131 10.6666 6.89797 10.6666 6.49933C10.6666 6.10058 10.9646 5.77723 11.3333 5.77723H13.3333C13.7019 5.77723 13.9999 6.10058 13.9999 6.49933C13.9999 6.89797 13.7019 7.22131 13.3333 7.22131Z" fill="#AAAAAA"/>
</svg>
