<svg width="16" height="16" viewBox="0 0 16 16" fill="none" xmlns="http://www.w3.org/2000/svg">
<path fill-rule="evenodd" clip-rule="evenodd" d="M14.5937 0.936925H14.125V0.468043C14.125 0.209206 13.9153 -0.000458956 13.6562 -0.000458956C13.3971 -0.000458956 13.1875 0.209206 13.1875 0.468043V0.936925H11.2812V0.468043C11.2812 0.209206 11.0716 -0.000458956 10.8125 -0.000458956C10.5534 -0.000458956 10.3437 0.209206 10.3437 0.468043V0.936925H8.46874V0.468043C8.46874 0.209206 8.25909 -0.000458956 8 -0.000458956C7.74089 -0.000458956 7.53124 0.209206 7.53124 0.468043V0.936925H5.65624V0.468043C5.65624 0.209206 5.44659 -0.000458956 5.1875 -0.000458956C4.92839 -0.000458956 4.71874 0.209206 4.71874 0.468043V0.936925H2.81251V0.468043C2.81251 0.209206 2.60274 -0.000458956 2.34375 -0.000458956C2.08466 -0.000458956 1.875 0.209206 1.875 0.468043V0.936925H1.40626C0.6308 0.936925 7.98702e-06 1.5675 7.98702e-06 2.34302V3.78048H16V2.34302C16 1.5675 15.3692 0.936925 14.5937 0.936925ZM9.1032 9.37861L9.90154 8.60033L8.79834 8.43963C8.64544 8.41778 8.51361 8.32169 8.44539 8.18328L7.95192 7.18335L7.45845 8.18328C7.39025 8.32169 7.25842 8.41778 7.10553 8.43963L6.00231 8.60033L6.80066 9.37861C6.91086 9.48635 6.96133 9.6412 6.93523 9.79319L6.74664 10.9236L7.73403 10.4052C7.80223 10.3688 7.87686 10.3509 7.95192 10.3509C8.027 10.3509 8.10161 10.3688 8.16983 10.4052L9.15722 10.9236L8.96862 9.79319C8.94253 9.6412 8.99288 9.48635 9.1032 9.37861ZM7.98702e-06 4.71806V13.1869H16V4.71806H7.98702e-06ZM11.2363 8.60854L9.93394 9.90914L10.2415 11.7015C10.2719 11.8771 10.1994 12.0547 10.0552 12.1595C9.91012 12.2656 9.71729 12.2778 9.56177 12.1953L7.95181 11.3494L6.34186 12.1953C6.18576 12.2792 5.9935 12.2653 5.84839 12.1595C5.70419 12.0547 5.63187 11.8771 5.66207 11.7015L5.96969 9.90914L4.66735 8.60854C4.53964 8.48416 4.49398 8.29766 4.54881 8.12846C4.60419 7.95828 4.75068 7.83518 4.92736 7.80926L6.72684 7.54725L7.53159 5.91717C7.68905 5.59658 8.21458 5.59658 8.37215 5.91717L9.17689 7.54725L10.9764 7.80926C11.153 7.83518 11.2995 7.95828 11.3548 8.12846C11.4099 8.29766 11.364 8.48416 11.2363 8.60854ZM7.98702e-06 14.593V14.1243H16V14.593C16 15.3686 15.3692 15.9992 14.5937 15.9992H1.40626C0.6308 15.9992 7.98702e-06 15.3686 7.98702e-06 14.593Z" fill="#AAAAAA"/>
</svg>
