<svg width="16" height="16" viewBox="0 0 16 16" fill="none" xmlns="http://www.w3.org/2000/svg">
<path fill-rule="evenodd" clip-rule="evenodd" d="M11.0718 6.15222H7.27341L6.27285 5.24409H4.5679C4.43744 5.24409 4.33137 5.34998 4.33137 5.48019V11.2882C4.33137 11.4185 4.43744 11.5247 4.5679 11.5247H4.74758L5.69092 6.66968H11.308V6.38839C11.308 6.25818 11.2019 6.15222 11.0718 6.15222ZM7.99977 -0.000610948C3.58167 -0.000610948 7.98702e-06 3.58146 7.98702e-06 7.99909C7.98702e-06 12.4172 3.58167 15.9993 7.99977 15.9993C12.4179 15.9993 16 12.4172 16 7.99909C16 3.58106 12.4179 -0.000610948 7.99977 -0.000610948ZM12.1195 11.3445C12.0906 11.8955 11.6423 12.3366 11.0878 12.353C11.0825 12.3532 11.0773 12.3547 11.0718 12.3547L10.5795 12.355L4.56769 12.3547C3.97979 12.3547 3.50155 11.8763 3.50155 11.2884V5.48019C3.50155 4.89196 3.97992 4.41387 4.56803 4.41387H6.59341L7.59385 5.32188H11.0718C11.6597 5.32188 12.1379 5.80036 12.1379 6.38879V6.66968L13.0928 6.66978L12.1195 11.3445Z" fill="#AAAAAA"/>
</svg>
