<svg width="18" height="20" viewBox="0 0 18 20" fill="none" xmlns="http://www.w3.org/2000/svg">
<path fill-rule="evenodd" clip-rule="evenodd" d="M5.92118 10.287C5.92118 9.94501 6.19744 9.66717 6.537 9.66717C6.87654 9.66717 7.15268 9.94501 7.15268 10.287C7.15268 10.6282 6.87654 10.9064 6.537 10.9064C6.19744 10.9064 5.92118 10.6282 5.92118 10.287ZM10.8472 15.2431C10.8472 14.9016 11.1234 14.6236 11.463 14.6236C11.8024 14.6236 12.0787 14.9016 12.0787 15.2431C12.0787 15.585 11.8024 15.863 11.463 15.863C11.1234 15.863 10.8472 15.585 10.8472 15.2431ZM16.3889 0.993571H1.61112C1.27112 0.993571 0.9953 1.2707 0.9953 1.61296V19.3737C0.9953 19.5884 1.10598 19.7877 1.28714 19.9007C1.4692 20.0136 1.69522 20.0235 1.88646 19.9277L4.074 18.8271L6.26154 19.9277C6.4348 20.0147 6.6392 20.0147 6.81234 19.9277L9 18.8271L11.1875 19.9277C11.274 19.9714 11.3687 19.9931 11.4629 19.9931C11.5571 19.9931 11.6517 19.9714 11.7383 19.9277L13.9259 18.8271L16.1134 19.9277C16.3046 20.0235 16.5307 20.0136 16.7127 19.9007C16.8939 19.7877 17.0046 19.5884 17.0046 19.3737V1.61296C17.0046 1.2707 16.7288 0.993571 16.3889 0.993571ZM4.074 3.4718C4.41412 3.4718 4.6898 3.74904 4.6898 4.09119C4.6898 4.43354 4.41412 4.71097 4.074 4.71097C3.734 4.71097 3.4583 4.43354 3.4583 4.09119C3.4583 3.74904 3.734 3.4718 4.074 3.4718ZM4.074 7.18922C3.734 7.18922 3.4583 6.91179 3.4583 6.56935C3.4583 6.22738 3.734 5.95005 4.074 5.95005C4.41412 5.95005 4.6898 6.22738 4.6898 6.56935C4.6898 6.91179 4.41412 7.18922 4.074 7.18922ZM4.6898 10.287C4.6898 9.2618 5.51836 8.42818 6.537 8.42818C7.55564 8.42818 8.38418 9.2618 8.38418 10.287C8.38418 11.3116 7.55564 12.1457 6.537 12.1457C5.51836 12.1457 4.6898 11.3116 4.6898 10.287ZM6.82286 15.8317C6.7026 15.9532 6.545 16.0136 6.38742 16.0136C6.22994 16.0136 6.07236 15.9532 5.95208 15.8317C5.71164 15.59 5.71164 15.1979 5.95208 14.9557L11.1767 9.69873C11.4172 9.4566 11.8069 9.4566 12.0474 9.69873C12.2879 9.94064 12.2879 10.3327 12.0474 10.5748L6.82286 15.8317ZM11.463 17.102C10.4444 17.102 9.61568 16.2683 9.61568 15.2431C9.61568 14.2185 10.4444 13.3845 11.463 13.3845C12.4815 13.3845 13.3102 14.2185 13.3102 15.2431C13.3102 16.2683 12.4815 17.102 11.463 17.102ZM13.9259 7.18922H6.537C6.1971 7.18922 5.92118 6.91188 5.92118 6.56935C5.92118 6.22738 6.1971 5.95005 6.537 5.95005H13.9259C14.2658 5.95005 14.5417 6.22738 14.5417 6.56935C14.5417 6.91188 14.2658 7.18922 13.9259 7.18922ZM13.9259 4.71097H6.537C6.1971 4.71097 5.92118 4.43354 5.92118 4.09119C5.92118 3.74904 6.1971 3.4718 6.537 3.4718H13.9259C14.2658 3.4718 14.5417 3.74904 14.5417 4.09119C14.5417 4.43354 14.2658 4.71097 13.9259 4.71097Z" fill="#AAAAAA"/>
</svg>
