<svg width="18" height="19" viewBox="0 0 18 19" fill="none" xmlns="http://www.w3.org/2000/svg">
<path fill-rule="evenodd" clip-rule="evenodd" d="M6.37804 6.15321C6.26416 6.23049 6.11768 6.23752 5.99694 6.172C5.87622 6.10642 5.8008 5.97878 5.8008 5.83936V3.28681C5.8008 3.16056 5.86282 3.04281 5.96616 2.97316L8.794 1.05861C8.91874 0.973916 9.08124 0.973916 9.20588 1.05861L12.0337 2.97356C12.137 3.04303 12.1991 3.16096 12.1991 3.28681V5.83936C12.1991 5.97838 12.1237 6.10642 12.003 6.172C11.8822 6.23752 11.7357 6.23049 11.6218 6.15321L10.3139 5.26797V10.6259C10.3139 11.3616 9.72452 11.9603 9 11.9603C8.27546 11.9603 7.68598 11.3616 7.68598 10.6259V5.26797L6.37804 6.15321ZM15.4848 5.10145C16.4807 6.49547 17.007 8.14495 17.007 9.87092C17.007 14.3552 13.415 18.0029 9 18.0029C4.58486 18.0029 0.9929 14.3552 0.9929 9.87092C0.9929 8.14495 1.51922 6.49547 2.51508 5.10145C2.6293 4.94166 2.84514 4.89812 3.01062 5.0019L5.10224 6.31113C5.19014 6.36623 5.2516 6.45588 5.27162 6.55899C5.29176 6.66198 5.26864 6.76863 5.20788 6.85373C4.62584 7.66863 4.3181 8.63285 4.3181 9.64246C4.3181 12.2641 6.41844 14.3972 9 14.3972C11.5816 14.3972 13.6819 12.2641 13.6819 9.64246C13.6819 8.63285 13.3742 7.66863 12.7921 6.85373C12.7315 6.76863 12.7085 6.66198 12.7284 6.55899C12.7484 6.45588 12.8098 6.36623 12.8979 6.31113L14.9894 5.0019C15.1547 4.89812 15.3707 4.94166 15.4848 5.10145Z" fill="#AAAAAA"/>
</svg>
