<svg width="19" height="20" viewBox="0 0 19 20" fill="none" xmlns="http://www.w3.org/2000/svg">
<path fill-rule="evenodd" clip-rule="evenodd" d="M9.3836 5.91227H8.30613V6.95584H9.3836V5.91227ZM13.6938 5.91227H12.6162V6.95584H13.6938V5.91227ZM9.49987 -7.98702e-06C4.81043 -7.98702e-06 0.995084 3.80298 0.995084 8.47778C0.995084 12.933 4.4608 16.5965 8.84562 16.9309V19.3467C8.84562 19.5564 8.94655 19.7531 9.1173 19.8757C9.28849 19.9985 9.50741 20.0317 9.70679 19.9653C15.4389 18.0603 18.0048 12.8232 18.0048 8.47778C18.0048 3.80298 14.1894 -7.98702e-06 9.49987 -7.98702e-06ZM8.84562 9.84539C8.84562 10.9939 8.20543 12.0258 7.17557 12.5393C6.84953 12.7008 6.45779 12.5664 6.29769 12.2474C6.13645 11.9251 6.2676 11.5335 6.59043 11.3725C7.1275 11.1049 7.47392 10.5873 7.52644 9.99945H5.57455C5.21338 9.99945 4.92028 9.70715 4.92028 9.34701V6.73876C4.92028 6.37859 5.21338 6.0867 5.57455 6.0867H8.19147C8.55252 6.0867 8.84562 6.37859 8.84562 6.73876C8.84562 7.88699 8.84562 8.64184 8.84562 9.84539ZM14.0794 9.84539C14.0794 10.9939 13.4393 12.0258 12.4094 12.5393C12.0833 12.7008 11.6916 12.5664 11.5315 12.2474C11.3701 11.9251 11.5012 11.5335 11.824 11.3725C12.3614 11.1049 12.7076 10.5873 12.7603 9.99945H10.8083C10.4471 9.99945 10.154 9.70715 10.154 9.34701V6.73876C10.154 6.37859 10.4471 6.0867 10.8083 6.0867H13.4252C13.7864 6.0867 14.0794 6.37859 14.0794 6.73876C14.0794 7.88699 14.0794 8.64184 14.0794 9.84539Z" fill="#AAAAAA"/>
</svg>
