<svg width="16" height="16" viewBox="0 0 16 16" fill="none" xmlns="http://www.w3.org/2000/svg">
<path fill-rule="evenodd" clip-rule="evenodd" d="M11.9999 1.99897V-0.000591993L-0.000116944 -0.000990987V13.5077C-0.000116944 14.8759 1.11294 15.9889 2.48107 15.9889H13.5085C14.8765 15.9889 15.9897 14.8759 15.9897 13.5077L16 1.99897H11.9999ZM9.99996 12.9992H1.99997V10.9994H9.99996V11.9993V12.9992ZM9.99996 8.99942H1.99997V6.99908H9.99996V7.9993V8.99942ZM9.99996 3.999V4.99943H1.99997V3.999V1.99897H9.99996V3.999ZM13.9999 13.9993C13.9999 14.4553 13.9644 14.3349 13.5085 14.3349C13.0523 14.3349 11.9999 14.4553 11.9999 13.9993V3.999H13.9999V13.9993Z" fill="#AAAAAA"/>
</svg>
