<svg width="16" height="11" viewBox="0 0 16 11" fill="none" xmlns="http://www.w3.org/2000/svg">
<path fill-rule="evenodd" clip-rule="evenodd" d="M10.3187 0.66384C15.2649 1.55484 15.9113 2.96242 15.9897 7.90296C15.9947 8.21918 15.9974 8.27381 15.9986 8.2458C15.9985 8.32942 15.9984 8.4522 15.9984 8.62932C15.9984 8.62932 14.8207 10.9993 7.99964 10.9993C1.17852 10.9993 0.000920057 8.62932 0.000920057 8.62932C0.000920057 8.35366 0.000580072 8.19593 0.000339985 8.11066C0.00160003 8.15597 0.00503993 8.13547 0.01248 7.74247C0.10254 2.93184 0.78826 1.54514 5.6805 0.66384C5.6805 0.66384 6.37688 1.54958 7.99964 1.54958C9.62242 1.54958 10.3187 0.66384 10.3187 0.66384Z" fill="#AAAAAA"/>
</svg>
