<svg width="7" height="8" viewBox="0 0 7 8" fill="none" xmlns="http://www.w3.org/2000/svg">
<path fill-rule="evenodd" clip-rule="evenodd" d="M6.74276 7.99313H5.24668C5.1089 7.99313 4.99742 7.83639 4.99742 7.64266V1.33649C4.99742 1.14286 5.1089 0.98604 5.24668 0.98604H6.74276C6.88056 0.98604 6.99202 1.14286 6.99202 1.33649V7.64266C6.99202 7.83639 6.88056 7.99313 6.74276 7.99313ZM1.24124 7.99303H2.75862C2.89836 7.99303 3.01154 7.82522 3.01154 7.61823V2.37164C3.01154 2.16455 2.89836 1.99694 2.75862 1.99694H1.24124C1.10152 1.99694 0.98834 2.16455 0.98834 2.37164V7.61823C0.98834 7.82522 1.10152 7.99303 1.24124 7.99303Z" fill="#AAAAAA"/>
</svg>
