<svg width="23" height="22" viewBox="0 0 23 22" fill="none" xmlns="http://www.w3.org/2000/svg">
<path fill-rule="evenodd" clip-rule="evenodd" d="M16.3567 9.7635C15.8426 9.70561 15.3185 9.83197 14.8732 10.1289L12.6982 7.98805C13.0068 7.53766 13.1381 7.00633 13.0787 6.48649L18.931 0.633968L22.2076 3.91066L16.3567 9.7635ZM4.45437 17.0446L4.6661 17.2571L8.38095 13.5399L9.30597 14.4525L5.58495 18.1745L5.79735 18.39L4.90128 19.4961L1.95443 21.3648L1.4756 20.8868L3.3443 17.9416L4.45437 17.0446ZM9.75597 6.93687C10.1856 5.40097 9.7958 3.6842 8.59037 2.47599C7.38888 1.27947 5.69195 0.886352 4.1646 1.30093L6.75133 3.88664L6.07235 6.4191L3.53645 7.09765L0.95135 4.51393C0.537975 6.03994 0.930175 7.73694 2.1294 8.93701C3.38643 10.1947 5.19745 10.5635 6.78095 10.0482L6.79583 10.0626L17.4349 20.7015C17.856 21.1211 18.4076 21.3344 18.9591 21.3344C19.5107 21.3344 20.0615 21.1211 20.4833 20.7015C21.3248 19.8626 21.3248 18.4984 20.4833 17.6523L9.75597 6.93687ZM19.1443 20.34C18.692 20.34 18.3247 19.9712 18.3247 19.5165C18.3247 19.061 18.692 18.6938 19.1443 18.6938C19.6005 18.6938 19.9692 19.061 19.9692 19.5165C19.97 19.9712 19.6013 20.34 19.1443 20.34Z" fill="white"/>
</svg>
