<svg width="16" height="15" viewBox="0 0 16 15" fill="none" xmlns="http://www.w3.org/2000/svg">
<path fill-rule="evenodd" clip-rule="evenodd" d="M7.98702e-06 -0.000776052V14.9993H16V-0.000776052H7.98702e-06ZM4.99992 13.999H0.99998V11.9992H4.99992V13.999ZM4.99992 10.9991H0.99998V8.99906H4.99992V10.9991ZM4.99992 7.99943H0.99998V5.99938H4.99992V7.99943ZM4.99992 4.99925H0.99998V2.9991H4.99992V4.99925ZM9.99996 13.999H5.99991V11.9992H9.99996V13.999ZM9.99996 10.9991H5.99991V8.99906H9.99996V10.9991ZM9.99996 7.99943H5.99991V5.99938H9.99996V7.99943ZM9.99996 4.99925H5.99991V2.9991H9.99996V4.99925ZM15 13.999H11V11.9992H15V13.999ZM15 10.9991H11V8.99906H15V10.9991ZM15 7.99943H11V5.99938H15V7.99943ZM15 4.99925H11V2.9991H15V4.99925Z" fill="#AAAAAA"/>
</svg>
