<svg width="16" height="19" viewBox="0 0 16 19" fill="none" xmlns="http://www.w3.org/2000/svg">
<path fill-rule="evenodd" clip-rule="evenodd" d="M14.7692 2.37437H11.0767C10.7123 1.34099 10.3135 -0.000573993 8.61522 -0.000573993C6.0704 -0.000573993 5.28739 1.34099 4.9229 2.37437H1.23059C0.24846 2.37437 -0.000116944 3.76512 -0.000116944 4.7492V17.2179C-0.000116944 18.2022 0.795356 18.9993 1.77773 18.9993H14.2221C15.2043 18.9993 15.9999 18.2022 15.9999 17.2179V4.7492C15.9998 3.76512 15.7513 2.37437 14.7692 2.37437ZM7.99987 2.96793C8.48865 2.96793 8.88863 3.3645 8.88863 3.85851C8.88863 4.35305 8.48865 4.7492 7.99987 4.7492C7.51098 4.7492 7.11101 4.35305 7.11101 3.85851C7.11101 3.3645 7.51098 2.96793 7.99987 2.96793ZM9.99996 15.9994H2.99995V13.9994H9.99996V15.9994ZM12.9999 11.9994H2.99995V9.99917H12.9999V11.9994ZM12.9999 7.99951H2.99995V5.99935H12.9999V7.99951Z" fill="#AAAAAA"/>
</svg>
