<svg width="17" height="13" viewBox="0 0 17 13" fill="none" xmlns="http://www.w3.org/2000/svg">
<path fill-rule="evenodd" clip-rule="evenodd" d="M12.9999 3.39933C11.5995 3.39933 10.5 4.1995 10.4003 4.29913L11.5995 5.89934C11.5995 5.89934 12.2998 5.39888 12.9999 5.39888C14.4003 5.39888 14.4999 6.59907 14.4999 6.99939C14.0996 6.89916 13.4004 6.6994 12.4999 6.89917C11.0995 7.19977 9.70013 8.89981 10.4003 10.7991C11.0995 12.5987 13.4999 12.8997 14.4999 11.3997V12.3995H16.5V7.09883C16.5 4.39925 14.5996 3.39933 12.9999 3.39933ZM12 9.89984C11.9004 7.99922 13.4999 7.99922 14.4999 8.09886V9.09878C14.4999 10.299 12.2001 11.3997 12 9.89984ZM7.39988 12.4993H9.49999L6.29976 0.49919H3.60009L0.499898 12.4993H2.60001L3.60009 8.49949H6.29976L7.39988 12.4993ZM4.10009 6.49924L4.8998 3.29889L5.79976 6.49924H4.10009Z" fill="#AAAAAA"/>
</svg>
