<svg width="147" height="165" viewBox="0 0 147 165" fill="none" xmlns="http://www.w3.org/2000/svg">
<path d="M68.9999 5.24997C98.6852 5.24997 122.75 29.3147 122.75 59C122.75 88.6852 98.6852 112.75 68.9999 112.75C39.3146 112.75 15.25 88.6852 15.25 59C15.25 29.3147 39.3146 5.24997 68.9999 5.24997Z" fill="black" fill-opacity="0.01" stroke="#F3F6F9" stroke-width="8"/>
<mask id="path-2-inside-1" fill="white">
<path fill-rule="evenodd" clip-rule="evenodd" d="M68.25 1.25001C68.25 1.25001 123.187 0.687462 126.75 59C126.75 59 127.962 89.4128 101.919 106.312"/>
</mask>
<path fill-rule="evenodd" clip-rule="evenodd" d="M68.25 1.25001C68.25 1.25001 123.187 0.687462 126.75 59C126.75 59 127.962 89.4128 101.919 106.312" fill="black" fill-opacity="0.01"/>
<path d="M126.75 59L134.744 58.6814L134.74 58.5967L134.735 58.5121L126.75 59ZM68.25 1.25001C68.3319 9.24959 68.3279 9.24963 68.3242 9.24967C68.3232 9.24968 68.3197 9.24971 68.3177 9.24972C68.3138 9.24976 68.3107 9.24978 68.3085 9.24979C68.3039 9.24982 68.3025 9.24982 68.3043 9.24981C68.3079 9.24981 68.3242 9.24979 68.3527 9.24999C68.4097 9.25038 68.5156 9.25161 68.6672 9.25541C68.9706 9.26303 69.4554 9.2809 70.0964 9.32274C71.3811 9.4066 73.2778 9.58573 75.5881 9.96667C80.2403 10.7337 86.3905 12.2898 92.5627 15.4014C104.471 21.4045 117.175 33.4605 118.765 59.4878L134.735 58.5121C132.763 26.2269 116.217 9.40794 99.7653 1.11422C91.7579 -2.92259 83.9511 -4.87045 78.1911 -5.82018C75.2954 -6.29763 72.8722 -6.53012 71.1386 -6.64328C70.2705 -6.69994 69.5716 -6.72693 69.0684 -6.73955C68.8168 -6.74587 68.6137 -6.74859 68.4627 -6.74963C68.3871 -6.75015 68.3245 -6.75025 68.2753 -6.75016C68.2507 -6.75012 68.2294 -6.75002 68.2115 -6.74992C68.2026 -6.74986 68.1945 -6.7498 68.1872 -6.74974C68.1836 -6.74971 68.1788 -6.74967 68.177 -6.74966C68.1724 -6.74961 68.1681 -6.74957 68.25 1.25001ZM126.75 59C118.756 59.3185 118.756 59.3152 118.756 59.312C118.756 59.3111 118.756 59.308 118.756 59.3062C118.756 59.3025 118.756 59.2993 118.755 59.2965C118.755 59.291 118.755 59.2872 118.755 59.2852C118.755 59.2812 118.755 59.2842 118.755 59.2941C118.756 59.3139 118.757 59.3611 118.758 59.4344C118.759 59.5812 118.76 59.8318 118.753 60.1758C118.739 60.8649 118.694 61.9224 118.568 63.2661C118.314 65.965 117.735 69.7508 116.446 73.9928C113.871 82.468 108.57 92.4594 97.5639 99.6012L106.273 113.023C121.311 103.266 128.426 89.6009 131.755 78.6448C133.418 73.1712 134.165 68.2976 134.497 64.7659C134.664 62.9944 134.728 61.5439 134.75 60.5037C134.76 59.9832 134.76 59.5638 134.757 59.2568C134.755 59.1033 134.752 58.9776 134.75 58.8813C134.749 58.8331 134.748 58.7923 134.746 58.7589C134.746 58.7422 134.745 58.7274 134.745 58.7145C134.745 58.708 134.744 58.702 134.744 58.6965C134.744 58.6938 134.744 58.69 134.744 58.6886C134.744 58.6849 134.744 58.6814 126.75 59Z" fill="#51CCA9" mask="url(#path-2-inside-1)"/>
<path d="M61.3711 59H49.3945V56.4805L53.6953 52.1328C54.9688 50.8281 55.8008 49.9258 56.1914 49.4258C56.582 48.918 56.8633 48.4492 57.0352 48.0195C57.207 47.5898 57.293 47.1445 57.293 46.6836C57.293 45.9961 57.1016 45.4844 56.7188 45.1484C56.3438 44.8125 55.8398 44.6445 55.207 44.6445C54.543 44.6445 53.8984 44.7969 53.2734 45.1016C52.6484 45.4062 51.9961 45.8398 51.3164 46.4023L49.3477 44.0703C50.1914 43.3516 50.8906 42.8438 51.4453 42.5469C52 42.25 52.6055 42.0234 53.2617 41.8672C53.918 41.7031 54.6523 41.6211 55.4648 41.6211C56.5352 41.6211 57.4805 41.8164 58.3008 42.207C59.1211 42.5977 59.7578 43.1445 60.2109 43.8477C60.6641 44.5508 60.8906 45.3555 60.8906 46.2617C60.8906 47.0508 60.75 47.793 60.4688 48.4883C60.1953 49.1758 59.7656 49.8828 59.1797 50.6094C58.6016 51.3359 57.5781 52.3711 56.1094 53.7148L53.9062 55.7891V55.9531H61.3711V59ZM75.4688 55.4492H73.4062V59H69.8672V55.4492H62.5547V52.9297L70.0664 41.8672H73.4062V52.6367H75.4688V55.4492ZM69.8672 52.6367V49.7305C69.8672 49.2461 69.8867 48.543 69.9258 47.6211C69.9648 46.6992 69.9961 46.1641 70.0195 46.0156H69.9258C69.6367 46.6562 69.2891 47.2812 68.8828 47.8906L65.7422 52.6367H69.8672ZM88.793 59H76.8164V56.4805L81.1172 52.1328C82.3906 50.8281 83.2227 49.9258 83.6133 49.4258C84.0039 48.918 84.2852 48.4492 84.457 48.0195C84.6289 47.5898 84.7148 47.1445 84.7148 46.6836C84.7148 45.9961 84.5234 45.4844 84.1406 45.1484C83.7656 44.8125 83.2617 44.6445 82.6289 44.6445C81.9648 44.6445 81.3203 44.7969 80.6953 45.1016C80.0703 45.4062 79.418 45.8398 78.7383 46.4023L76.7695 44.0703C77.6133 43.3516 78.3125 42.8438 78.8672 42.5469C79.4219 42.25 80.0273 42.0234 80.6836 41.8672C81.3398 41.7031 82.0742 41.6211 82.8867 41.6211C83.957 41.6211 84.9023 41.8164 85.7227 42.207C86.543 42.5977 87.1797 43.1445 87.6328 43.8477C88.0859 44.5508 88.3125 45.3555 88.3125 46.2617C88.3125 47.0508 88.1719 47.793 87.8906 48.4883C87.6172 49.1758 87.1875 49.8828 86.6016 50.6094C86.0234 51.3359 85 52.3711 83.5312 53.7148L81.3281 55.7891V55.9531H88.793V59Z" fill="#51CCA9"/>
<path d="M39.8331 75L37.4269 67.1592H37.3654C37.4519 68.7542 37.4952 69.8184 37.4952 70.3516V75H35.6017V65.0059H38.4864L40.8517 72.6484H40.8927L43.4015 65.0059H46.2863V75H44.3107V70.2695C44.3107 70.0462 44.3129 69.7887 44.3175 69.4971C44.3266 69.2054 44.3585 68.4307 44.4132 67.1729H44.3517L41.7745 75H39.8331ZM50.5858 71.165C50.5858 71.9215 50.7088 72.4935 50.9549 72.8809C51.2056 73.2682 51.6112 73.4619 52.1717 73.4619C52.7277 73.4619 53.1265 73.2705 53.368 72.8877C53.6141 72.5003 53.7371 71.9261 53.7371 71.165C53.7371 70.4085 53.6141 69.8411 53.368 69.4629C53.1219 69.0846 52.7186 68.8955 52.158 68.8955C51.6021 68.8955 51.201 69.0846 50.9549 69.4629C50.7088 69.8366 50.5858 70.404 50.5858 71.165ZM55.87 71.165C55.87 72.4092 55.5418 73.3822 54.8856 74.084C54.2293 74.7858 53.3156 75.1367 52.1444 75.1367C51.4107 75.1367 50.7635 74.9772 50.203 74.6582C49.6424 74.3346 49.2118 73.8721 48.911 73.2705C48.6102 72.6689 48.4598 71.9671 48.4598 71.165C48.4598 69.9163 48.7857 68.9456 49.4373 68.2529C50.089 67.5602 51.0051 67.2139 52.1854 67.2139C52.9191 67.2139 53.5662 67.3734 54.1268 67.6924C54.6873 68.0114 55.118 68.4694 55.4188 69.0664C55.7196 69.6634 55.87 70.363 55.87 71.165ZM62.1382 67.2139C62.4208 67.2139 62.6555 67.2344 62.8423 67.2754L62.6851 69.2305C62.5165 69.1849 62.3114 69.1621 62.0699 69.1621C61.4045 69.1621 60.885 69.333 60.5113 69.6748C60.1422 70.0166 59.9576 70.4951 59.9576 71.1104V75H57.8726V67.3574H59.4517L59.7593 68.6426H59.8619C60.0989 68.2142 60.4179 67.8701 60.8189 67.6104C61.2245 67.346 61.6643 67.2139 62.1382 67.2139ZM67.6751 68.6973C67.233 68.6973 66.8867 68.8385 66.636 69.1211C66.3854 69.3991 66.2418 69.7956 66.2054 70.3105H69.1311C69.122 69.7956 68.9876 69.3991 68.7278 69.1211C68.468 68.8385 68.1171 68.6973 67.6751 68.6973ZM67.969 75.1367C66.7386 75.1367 65.777 74.7972 65.0843 74.1182C64.3916 73.4391 64.0452 72.4775 64.0452 71.2334C64.0452 69.9528 64.3642 68.9639 65.0022 68.2666C65.6448 67.5648 66.5312 67.2139 67.6614 67.2139C68.7415 67.2139 69.5823 67.5215 70.1839 68.1367C70.7854 68.752 71.0862 69.6019 71.0862 70.6865V71.6982H66.1575C66.1803 72.2907 66.3557 72.7533 66.6839 73.0859C67.012 73.4186 67.4723 73.585 68.0647 73.585C68.525 73.585 68.9602 73.5371 69.3704 73.4414C69.7805 73.3457 70.2089 73.193 70.6555 72.9834V74.5967C70.291 74.779 69.9013 74.9134 69.4866 75C69.0719 75.0911 68.566 75.1367 67.969 75.1367ZM77.1423 75V65.0059H79.2614V75H77.1423ZM88.9477 75H86.8627V70.5361C86.8627 69.9847 86.7648 69.5723 86.5688 69.2988C86.3728 69.0208 86.0607 68.8818 85.6323 68.8818C85.0489 68.8818 84.6274 69.0778 84.3676 69.4697C84.1079 69.8571 83.978 70.502 83.978 71.4043V75H81.893V67.3574H83.4858L83.7661 68.335H83.8823C84.1147 67.9658 84.4337 67.6878 84.8393 67.501C85.2495 67.3096 85.7143 67.2139 86.2338 67.2139C87.1225 67.2139 87.797 67.4554 88.2573 67.9385C88.7176 68.417 88.9477 69.1097 88.9477 70.0166V75ZM95.5988 68.9229H93.7941V75H91.7091V68.9229H90.5607V67.918L91.7091 67.3574V66.7969C91.7091 65.9264 91.9233 65.2907 92.3517 64.8896C92.7801 64.4886 93.466 64.2881 94.4093 64.2881C95.1294 64.2881 95.7697 64.3952 96.3302 64.6094L95.797 66.1406C95.3778 66.0085 94.9904 65.9424 94.6349 65.9424C94.3387 65.9424 94.1245 66.0312 93.9923 66.209C93.8602 66.3822 93.7941 66.6055 93.7941 66.8789V67.3574H95.5988V68.9229ZM98.743 71.165C98.743 71.9215 98.8661 72.4935 99.1122 72.8809C99.3628 73.2682 99.7684 73.4619 100.329 73.4619C100.885 73.4619 101.284 73.2705 101.525 72.8877C101.771 72.5003 101.894 71.9261 101.894 71.165C101.894 70.4085 101.771 69.8411 101.525 69.4629C101.279 69.0846 100.876 68.8955 100.315 68.8955C99.7593 68.8955 99.3583 69.0846 99.1122 69.4629C98.8661 69.8366 98.743 70.404 98.743 71.165ZM104.027 71.165C104.027 72.4092 103.699 73.3822 103.043 74.084C102.387 74.7858 101.473 75.1367 100.302 75.1367C99.5679 75.1367 98.9208 74.9772 98.3602 74.6582C97.7997 74.3346 97.369 73.8721 97.0682 73.2705C96.7675 72.6689 96.6171 71.9671 96.6171 71.165C96.6171 69.9163 96.9429 68.9456 97.5946 68.2529C98.2463 67.5602 99.1623 67.2139 100.343 67.2139C101.076 67.2139 101.724 67.3734 102.284 67.6924C102.845 68.0114 103.275 68.4694 103.576 69.0664C103.877 69.6634 104.027 70.363 104.027 71.165Z" fill="#6A707E"/>
<path d="M11.8556 138.197H12.7521C13.59 138.197 14.2169 138.033 14.633 137.705C15.049 137.371 15.257 136.888 15.257 136.255C15.257 135.616 15.0812 135.145 14.7296 134.84C14.3839 134.535 13.839 134.383 13.0949 134.383H11.8556V138.197ZM18.008 136.158C18.008 137.541 17.5744 138.599 16.7072 139.331C15.8459 140.063 14.6183 140.43 13.0246 140.43H11.8556V145H9.13101V132.15H13.2355C14.7941 132.15 15.9777 132.487 16.7863 133.161C17.6007 133.829 18.008 134.828 18.008 136.158ZM24.6521 136.896C24.0838 136.896 23.6385 137.078 23.3162 137.441C22.9939 137.799 22.8094 138.309 22.7625 138.971H26.5242C26.5125 138.309 26.3396 137.799 26.0057 137.441C25.6717 137.078 25.2205 136.896 24.6521 136.896ZM25.0301 145.176C23.448 145.176 22.2117 144.739 21.3211 143.866C20.4305 142.993 19.9852 141.757 19.9852 140.157C19.9852 138.511 20.3953 137.239 21.2156 136.343C22.0418 135.44 23.1814 134.989 24.6346 134.989C26.0232 134.989 27.1043 135.385 27.8777 136.176C28.6512 136.967 29.0379 138.06 29.0379 139.454V140.755H22.701C22.7303 141.517 22.9559 142.111 23.3777 142.539C23.7996 142.967 24.3914 143.181 25.1531 143.181C25.7449 143.181 26.3045 143.119 26.8318 142.996C27.3592 142.873 27.91 142.677 28.4842 142.407V144.481C28.0154 144.716 27.5145 144.889 26.9812 145C26.448 145.117 25.7977 145.176 25.0301 145.176ZM40.6479 145H37.9672V139.261C37.9672 138.552 37.8412 138.021 37.5893 137.67C37.3373 137.312 36.936 137.134 36.3852 137.134C35.6352 137.134 35.0932 137.386 34.7592 137.89C34.4252 138.388 34.2582 139.217 34.2582 140.377V145H31.5776V135.174H33.6254L33.9858 136.431H34.1352C34.434 135.956 34.8442 135.599 35.3657 135.358C35.893 135.112 36.4907 134.989 37.1586 134.989C38.3012 134.989 39.1684 135.3 39.7602 135.921C40.352 136.536 40.6479 137.427 40.6479 138.593V145ZM46.879 145.176C45.7247 145.176 44.8165 144.728 44.1544 143.831C43.4981 142.935 43.17 141.692 43.17 140.104C43.17 138.493 43.504 137.239 44.172 136.343C44.8458 135.44 45.7716 134.989 46.9493 134.989C48.1856 134.989 49.129 135.47 49.7794 136.431H49.8673C49.7325 135.698 49.6651 135.045 49.6651 134.471V131.324H52.3546V145H50.2979L49.7794 143.726H49.6651C49.0557 144.692 48.127 145.176 46.879 145.176ZM47.8194 143.04C48.505 143.04 49.0059 142.841 49.3223 142.442C49.6446 142.044 49.8204 141.367 49.8497 140.412V140.122C49.8497 139.067 49.6856 138.312 49.3575 137.854C49.0352 137.397 48.5079 137.169 47.7755 137.169C47.1778 137.169 46.712 137.424 46.378 137.934C46.0499 138.438 45.8858 139.173 45.8858 140.14C45.8858 141.106 46.0528 141.833 46.3868 142.319C46.7208 142.8 47.1983 143.04 47.8194 143.04ZM55.404 132.634C55.404 131.761 55.8903 131.324 56.863 131.324C57.8357 131.324 58.322 131.761 58.322 132.634C58.322 133.05 58.1989 133.375 57.9528 133.609C57.7126 133.838 57.3493 133.952 56.863 133.952C55.8903 133.952 55.404 133.513 55.404 132.634ZM58.1989 145H55.5183V135.174H58.1989V145ZM70.4505 145H67.7699V139.261C67.7699 138.552 67.6439 138.021 67.3919 137.67C67.14 137.312 66.7386 137.134 66.1878 137.134C65.4378 137.134 64.8959 137.386 64.5619 137.89C64.2279 138.388 64.0609 139.217 64.0609 140.377V145H61.3802V135.174H63.4281L63.7884 136.431H63.9378C64.2367 135.956 64.6468 135.599 65.1683 135.358C65.6957 135.112 66.2933 134.989 66.9613 134.989C68.1039 134.989 68.9711 135.3 69.5628 135.921C70.1546 136.536 70.4505 137.427 70.4505 138.593V145ZM82.1221 135.174V136.536L80.584 136.932C80.8652 137.371 81.0059 137.863 81.0059 138.408C81.0059 139.463 80.6367 140.286 79.8984 140.878C79.166 141.464 78.1465 141.757 76.8398 141.757L76.3564 141.73L75.9609 141.687C75.6855 141.897 75.5479 142.132 75.5479 142.39C75.5479 142.776 76.04 142.97 77.0244 142.97H78.6943C79.7725 142.97 80.5928 143.201 81.1553 143.664C81.7236 144.127 82.0078 144.807 82.0078 145.703C82.0078 146.852 81.5273 147.742 80.5664 148.375C79.6113 149.008 78.2373 149.324 76.4443 149.324C75.0732 149.324 74.0244 149.084 73.2979 148.604C72.5771 148.129 72.2168 147.461 72.2168 146.6C72.2168 146.008 72.4014 145.513 72.7705 145.114C73.1396 144.716 73.6816 144.432 74.3965 144.262C74.1211 144.145 73.8809 143.954 73.6758 143.69C73.4707 143.421 73.3682 143.137 73.3682 142.838C73.3682 142.463 73.4766 142.152 73.6934 141.906C73.9102 141.654 74.2236 141.408 74.6338 141.168C74.1182 140.945 73.708 140.588 73.4033 140.096C73.1045 139.604 72.9551 139.023 72.9551 138.355C72.9551 137.283 73.3037 136.454 74.001 135.868C74.6982 135.282 75.6943 134.989 76.9893 134.989C77.2646 134.989 77.5898 135.016 77.9648 135.068C78.3457 135.115 78.5889 135.15 78.6943 135.174H82.1221ZM74.5371 146.389C74.5371 146.758 74.7129 147.048 75.0645 147.259C75.4219 147.47 75.9199 147.575 76.5586 147.575C77.5195 147.575 78.2725 147.443 78.8174 147.18C79.3623 146.916 79.6348 146.556 79.6348 146.099C79.6348 145.729 79.4736 145.475 79.1514 145.334C78.8291 145.193 78.3311 145.123 77.6572 145.123H76.2686C75.7764 145.123 75.3633 145.237 75.0293 145.466C74.7012 145.7 74.5371 146.008 74.5371 146.389ZM75.5127 138.391C75.5127 138.924 75.6328 139.346 75.873 139.656C76.1191 139.967 76.4912 140.122 76.9893 140.122C77.4932 140.122 77.8623 139.967 78.0967 139.656C78.3311 139.346 78.4482 138.924 78.4482 138.391C78.4482 137.207 77.9619 136.615 76.9893 136.615C76.0049 136.615 75.5127 137.207 75.5127 138.391ZM99.8137 132.15V140.465C99.8137 141.414 99.5999 142.246 99.1721 142.961C98.7503 143.676 98.138 144.224 97.3352 144.604C96.5325 144.985 95.5833 145.176 94.4876 145.176C92.8352 145.176 91.552 144.754 90.638 143.91C89.7239 143.061 89.2669 141.9 89.2669 140.43V132.15H91.9827V140.017C91.9827 141.007 92.1819 141.733 92.5803 142.196C92.9788 142.659 93.638 142.891 94.5579 142.891C95.4485 142.891 96.093 142.659 96.4915 142.196C96.8958 141.728 97.0979 140.995 97.0979 139.999V132.15H99.8137ZM109.965 142.082C109.965 143.09 109.613 143.857 108.91 144.385C108.213 144.912 107.167 145.176 105.772 145.176C105.058 145.176 104.448 145.126 103.944 145.026C103.44 144.933 102.969 144.792 102.529 144.604V142.39C103.027 142.624 103.587 142.82 104.208 142.979C104.835 143.137 105.386 143.216 105.86 143.216C106.833 143.216 107.319 142.935 107.319 142.372C107.319 142.161 107.255 141.991 107.126 141.862C106.997 141.728 106.774 141.578 106.458 141.414C106.142 141.244 105.72 141.048 105.192 140.825C104.436 140.509 103.88 140.216 103.522 139.946C103.171 139.677 102.913 139.369 102.749 139.023C102.591 138.672 102.512 138.241 102.512 137.731C102.512 136.858 102.849 136.185 103.522 135.71C104.202 135.229 105.163 134.989 106.405 134.989C107.589 134.989 108.74 135.247 109.859 135.763L109.051 137.696C108.559 137.485 108.099 137.312 107.671 137.178C107.243 137.043 106.807 136.976 106.361 136.976C105.57 136.976 105.175 137.189 105.175 137.617C105.175 137.857 105.301 138.065 105.553 138.241C105.81 138.417 106.37 138.678 107.231 139.023C107.999 139.334 108.561 139.624 108.919 139.894C109.276 140.163 109.54 140.474 109.71 140.825C109.88 141.177 109.965 141.596 109.965 142.082ZM116.486 136.896C115.918 136.896 115.472 137.078 115.15 137.441C114.828 137.799 114.643 138.309 114.596 138.971H118.358C118.346 138.309 118.173 137.799 117.839 137.441C117.505 137.078 117.054 136.896 116.486 136.896ZM116.864 145.176C115.282 145.176 114.045 144.739 113.155 143.866C112.264 142.993 111.819 141.757 111.819 140.157C111.819 138.511 112.229 137.239 113.049 136.343C113.876 135.44 115.015 134.989 116.468 134.989C117.857 134.989 118.938 135.385 119.711 136.176C120.485 136.967 120.872 138.06 120.872 139.454V140.755H114.535C114.564 141.517 114.79 142.111 115.211 142.539C115.633 142.967 116.225 143.181 116.987 143.181C117.579 143.181 118.138 143.119 118.666 142.996C119.193 142.873 119.744 142.677 120.318 142.407V144.481C119.849 144.716 119.348 144.889 118.815 145C118.282 145.117 117.631 145.176 116.864 145.176ZM128.896 134.989C129.259 134.989 129.561 135.016 129.801 135.068L129.599 137.582C129.382 137.523 129.118 137.494 128.808 137.494C127.952 137.494 127.284 137.714 126.804 138.153C126.329 138.593 126.092 139.208 126.092 139.999V145H123.411V135.174H125.442L125.837 136.826H125.969C126.274 136.275 126.684 135.833 127.199 135.499C127.721 135.159 128.286 134.989 128.896 134.989ZM138.801 142.082C138.801 143.09 138.449 143.857 137.746 144.385C137.049 144.912 136.003 145.176 134.608 145.176C133.893 145.176 133.284 145.126 132.78 145.026C132.276 144.933 131.805 144.792 131.365 144.604V142.39C131.863 142.624 132.423 142.82 133.044 142.979C133.671 143.137 134.222 143.216 134.696 143.216C135.669 143.216 136.155 142.935 136.155 142.372C136.155 142.161 136.091 141.991 135.962 141.862C135.833 141.728 135.61 141.578 135.294 141.414C134.977 141.244 134.556 141.048 134.028 140.825C133.272 140.509 132.716 140.216 132.358 139.946C132.007 139.677 131.749 139.369 131.585 139.023C131.427 138.672 131.348 138.241 131.348 137.731C131.348 136.858 131.684 136.185 132.358 135.71C133.038 135.229 133.999 134.989 135.241 134.989C136.425 134.989 137.576 135.247 138.695 135.763L137.887 137.696C137.394 137.485 136.934 137.312 136.507 137.178C136.079 137.043 135.642 136.976 135.197 136.976C134.406 136.976 134.011 137.189 134.011 137.617C134.011 137.857 134.137 138.065 134.389 138.241C134.646 138.417 135.206 138.678 136.067 139.023C136.835 139.334 137.397 139.624 137.755 139.894C138.112 140.163 138.376 140.474 138.546 140.825C138.716 141.177 138.801 141.596 138.801 142.082Z" fill="#6A707E"/>
</svg>
