<svg width="134" height="165" viewBox="0 0 134 165" fill="none" xmlns="http://www.w3.org/2000/svg">
<path d="M64 5.24997C93.6853 5.24997 117.75 29.3147 117.75 58.9999C117.75 88.6853 93.6853 112.75 64 112.75C34.3147 112.75 10.25 88.6853 10.25 58.9999C10.25 29.3147 34.3147 5.24997 64 5.24997Z" fill="black" fill-opacity="0.01" stroke="#F3F6F9" stroke-width="8"/>
<mask id="path-2-inside-1" fill="white">
<path fill-rule="evenodd" clip-rule="evenodd" d="M63.2499 1.24998C63.2499 1.24998 118.188 0.687462 121.75 59C121.75 59 122.393 112.4 63 117C63 117 10.9999 119.429 5.99991 59.9999"/>
</mask>
<path fill-rule="evenodd" clip-rule="evenodd" d="M63.2499 1.24998C63.2499 1.24998 118.188 0.687462 121.75 59C121.75 59 122.393 112.4 63 117C63 117 10.9999 119.429 5.99991 59.9999" fill="black" fill-opacity="0.01"/>
<path d="M121.75 59L129.749 58.9036L129.747 58.7077L129.735 58.5121L121.75 59ZM63 117L63.3732 124.991L63.4955 124.986L63.6176 124.976L63 117ZM63.2499 1.24998C63.3318 9.24956 63.3278 9.2496 63.3241 9.24963C63.3231 9.24964 63.3196 9.24967 63.3176 9.24969C63.3137 9.24972 63.3106 9.24974 63.3083 9.24975C63.3038 9.24978 63.3024 9.24978 63.3042 9.24978C63.3078 9.24977 63.3241 9.24976 63.3526 9.24995C63.4096 9.25035 63.5155 9.25158 63.6671 9.25538C63.9704 9.26299 64.4553 9.28086 65.0963 9.32271C66.381 9.40657 68.2777 9.58569 70.588 9.96664C75.2402 10.7337 81.3905 12.2897 87.5627 15.4014C99.4706 21.4045 112.175 33.4605 113.765 59.4878L129.735 58.5121C127.763 26.2269 111.217 9.40793 94.7653 1.11421C86.7578 -2.92262 78.951 -4.87048 73.191 -5.82021C70.2953 -6.29766 67.8721 -6.53015 66.1385 -6.64331C65.2704 -6.69998 64.5715 -6.72697 64.0683 -6.73959C63.8167 -6.7459 63.6136 -6.74863 63.4626 -6.74967C63.387 -6.75019 63.3244 -6.75029 63.2752 -6.7502C63.2506 -6.75015 63.2293 -6.75006 63.2114 -6.74995C63.2025 -6.7499 63.1944 -6.74984 63.1871 -6.74978C63.1835 -6.74975 63.1787 -6.74971 63.1769 -6.74969C63.1723 -6.74965 63.168 -6.7496 63.2499 1.24998ZM121.75 59C113.75 59.0963 113.75 59.0922 113.75 59.0882C113.75 59.0872 113.75 59.0834 113.75 59.0813C113.75 59.0771 113.75 59.0737 113.75 59.071C113.75 59.0657 113.75 59.0635 113.75 59.0644C113.75 59.0662 113.75 59.0803 113.75 59.1062C113.75 59.1582 113.749 59.2575 113.745 59.4012C113.738 59.6889 113.721 60.1528 113.679 60.7688C113.597 62.0033 113.419 63.8331 113.037 66.0682C112.268 70.5666 110.702 76.5402 107.554 82.5754C101.483 94.2149 89.1506 106.951 62.3823 109.024L63.6176 124.976C96.2427 122.45 113.285 106.186 121.741 89.9749C125.856 82.0851 127.841 74.421 128.808 68.7631C129.294 65.9201 129.53 63.542 129.644 61.8382C129.701 60.985 129.728 60.2972 129.74 59.8004C129.746 59.5518 129.749 59.3508 129.75 59.2003C129.75 59.1251 129.75 59.0625 129.75 59.0129C129.75 58.9881 129.75 58.9666 129.75 58.9484C129.75 58.9392 129.75 58.9309 129.75 58.9235C129.75 58.9197 129.749 58.9148 129.749 58.9129C129.749 58.9081 129.749 58.9036 121.75 59ZM63 117C62.6267 109.009 62.631 109.008 62.6351 109.008C62.6362 109.008 62.6401 109.008 62.6423 109.008C62.6467 109.008 62.6504 109.008 62.6533 109.007C62.6591 109.007 62.6619 109.007 62.6616 109.007C62.6612 109.007 62.6488 109.008 62.6249 109.008C62.5771 109.01 62.4832 109.012 62.3461 109.013C62.0718 109.015 61.6264 109.014 61.0332 108.993C59.8442 108.952 58.0779 108.835 55.9177 108.53C51.5684 107.914 45.7965 106.556 39.9564 103.632C28.7575 98.0253 16.2318 86.1912 13.9717 59.3292L-1.97192 60.6706C0.768067 93.2372 16.7423 109.903 32.7935 117.939C40.5784 121.837 48.119 123.586 53.676 124.372C56.4689 124.767 58.8042 124.925 60.4785 124.983C61.3169 125.013 61.9936 125.017 62.4834 125.012C62.7284 125.01 62.9271 125.006 63.0764 125.002C63.151 125 63.2133 124.998 63.2629 124.996C63.2877 124.995 63.3093 124.994 63.3277 124.993C63.3369 124.993 63.3453 124.993 63.3529 124.992C63.3567 124.992 63.3617 124.992 63.3636 124.992C63.3685 124.991 63.3732 124.991 63 117Z" fill="#F98C74" mask="url(#path-2-inside-1)"/>
<path d="M50.6289 48.0547C52.2852 48.0547 53.6016 48.5195 54.5781 49.4492C55.5625 50.3789 56.0547 51.6523 56.0547 53.2695C56.0547 55.1836 55.4648 56.6562 54.2852 57.6875C53.1055 58.7188 51.418 59.2344 49.2227 59.2344C47.3164 59.2344 45.7773 58.9258 44.6055 58.3086V55.1797C45.2227 55.5078 45.9414 55.7773 46.7617 55.9883C47.582 56.1914 48.3594 56.293 49.0938 56.293C51.3047 56.293 52.4102 55.3867 52.4102 53.5742C52.4102 51.8477 51.2656 50.9844 48.9766 50.9844C48.5625 50.9844 48.1055 51.0273 47.6055 51.1133C47.1055 51.1914 46.6992 51.2773 46.3867 51.3711L44.9453 50.5977L45.5898 41.8672H54.8828V44.9375H48.7656L48.4492 48.3008L48.8594 48.2188C49.3359 48.1094 49.9258 48.0547 50.6289 48.0547ZM70.4688 55.4492H68.4062V59H64.8672V55.4492H57.5547V52.9297L65.0664 41.8672H68.4062V52.6367H70.4688V55.4492ZM64.8672 52.6367V49.7305C64.8672 49.2461 64.8867 48.543 64.9258 47.6211C64.9648 46.6992 64.9961 46.1641 65.0195 46.0156H64.9258C64.6367 46.6562 64.2891 47.2812 63.8828 47.8906L60.7422 52.6367H64.8672ZM77.7227 41.6445C79.3633 41.6445 80.6836 42.0195 81.6836 42.7695C82.6914 43.5117 83.1953 44.5156 83.1953 45.7812C83.1953 46.6562 82.9531 47.4375 82.4688 48.125C81.9844 48.8047 81.2031 49.4141 80.125 49.9531C81.4062 50.6406 82.3242 51.3594 82.8789 52.1094C83.4414 52.8516 83.7227 53.668 83.7227 54.5586C83.7227 55.9648 83.1719 57.0977 82.0703 57.957C80.9688 58.8086 79.5195 59.2344 77.7227 59.2344C75.8477 59.2344 74.375 58.8359 73.3047 58.0391C72.2344 57.2422 71.6992 56.1133 71.6992 54.6523C71.6992 53.6758 71.957 52.8086 72.4727 52.0508C72.9961 51.293 73.832 50.625 74.9805 50.0469C74.0039 49.4297 73.3008 48.7695 72.8711 48.0664C72.4414 47.3633 72.2266 46.5938 72.2266 45.7578C72.2266 44.5312 72.7344 43.5391 73.75 42.7812C74.7656 42.0234 76.0898 41.6445 77.7227 41.6445ZM75.0508 54.4414C75.0508 55.1133 75.2852 55.6367 75.7539 56.0117C76.2227 56.3867 76.8633 56.5742 77.6758 56.5742C78.5742 56.5742 79.2461 56.3828 79.6914 56C80.1367 55.6094 80.3594 55.0977 80.3594 54.4648C80.3594 53.9414 80.1367 53.4531 79.6914 53C79.2539 52.5391 78.5391 52.0508 77.5469 51.5352C75.8828 52.3008 75.0508 53.2695 75.0508 54.4414ZM77.6992 44.293C77.082 44.293 76.582 44.4531 76.1992 44.7734C75.8242 45.0859 75.6367 45.5078 75.6367 46.0391C75.6367 46.5078 75.7852 46.9297 76.082 47.3047C76.3867 47.6719 76.9336 48.0508 77.7227 48.4414C78.4883 48.082 79.0234 47.7148 79.3281 47.3398C79.6328 46.9648 79.7852 46.5312 79.7852 46.0391C79.7852 45.5 79.5898 45.0742 79.1992 44.7617C78.8086 44.4492 78.3086 44.293 77.6992 44.293Z" fill="#F98C74"/>
<path d="M34.8331 75L32.4269 67.1592H32.3654C32.4519 68.7542 32.4952 69.8184 32.4952 70.3516V75H30.6017V65.0059H33.4864L35.8517 72.6484H35.8927L38.4015 65.0059H41.2863V75H39.3107V70.2695C39.3107 70.0462 39.3129 69.7887 39.3175 69.4971C39.3266 69.2054 39.3585 68.4307 39.4132 67.1729H39.3517L36.7745 75H34.8331ZM45.5858 71.165C45.5858 71.9215 45.7088 72.4935 45.9549 72.8809C46.2056 73.2682 46.6112 73.4619 47.1717 73.4619C47.7277 73.4619 48.1265 73.2705 48.368 72.8877C48.6141 72.5003 48.7371 71.9261 48.7371 71.165C48.7371 70.4085 48.6141 69.8411 48.368 69.4629C48.1219 69.0846 47.7186 68.8955 47.158 68.8955C46.6021 68.8955 46.201 69.0846 45.9549 69.4629C45.7088 69.8366 45.5858 70.404 45.5858 71.165ZM50.87 71.165C50.87 72.4092 50.5418 73.3822 49.8856 74.084C49.2293 74.7858 48.3156 75.1367 47.1444 75.1367C46.4107 75.1367 45.7635 74.9772 45.203 74.6582C44.6424 74.3346 44.2118 73.8721 43.911 73.2705C43.6102 72.6689 43.4598 71.9671 43.4598 71.165C43.4598 69.9163 43.7857 68.9456 44.4373 68.2529C45.089 67.5602 46.0051 67.2139 47.1854 67.2139C47.9191 67.2139 48.5662 67.3734 49.1268 67.6924C49.6873 68.0114 50.118 68.4694 50.4188 69.0664C50.7196 69.6634 50.87 70.363 50.87 71.165ZM57.1382 67.2139C57.4208 67.2139 57.6555 67.2344 57.8423 67.2754L57.6851 69.2305C57.5165 69.1849 57.3114 69.1621 57.0699 69.1621C56.4045 69.1621 55.885 69.333 55.5113 69.6748C55.1422 70.0166 54.9576 70.4951 54.9576 71.1104V75H52.8726V67.3574H54.4517L54.7593 68.6426H54.8619C55.0989 68.2142 55.4179 67.8701 55.8189 67.6104C56.2245 67.346 56.6643 67.2139 57.1382 67.2139ZM62.6751 68.6973C62.233 68.6973 61.8867 68.8385 61.636 69.1211C61.3854 69.3991 61.2418 69.7956 61.2054 70.3105H64.1311C64.122 69.7956 63.9876 69.3991 63.7278 69.1211C63.468 68.8385 63.1171 68.6973 62.6751 68.6973ZM62.969 75.1367C61.7386 75.1367 60.777 74.7972 60.0843 74.1182C59.3916 73.4391 59.0452 72.4775 59.0452 71.2334C59.0452 69.9528 59.3642 68.9639 60.0022 68.2666C60.6448 67.5648 61.5312 67.2139 62.6614 67.2139C63.7415 67.2139 64.5823 67.5215 65.1839 68.1367C65.7854 68.752 66.0862 69.6019 66.0862 70.6865V71.6982H61.1575C61.1803 72.2907 61.3557 72.7533 61.6839 73.0859C62.012 73.4186 62.4723 73.585 63.0647 73.585C63.525 73.585 63.9602 73.5371 64.3704 73.4414C64.7805 73.3457 65.2089 73.193 65.6555 72.9834V74.5967C65.291 74.779 64.9013 74.9134 64.4866 75C64.0719 75.0911 63.566 75.1367 62.969 75.1367ZM72.1423 75V65.0059H74.2614V75H72.1423ZM83.9477 75H81.8627V70.5361C81.8627 69.9847 81.7648 69.5723 81.5688 69.2988C81.3728 69.0208 81.0607 68.8818 80.6323 68.8818C80.0489 68.8818 79.6274 69.0778 79.3676 69.4697C79.1079 69.8571 78.978 70.502 78.978 71.4043V75H76.893V67.3574H78.4858L78.7661 68.335H78.8823C79.1147 67.9658 79.4337 67.6878 79.8393 67.501C80.2495 67.3096 80.7143 67.2139 81.2338 67.2139C82.1225 67.2139 82.797 67.4554 83.2573 67.9385C83.7176 68.417 83.9477 69.1097 83.9477 70.0166V75ZM90.5988 68.9229H88.7941V75H86.7091V68.9229H85.5607V67.918L86.7091 67.3574V66.7969C86.7091 65.9264 86.9233 65.2907 87.3517 64.8896C87.7801 64.4886 88.466 64.2881 89.4093 64.2881C90.1294 64.2881 90.7697 64.3952 91.3302 64.6094L90.797 66.1406C90.3778 66.0085 89.9904 65.9424 89.6349 65.9424C89.3387 65.9424 89.1245 66.0312 88.9923 66.209C88.8602 66.3822 88.7941 66.6055 88.7941 66.8789V67.3574H90.5988V68.9229ZM93.743 71.165C93.743 71.9215 93.8661 72.4935 94.1122 72.8809C94.3628 73.2682 94.7684 73.4619 95.329 73.4619C95.885 73.4619 96.2837 73.2705 96.5253 72.8877C96.7714 72.5003 96.8944 71.9261 96.8944 71.165C96.8944 70.4085 96.7714 69.8411 96.5253 69.4629C96.2792 69.0846 95.8759 68.8955 95.3153 68.8955C94.7593 68.8955 94.3583 69.0846 94.1122 69.4629C93.8661 69.8366 93.743 70.404 93.743 71.165ZM99.0272 71.165C99.0272 72.4092 98.6991 73.3822 98.0429 74.084C97.3866 74.7858 96.4729 75.1367 95.3016 75.1367C94.5679 75.1367 93.9208 74.9772 93.3602 74.6582C92.7997 74.3346 92.369 73.8721 92.0682 73.2705C91.7675 72.6689 91.6171 71.9671 91.6171 71.165C91.6171 69.9163 91.9429 68.9456 92.5946 68.2529C93.2463 67.5602 94.1623 67.2139 95.3427 67.2139C96.0764 67.2139 96.7235 67.3734 97.2841 67.6924C97.8446 68.0114 98.2753 68.4694 98.5761 69.0664C98.8768 69.6634 99.0272 70.363 99.0272 71.165Z" fill="#6A707E"/>
<path d="M19.062 145L18.1304 141.941H13.4458L12.5141 145H9.57859L14.1138 132.098H17.4448L21.9975 145H19.062ZM17.48 139.656C16.6186 136.885 16.1323 135.317 16.021 134.954C15.9155 134.591 15.8393 134.304 15.7925 134.093C15.5991 134.843 15.0454 136.697 14.1313 139.656H17.48ZM27.7628 145.176C24.7042 145.176 23.1749 143.497 23.1749 140.14C23.1749 138.47 23.5909 137.195 24.423 136.316C25.255 135.432 26.4474 134.989 28.0001 134.989C29.1368 134.989 30.1564 135.212 31.0587 135.657L30.2677 137.731C29.8458 137.562 29.4532 137.424 29.09 137.318C28.7267 137.207 28.3634 137.151 28.0001 137.151C26.6056 137.151 25.9083 138.142 25.9083 140.122C25.9083 142.044 26.6056 143.005 28.0001 143.005C28.5157 143.005 28.9933 142.938 29.4327 142.803C29.8722 142.662 30.3116 142.445 30.7511 142.152V144.446C30.3175 144.722 29.878 144.912 29.4327 145.018C28.9933 145.123 28.4366 145.176 27.7628 145.176ZM37.5359 143.04C38.0046 143.04 38.5671 142.938 39.2234 142.732V144.728C38.5554 145.026 37.7351 145.176 36.7625 145.176C35.6902 145.176 34.908 144.906 34.4158 144.367C33.9295 143.822 33.6863 143.008 33.6863 141.924V137.187H32.4031V136.053L33.8796 135.156L34.6531 133.082H36.367V135.174H39.1179V137.187H36.367V141.924C36.367 142.305 36.4724 142.586 36.6834 142.768C36.9002 142.949 37.1843 143.04 37.5359 143.04ZM41.4643 132.634C41.4643 131.761 41.9506 131.324 42.9232 131.324C43.8959 131.324 44.3822 131.761 44.3822 132.634C44.3822 133.05 44.2592 133.375 44.0131 133.609C43.7729 133.838 43.4096 133.952 42.9232 133.952C41.9506 133.952 41.4643 133.513 41.4643 132.634ZM44.2592 145H41.5785V135.174H44.2592V145ZM49.7784 145L46.0342 135.174H48.8379L50.7364 140.772C50.9473 141.481 51.0791 142.152 51.1319 142.785H51.1846C51.2139 142.223 51.3457 141.552 51.5801 140.772L53.4698 135.174H56.2735L52.5293 145H49.7784ZM62.1179 136.896C61.5495 136.896 61.1042 137.078 60.7819 137.441C60.4596 137.799 60.2751 138.309 60.2282 138.971H63.9899C63.9782 138.309 63.8054 137.799 63.4714 137.441C63.1374 137.078 62.6862 136.896 62.1179 136.896ZM62.4958 145.176C60.9137 145.176 59.6774 144.739 58.7868 143.866C57.8962 142.993 57.4509 141.757 57.4509 140.157C57.4509 138.511 57.861 137.239 58.6813 136.343C59.5075 135.44 60.6471 134.989 62.1003 134.989C63.4889 134.989 64.57 135.385 65.3434 136.176C66.1169 136.967 66.5036 138.06 66.5036 139.454V140.755H60.1667C60.196 141.517 60.4216 142.111 60.8434 142.539C61.2653 142.967 61.8571 143.181 62.6188 143.181C63.2106 143.181 63.7702 143.119 64.2975 142.996C64.8249 142.873 65.3757 142.677 65.9499 142.407V144.481C65.4811 144.716 64.9802 144.889 64.447 145C63.9137 145.117 63.2634 145.176 62.4958 145.176ZM84.749 132.15V140.465C84.749 141.414 84.5351 142.246 84.1074 142.961C83.6855 143.676 83.0732 144.224 82.2705 144.604C81.4677 144.985 80.5185 145.176 79.4228 145.176C77.7705 145.176 76.4873 144.754 75.5732 143.91C74.6591 143.061 74.2021 141.9 74.2021 140.43V132.15H76.9179V140.017C76.9179 141.007 77.1171 141.733 77.5156 142.196C77.914 142.659 78.5732 142.891 79.4931 142.891C80.3838 142.891 81.0283 142.659 81.4267 142.196C81.831 141.728 82.0332 140.995 82.0332 139.999V132.15H84.749ZM94.9 142.082C94.9 143.09 94.5484 143.857 93.8453 144.385C93.148 144.912 92.1021 145.176 90.7076 145.176C89.9928 145.176 89.3834 145.126 88.8795 145.026C88.3756 144.933 87.9039 144.792 87.4644 144.604V142.39C87.9625 142.624 88.5221 142.82 89.1432 142.979C89.7701 143.137 90.3209 143.216 90.7955 143.216C91.7682 143.216 92.2545 142.935 92.2545 142.372C92.2545 142.161 92.19 141.991 92.0611 141.862C91.9322 141.728 91.7096 141.578 91.3932 141.414C91.0768 141.244 90.6549 141.048 90.1275 140.825C89.3717 140.509 88.815 140.216 88.4576 139.946C88.106 139.677 87.8482 139.369 87.6842 139.023C87.526 138.672 87.4469 138.241 87.4469 137.731C87.4469 136.858 87.7838 136.185 88.4576 135.71C89.1373 135.229 90.0982 134.989 91.3404 134.989C92.524 134.989 93.6754 135.247 94.7945 135.763L93.9859 137.696C93.4937 137.485 93.0338 137.312 92.606 137.178C92.1783 137.043 91.7418 136.976 91.2965 136.976C90.5055 136.976 90.11 137.189 90.11 137.617C90.11 137.857 90.2359 138.065 90.4879 138.241C90.7457 138.417 91.3053 138.678 92.1666 139.023C92.9342 139.334 93.4967 139.624 93.8541 139.894C94.2115 140.163 94.4752 140.474 94.6451 140.825C94.815 141.177 94.9 141.596 94.9 142.082ZM101.421 136.896C100.853 136.896 100.407 137.078 100.085 137.441C99.7629 137.799 99.5784 138.309 99.5315 138.971H103.293C103.281 138.309 103.109 137.799 102.775 137.441C102.441 137.078 101.989 136.896 101.421 136.896ZM101.799 145.176C100.217 145.176 98.9807 144.739 98.0901 143.866C97.1994 142.993 96.7541 141.757 96.7541 140.157C96.7541 138.511 97.1643 137.239 97.9846 136.343C98.8108 135.44 99.9504 134.989 101.404 134.989C102.792 134.989 103.873 135.385 104.647 136.176C105.42 136.967 105.807 138.06 105.807 139.454V140.755H99.47C99.4993 141.517 99.7248 142.111 100.147 142.539C100.569 142.967 101.16 143.181 101.922 143.181C102.514 143.181 103.073 143.119 103.601 142.996C104.128 142.873 104.679 142.677 105.253 142.407V144.481C104.784 144.716 104.283 144.889 103.75 145C103.217 145.117 102.567 145.176 101.799 145.176ZM113.831 134.989C114.194 134.989 114.496 135.016 114.736 135.068L114.534 137.582C114.317 137.523 114.054 137.494 113.743 137.494C112.888 137.494 112.22 137.714 111.739 138.153C111.265 138.593 111.027 139.208 111.027 139.999V145H108.347V135.174H110.377L110.772 136.826H110.904C111.209 136.275 111.619 135.833 112.135 135.499C112.656 135.159 113.222 134.989 113.831 134.989ZM123.736 142.082C123.736 143.09 123.384 143.857 122.681 144.385C121.984 144.912 120.938 145.176 119.543 145.176C118.829 145.176 118.219 145.126 117.715 145.026C117.211 144.933 116.74 144.792 116.3 144.604V142.39C116.798 142.624 117.358 142.82 117.979 142.979C118.606 143.137 119.157 143.216 119.631 143.216C120.604 143.216 121.09 142.935 121.09 142.372C121.09 142.161 121.026 141.991 120.897 141.862C120.768 141.728 120.545 141.578 120.229 141.414C119.913 141.244 119.491 141.048 118.963 140.825C118.208 140.509 117.651 140.216 117.293 139.946C116.942 139.677 116.684 139.369 116.52 139.023C116.362 138.672 116.283 138.241 116.283 137.731C116.283 136.858 116.62 136.185 117.293 135.71C117.973 135.229 118.934 134.989 120.176 134.989C121.36 134.989 122.511 135.247 123.63 135.763L122.822 137.696C122.33 137.485 121.87 137.312 121.442 137.178C121.014 137.043 120.578 136.976 120.132 136.976C119.341 136.976 118.946 137.189 118.946 137.617C118.946 137.857 119.072 138.065 119.324 138.241C119.582 138.417 120.141 138.678 121.002 139.023C121.77 139.334 122.333 139.624 122.69 139.894C123.047 140.163 123.311 140.474 123.481 140.825C123.651 141.177 123.736 141.596 123.736 142.082Z" fill="#6A707E"/>
</svg>
