<svg width="153" height="165" viewBox="0 0 153 165" fill="none" xmlns="http://www.w3.org/2000/svg">
<path d="M72 5.24997C101.685 5.24997 125.75 29.3147 125.75 58.9999C125.75 88.6853 101.685 112.75 72 112.75C42.3147 112.75 18.25 88.6853 18.25 58.9999C18.25 29.3147 42.3147 5.24997 72 5.24997Z" fill="black" fill-opacity="0.01" stroke="#F3F6F9" stroke-width="8"/>
<mask id="path-2-inside-1" fill="white">
<path fill-rule="evenodd" clip-rule="evenodd" d="M71.2499 1.24988C71.2499 1.24988 126.187 0.687416 129.75 58.9999C129.75 58.9999 129.893 77.8506 121 87.9999"/>
</mask>
<path fill-rule="evenodd" clip-rule="evenodd" d="M71.2499 1.24988C71.2499 1.24988 126.187 0.687416 129.75 58.9999C129.75 58.9999 129.893 77.8506 121 87.9999" fill="black" fill-opacity="0.01"/>
<path d="M129.75 58.9999L137.75 58.9391L137.748 58.7254L137.735 58.5121L129.75 58.9999ZM71.2499 1.24988C71.3318 9.24947 71.3279 9.24951 71.3241 9.24954C71.3232 9.24955 71.3196 9.24958 71.3177 9.2496C71.3138 9.24963 71.3107 9.24965 71.3084 9.24966C71.3038 9.24969 71.3025 9.24969 71.3043 9.24969C71.3079 9.24968 71.3241 9.24967 71.3526 9.24986C71.4097 9.25025 71.5156 9.25149 71.6671 9.25529C71.9705 9.2629 72.4553 9.28077 73.0964 9.32262C74.3811 9.40648 76.2777 9.58561 78.5881 9.96655C83.2402 10.7336 89.3905 12.2897 95.5627 15.4013C107.471 21.4044 120.175 33.4605 121.765 59.4878L137.735 58.5121C135.763 26.2269 119.217 9.40789 102.765 1.11415C94.7578 -2.92268 86.951 -4.87055 81.1911 -5.82029C78.2954 -6.29774 75.8722 -6.53024 74.1386 -6.6434C73.2705 -6.70007 72.5715 -6.72706 72.0684 -6.73968C71.8167 -6.74599 71.6137 -6.74872 71.4626 -6.74976C71.3871 -6.75028 71.3245 -6.75038 71.2752 -6.75029C71.2506 -6.75024 71.2294 -6.75015 71.2115 -6.75004C71.2025 -6.74999 71.1944 -6.74993 71.1872 -6.74987C71.1836 -6.74984 71.1788 -6.7498 71.177 -6.74978C71.1724 -6.74974 71.168 -6.7497 71.2499 1.24988ZM129.75 58.9999C121.75 59.0608 121.75 59.059 121.75 59.0573C121.75 59.0568 121.75 59.0552 121.75 59.0542C121.75 59.0523 121.75 59.0506 121.75 59.0493C121.75 59.0466 121.75 59.0449 121.75 59.0444C121.75 59.0434 121.75 59.0467 121.75 59.0543C121.75 59.0695 121.75 59.1018 121.75 59.1503C121.749 59.2474 121.747 59.4091 121.741 59.6288C121.73 60.0689 121.705 60.7379 121.65 61.5836C121.539 63.285 121.309 65.6499 120.836 68.2777C119.84 73.8146 117.977 79.3108 114.983 82.7276L127.017 93.2722C132.916 86.5397 135.428 77.5359 136.584 71.1101C137.187 67.7566 137.476 64.7746 137.616 62.6242C137.687 61.5442 137.72 60.6611 137.736 60.0307C137.744 59.7152 137.748 59.4619 137.749 59.2779C137.75 59.1859 137.75 59.1111 137.75 59.0543C137.75 59.026 137.75 59.0021 137.75 58.9829C137.75 58.9733 137.75 58.9648 137.75 58.9575C137.75 58.9538 137.75 58.9505 137.75 58.9474C137.75 58.9459 137.75 58.9438 137.75 58.943C137.75 58.941 137.75 58.9391 129.75 58.9999Z" fill="#2290FF" mask="url(#path-2-inside-1)"/>
<path d="M61.8477 59H58.2266V49.0859L58.2617 47.457L58.3203 45.6758C57.7188 46.2773 57.3008 46.6719 57.0664 46.8594L55.0977 48.4414L53.3516 46.2617L58.8711 41.8672H61.8477V59ZM72.8398 48.0547C74.4961 48.0547 75.8125 48.5195 76.7891 49.4492C77.7734 50.3789 78.2656 51.6523 78.2656 53.2695C78.2656 55.1836 77.6758 56.6562 76.4961 57.6875C75.3164 58.7188 73.6289 59.2344 71.4336 59.2344C69.5273 59.2344 67.9883 58.9258 66.8164 58.3086V55.1797C67.4336 55.5078 68.1523 55.7773 68.9727 55.9883C69.793 56.1914 70.5703 56.293 71.3047 56.293C73.5156 56.293 74.6211 55.3867 74.6211 53.5742C74.6211 51.8477 73.4766 50.9844 71.1875 50.9844C70.7734 50.9844 70.3164 51.0273 69.8164 51.1133C69.3164 51.1914 68.9102 51.2773 68.5977 51.3711L67.1562 50.5977L67.8008 41.8672H77.0938V44.9375H70.9766L70.6602 48.3008L71.0703 48.2188C71.5469 48.1094 72.1367 48.0547 72.8398 48.0547ZM92.6797 55.4492H90.6172V59H87.0781V55.4492H79.7656V52.9297L87.2773 41.8672H90.6172V52.6367H92.6797V55.4492ZM87.0781 52.6367V49.7305C87.0781 49.2461 87.0977 48.543 87.1367 47.6211C87.1758 46.6992 87.207 46.1641 87.2305 46.0156H87.1367C86.8477 46.6562 86.5 47.2812 86.0938 47.8906L82.9531 52.6367H87.0781Z" fill="#2290FF"/>
<path d="M42.8331 75L40.4269 67.1592H40.3654C40.4519 68.7542 40.4952 69.8184 40.4952 70.3516V75H38.6017V65.0059H41.4864L43.8517 72.6484H43.8927L46.4015 65.0059H49.2863V75H47.3107V70.2695C47.3107 70.0462 47.3129 69.7887 47.3175 69.4971C47.3266 69.2054 47.3585 68.4307 47.4132 67.1729H47.3517L44.7745 75H42.8331ZM53.5858 71.165C53.5858 71.9215 53.7088 72.4935 53.9549 72.8809C54.2056 73.2682 54.6112 73.4619 55.1717 73.4619C55.7277 73.4619 56.1265 73.2705 56.368 72.8877C56.6141 72.5003 56.7371 71.9261 56.7371 71.165C56.7371 70.4085 56.6141 69.8411 56.368 69.4629C56.1219 69.0846 55.7186 68.8955 55.158 68.8955C54.6021 68.8955 54.201 69.0846 53.9549 69.4629C53.7088 69.8366 53.5858 70.404 53.5858 71.165ZM58.87 71.165C58.87 72.4092 58.5418 73.3822 57.8856 74.084C57.2293 74.7858 56.3156 75.1367 55.1444 75.1367C54.4107 75.1367 53.7635 74.9772 53.203 74.6582C52.6424 74.3346 52.2118 73.8721 51.911 73.2705C51.6102 72.6689 51.4598 71.9671 51.4598 71.165C51.4598 69.9163 51.7857 68.9456 52.4373 68.2529C53.089 67.5602 54.0051 67.2139 55.1854 67.2139C55.9191 67.2139 56.5662 67.3734 57.1268 67.6924C57.6873 68.0114 58.118 68.4694 58.4188 69.0664C58.7196 69.6634 58.87 70.363 58.87 71.165ZM65.1382 67.2139C65.4208 67.2139 65.6555 67.2344 65.8423 67.2754L65.6851 69.2305C65.5165 69.1849 65.3114 69.1621 65.0699 69.1621C64.4045 69.1621 63.885 69.333 63.5113 69.6748C63.1422 70.0166 62.9576 70.4951 62.9576 71.1104V75H60.8726V67.3574H62.4517L62.7593 68.6426H62.8619C63.0989 68.2142 63.4179 67.8701 63.8189 67.6104C64.2245 67.346 64.6643 67.2139 65.1382 67.2139ZM70.6751 68.6973C70.233 68.6973 69.8867 68.8385 69.636 69.1211C69.3854 69.3991 69.2418 69.7956 69.2054 70.3105H72.1311C72.122 69.7956 71.9876 69.3991 71.7278 69.1211C71.468 68.8385 71.1171 68.6973 70.6751 68.6973ZM70.969 75.1367C69.7386 75.1367 68.777 74.7972 68.0843 74.1182C67.3916 73.4391 67.0452 72.4775 67.0452 71.2334C67.0452 69.9528 67.3642 68.9639 68.0022 68.2666C68.6448 67.5648 69.5312 67.2139 70.6614 67.2139C71.7415 67.2139 72.5823 67.5215 73.1839 68.1367C73.7854 68.752 74.0862 69.6019 74.0862 70.6865V71.6982H69.1575C69.1803 72.2907 69.3557 72.7533 69.6839 73.0859C70.012 73.4186 70.4723 73.585 71.0647 73.585C71.525 73.585 71.9602 73.5371 72.3704 73.4414C72.7805 73.3457 73.2089 73.193 73.6555 72.9834V74.5967C73.291 74.779 72.9013 74.9134 72.4866 75C72.0719 75.0911 71.566 75.1367 70.969 75.1367ZM80.1423 75V65.0059H82.2614V75H80.1423ZM91.9477 75H89.8627V70.5361C89.8627 69.9847 89.7648 69.5723 89.5688 69.2988C89.3728 69.0208 89.0607 68.8818 88.6323 68.8818C88.0489 68.8818 87.6274 69.0778 87.3676 69.4697C87.1079 69.8571 86.978 70.502 86.978 71.4043V75H84.893V67.3574H86.4858L86.7661 68.335H86.8823C87.1147 67.9658 87.4337 67.6878 87.8393 67.501C88.2495 67.3096 88.7143 67.2139 89.2338 67.2139C90.1225 67.2139 90.797 67.4554 91.2573 67.9385C91.7176 68.417 91.9477 69.1097 91.9477 70.0166V75ZM98.5988 68.9229H96.7941V75H94.7091V68.9229H93.5607V67.918L94.7091 67.3574V66.7969C94.7091 65.9264 94.9233 65.2907 95.3517 64.8896C95.7801 64.4886 96.466 64.2881 97.4093 64.2881C98.1294 64.2881 98.7697 64.3952 99.3302 64.6094L98.797 66.1406C98.3778 66.0085 97.9904 65.9424 97.6349 65.9424C97.3387 65.9424 97.1245 66.0312 96.9923 66.209C96.8602 66.3822 96.7941 66.6055 96.7941 66.8789V67.3574H98.5988V68.9229ZM101.743 71.165C101.743 71.9215 101.866 72.4935 102.112 72.8809C102.363 73.2682 102.768 73.4619 103.329 73.4619C103.885 73.4619 104.284 73.2705 104.525 72.8877C104.771 72.5003 104.894 71.9261 104.894 71.165C104.894 70.4085 104.771 69.8411 104.525 69.4629C104.279 69.0846 103.876 68.8955 103.315 68.8955C102.759 68.8955 102.358 69.0846 102.112 69.4629C101.866 69.8366 101.743 70.404 101.743 71.165ZM107.027 71.165C107.027 72.4092 106.699 73.3822 106.043 74.084C105.387 74.7858 104.473 75.1367 103.302 75.1367C102.568 75.1367 101.921 74.9772 101.36 74.6582C100.8 74.3346 100.369 73.8721 100.068 73.2705C99.7675 72.6689 99.6171 71.9671 99.6171 71.165C99.6171 69.9163 99.9429 68.9456 100.595 68.2529C101.246 67.5602 102.162 67.2139 103.343 67.2139C104.076 67.2139 104.724 67.3734 105.284 67.6924C105.845 68.0114 106.275 68.4694 106.576 69.0664C106.877 69.6634 107.027 70.363 107.027 71.165Z" fill="#6A707E"/>
<path d="M18.6964 138.452C18.6964 140.567 18.0929 142.188 16.8859 143.312C15.6847 144.438 13.9474 145 11.674 145H8.03531V132.15H12.0695C14.1671 132.15 15.7961 132.704 16.9562 133.812C18.1164 134.919 18.6964 136.466 18.6964 138.452ZM15.8664 138.522C15.8664 135.763 14.6476 134.383 12.2101 134.383H10.7599V142.75H11.9289C14.5539 142.75 15.8664 141.341 15.8664 138.522ZM23.6443 140.069C23.6443 141.042 23.8025 141.777 24.1189 142.275C24.4412 142.773 24.9627 143.022 25.6834 143.022C26.3982 143.022 26.9109 142.776 27.2215 142.284C27.5379 141.786 27.6961 141.048 27.6961 140.069C27.6961 139.097 27.5379 138.367 27.2215 137.881C26.9051 137.395 26.3865 137.151 25.6658 137.151C24.951 137.151 24.4353 137.395 24.1189 137.881C23.8025 138.361 23.6443 139.091 23.6443 140.069ZM30.4383 140.069C30.4383 141.669 30.0164 142.92 29.1727 143.822C28.3289 144.725 27.1541 145.176 25.6482 145.176C24.7049 145.176 23.8728 144.971 23.1521 144.561C22.4314 144.145 21.8777 143.55 21.491 142.776C21.1043 142.003 20.9109 141.101 20.9109 140.069C20.9109 138.464 21.3299 137.216 22.1678 136.325C23.0057 135.435 24.1834 134.989 25.701 134.989C26.6443 134.989 27.4764 135.194 28.1971 135.604C28.9178 136.015 29.4715 136.604 29.8582 137.371C30.2449 138.139 30.4383 139.038 30.4383 140.069ZM38.4975 134.989C38.8608 134.989 39.1625 135.016 39.4028 135.068L39.2006 137.582C38.9838 137.523 38.7202 137.494 38.4096 137.494C37.5541 137.494 36.8862 137.714 36.4057 138.153C35.9311 138.593 35.6938 139.208 35.6938 139.999V145H33.0131V135.174H35.0434L35.4389 136.826H35.5707C35.8754 136.275 36.2856 135.833 36.8012 135.499C37.3227 135.159 37.8881 134.989 38.4975 134.989ZM50.3448 145H47.6641V139.261C47.6641 138.552 47.544 138.021 47.3038 137.67C47.0694 137.312 46.6973 137.134 46.1876 137.134C45.502 137.134 45.004 137.386 44.6934 137.89C44.3829 138.394 44.2276 139.223 44.2276 140.377V145H41.547V135.174H43.5948L43.9552 136.431H44.1046C44.3682 135.979 44.7491 135.628 45.2471 135.376C45.7452 135.118 46.3165 134.989 46.961 134.989C48.4317 134.989 49.4278 135.47 49.9493 136.431H50.1866C50.4503 135.974 50.837 135.619 51.3468 135.367C51.8624 135.115 52.4425 134.989 53.087 134.989C54.2003 134.989 55.0411 135.276 55.6095 135.851C56.1837 136.419 56.4708 137.333 56.4708 138.593V145H53.7813V139.261C53.7813 138.552 53.6612 138.021 53.421 137.67C53.1866 137.312 52.8145 137.134 52.3048 137.134C51.6485 137.134 51.1563 137.368 50.8282 137.837C50.5059 138.306 50.3448 139.05 50.3448 140.069V145ZM65.8308 145L65.3122 143.664H65.2419C64.7907 144.232 64.3249 144.628 63.8444 144.851C63.3698 145.067 62.7487 145.176 61.9812 145.176C61.0378 145.176 60.2937 144.906 59.7487 144.367C59.2097 143.828 58.9402 143.061 58.9402 142.064C58.9402 141.021 59.3034 140.254 60.03 139.762C60.7624 139.264 61.864 138.988 63.3347 138.936L65.0398 138.883V138.452C65.0398 137.456 64.53 136.958 63.5105 136.958C62.7253 136.958 61.8025 137.195 60.7419 137.67L59.8542 135.859C60.9851 135.268 62.239 134.972 63.6159 134.972C64.9343 134.972 65.945 135.259 66.6482 135.833C67.3513 136.407 67.7028 137.28 67.7028 138.452V145H65.8308ZM65.0398 140.447L64.0027 140.482C63.2234 140.506 62.6433 140.646 62.2624 140.904C61.8816 141.162 61.6911 141.555 61.6911 142.082C61.6911 142.838 62.1247 143.216 62.9919 143.216C63.613 143.216 64.1081 143.037 64.4773 142.68C64.8523 142.322 65.0398 141.848 65.0398 141.256V140.447ZM79.9017 145H77.2211V139.261C77.2211 138.552 77.0951 138.021 76.8431 137.67C76.5912 137.312 76.1898 137.134 75.639 137.134C74.889 137.134 74.347 137.386 74.013 137.89C73.6791 138.388 73.5121 139.217 73.5121 140.377V145H70.8314V135.174H72.8793L73.2396 136.431H73.389C73.6879 135.956 74.098 135.599 74.6195 135.358C75.1468 135.112 75.7445 134.989 76.4125 134.989C77.555 134.989 78.4222 135.3 79.014 135.921C79.6058 136.536 79.9017 137.427 79.9017 138.593V145ZM87.1611 143.04C87.6299 143.04 88.1924 142.938 88.8486 142.732V144.728C88.1807 145.026 87.3604 145.176 86.3877 145.176C85.3154 145.176 84.5332 144.906 84.041 144.367C83.5547 143.822 83.3115 143.008 83.3115 141.924V137.187H82.0283V136.053L83.5049 135.156L84.2783 133.082H85.9922V135.174H88.7432V137.187H85.9922V141.924C85.9922 142.305 86.0977 142.586 86.3086 142.768C86.5254 142.949 86.8096 143.04 87.1611 143.04ZM106.909 132.15V140.465C106.909 141.414 106.696 142.246 106.268 142.961C105.846 143.676 105.234 144.224 104.431 144.604C103.628 144.985 102.679 145.176 101.583 145.176C99.9309 145.176 98.6477 144.754 97.7337 143.91C96.8196 143.061 96.3626 141.9 96.3626 140.43V132.15H99.0784V140.017C99.0784 141.007 99.2776 141.733 99.676 142.196C100.074 142.659 100.734 142.891 101.654 142.891C102.544 142.891 103.189 142.659 103.587 142.196C103.991 141.728 104.194 140.995 104.194 139.999V132.15H106.909ZM117.06 142.082C117.06 143.09 116.709 143.857 116.006 144.385C115.309 144.912 114.263 145.176 112.868 145.176C112.153 145.176 111.544 145.126 111.04 145.026C110.536 144.933 110.064 144.792 109.625 144.604V142.39C110.123 142.624 110.683 142.82 111.304 142.979C111.931 143.137 112.481 143.216 112.956 143.216C113.929 143.216 114.415 142.935 114.415 142.372C114.415 142.161 114.351 141.991 114.222 141.862C114.093 141.728 113.87 141.578 113.554 141.414C113.237 141.244 112.815 141.048 112.288 140.825C111.532 140.509 110.976 140.216 110.618 139.946C110.267 139.677 110.009 139.369 109.845 139.023C109.686 138.672 109.607 138.241 109.607 137.731C109.607 136.858 109.944 136.185 110.618 135.71C111.298 135.229 112.259 134.989 113.501 134.989C114.684 134.989 115.836 135.247 116.955 135.763L116.146 137.696C115.654 137.485 115.194 137.312 114.767 137.178C114.339 137.043 113.902 136.976 113.457 136.976C112.666 136.976 112.27 137.189 112.27 137.617C112.27 137.857 112.396 138.065 112.648 138.241C112.906 138.417 113.466 138.678 114.327 139.023C115.095 139.334 115.657 139.624 116.015 139.894C116.372 140.163 116.636 140.474 116.806 140.825C116.976 141.177 117.06 141.596 117.06 142.082ZM123.582 136.896C123.013 136.896 122.568 137.078 122.246 137.441C121.923 137.799 121.739 138.309 121.692 138.971H125.454C125.442 138.309 125.269 137.799 124.935 137.441C124.601 137.078 124.15 136.896 123.582 136.896ZM123.96 145.176C122.377 145.176 121.141 144.739 120.251 143.866C119.36 142.993 118.915 141.757 118.915 140.157C118.915 138.511 119.325 137.239 120.145 136.343C120.971 135.44 122.111 134.989 123.564 134.989C124.953 134.989 126.034 135.385 126.807 136.176C127.581 136.967 127.967 138.06 127.967 139.454V140.755H121.63C121.66 141.517 121.885 142.111 122.307 142.539C122.729 142.967 123.321 143.181 124.083 143.181C124.674 143.181 125.234 143.119 125.761 142.996C126.289 142.873 126.839 142.677 127.414 142.407V144.481C126.945 144.716 126.444 144.889 125.911 145C125.377 145.117 124.727 145.176 123.96 145.176ZM135.991 134.989C136.355 134.989 136.656 135.016 136.897 135.068L136.695 137.582C136.478 137.523 136.214 137.494 135.904 137.494C135.048 137.494 134.38 137.714 133.9 138.153C133.425 138.593 133.188 139.208 133.188 139.999V145H130.507V135.174H132.537L132.933 136.826H133.065C133.369 136.275 133.779 135.833 134.295 135.499C134.817 135.159 135.382 134.989 135.991 134.989ZM145.896 142.082C145.896 143.09 145.545 143.857 144.842 144.385C144.144 144.912 143.098 145.176 141.704 145.176C140.989 145.176 140.38 145.126 139.876 145.026C139.372 144.933 138.9 144.792 138.461 144.604V142.39C138.959 142.624 139.518 142.82 140.139 142.979C140.766 143.137 141.317 143.216 141.792 143.216C142.764 143.216 143.251 142.935 143.251 142.372C143.251 142.161 143.186 141.991 143.057 141.862C142.929 141.728 142.706 141.578 142.389 141.414C142.073 141.244 141.651 141.048 141.124 140.825C140.368 140.509 139.811 140.216 139.454 139.946C139.102 139.677 138.845 139.369 138.681 139.023C138.522 138.672 138.443 138.241 138.443 137.731C138.443 136.858 138.78 136.185 139.454 135.71C140.134 135.229 141.095 134.989 142.337 134.989C143.52 134.989 144.672 135.247 145.791 135.763L144.982 137.696C144.49 137.485 144.03 137.312 143.602 137.178C143.175 137.043 142.738 136.976 142.293 136.976C141.502 136.976 141.106 137.189 141.106 137.617C141.106 137.857 141.232 138.065 141.484 138.241C141.742 138.417 142.302 138.678 143.163 139.023C143.931 139.334 144.493 139.624 144.85 139.894C145.208 140.163 145.472 140.474 145.641 140.825C145.811 141.177 145.896 141.596 145.896 142.082Z" fill="#6A707E"/>
</svg>
