<svg width="145" height="167" viewBox="0 0 145 167" fill="none" xmlns="http://www.w3.org/2000/svg">
<path d="M67.9999 7.24997C97.6852 7.24997 121.75 31.3147 121.75 60.9999C121.75 90.6853 97.6852 114.75 67.9999 114.75C38.3147 114.75 14.25 90.6853 14.25 60.9999C14.25 31.3147 38.3147 7.24997 67.9999 7.24997Z" fill="black" fill-opacity="0.01" stroke="#F3F6F9" stroke-width="8"/>
<path d="M114.495 34.4377L81.0741 8.80982C83.6642 9.42199 86.4667 10.2664 89.3446 11.4287C98.3027 15.0466 108.071 21.7567 114.495 34.4377Z" fill="black" fill-opacity="0.01" stroke="#D07BED" stroke-width="8"/>
<path d="M67.1562 51.1797C67.1562 54.5547 66.4453 57.0742 65.0234 58.7383C63.6016 60.4023 61.4492 61.2344 58.5664 61.2344C57.5508 61.2344 56.7812 61.1797 56.2578 61.0703V58.1641C56.9141 58.3281 57.6016 58.4102 58.3203 58.4102C59.5312 58.4102 60.5273 58.2344 61.3086 57.8828C62.0898 57.5234 62.6875 56.9648 63.1016 56.207C63.5156 55.4414 63.7539 54.3906 63.8164 53.0547H63.6758C63.2227 53.7891 62.6992 54.3047 62.1055 54.6016C61.5117 54.8984 60.7695 55.0469 59.8789 55.0469C58.3867 55.0469 57.2109 54.5703 56.3516 53.6172C55.4922 52.6562 55.0625 51.3242 55.0625 49.6211C55.0625 47.7852 55.582 46.3359 56.6211 45.2734C57.668 44.2031 59.0898 43.668 60.8867 43.668C62.1523 43.668 63.2578 43.9648 64.2031 44.5586C65.1562 45.1523 65.8867 46.0156 66.3945 47.1484C66.9023 48.2734 67.1562 49.6172 67.1562 51.1797ZM60.957 46.5742C60.207 46.5742 59.6211 46.832 59.1992 47.3477C58.7773 47.8633 58.5664 48.6055 58.5664 49.5742C58.5664 50.4023 58.7578 51.0586 59.1406 51.543C59.5234 52.0273 60.1055 52.2695 60.8867 52.2695C61.6211 52.2695 62.25 52.0312 62.7734 51.5547C63.2969 51.0703 63.5586 50.5156 63.5586 49.8906C63.5586 48.9609 63.3125 48.1758 62.8203 47.5352C62.3359 46.8945 61.7148 46.5742 60.957 46.5742ZM68.8438 53.7227C68.8438 50.332 69.5586 47.8086 70.9883 46.1523C72.4258 44.4961 74.5742 43.668 77.4336 43.668C78.4102 43.668 79.1758 43.7266 79.7305 43.8438V46.7383C79.0352 46.582 78.3477 46.5039 77.668 46.5039C76.4258 46.5039 75.4102 46.6914 74.6211 47.0664C73.8398 47.4414 73.2539 47.9961 72.8633 48.7305C72.4727 49.4648 72.2422 50.5078 72.1719 51.8594H72.3242C73.0977 50.5312 74.3359 49.8672 76.0391 49.8672C77.5703 49.8672 78.7695 50.3477 79.6367 51.3086C80.5039 52.2695 80.9375 53.5977 80.9375 55.293C80.9375 57.1211 80.4219 58.5703 79.3906 59.6406C78.3594 60.7031 76.9297 61.2344 75.1016 61.2344C73.8359 61.2344 72.7305 60.9414 71.7852 60.3555C70.8477 59.7695 70.1211 58.9141 69.6055 57.7891C69.0977 56.6641 68.8438 55.3086 68.8438 53.7227ZM75.0312 58.3398C75.8047 58.3398 76.3984 58.082 76.8125 57.5664C77.2266 57.043 77.4336 56.3008 77.4336 55.3398C77.4336 54.5039 77.2383 53.8477 76.8477 53.3711C76.4648 52.8867 75.8828 52.6445 75.1016 52.6445C74.3672 52.6445 73.7383 52.8828 73.2148 53.3594C72.6992 53.8359 72.4414 54.3906 72.4414 55.0234C72.4414 55.9531 72.6836 56.7383 73.168 57.3789C73.6602 58.0195 74.2812 58.3398 75.0312 58.3398Z" fill="#D07BED"/>
<path d="M38.8331 77L36.4269 69.1592H36.3654C36.4519 70.7542 36.4952 71.8184 36.4952 72.3516V77H34.6017V67.0059H37.4864L39.8517 74.6484H39.8927L42.4015 67.0059H45.2863V77H43.3107V72.2695C43.3107 72.0462 43.3129 71.7887 43.3175 71.4971C43.3266 71.2054 43.3585 70.4307 43.4132 69.1729H43.3517L40.7745 77H38.8331ZM49.5858 73.165C49.5858 73.9215 49.7088 74.4935 49.9549 74.8809C50.2056 75.2682 50.6112 75.4619 51.1717 75.4619C51.7277 75.4619 52.1265 75.2705 52.368 74.8877C52.6141 74.5003 52.7371 73.9261 52.7371 73.165C52.7371 72.4085 52.6141 71.8411 52.368 71.4629C52.1219 71.0846 51.7186 70.8955 51.158 70.8955C50.6021 70.8955 50.201 71.0846 49.9549 71.4629C49.7088 71.8366 49.5858 72.404 49.5858 73.165ZM54.87 73.165C54.87 74.4092 54.5418 75.3822 53.8856 76.084C53.2293 76.7858 52.3156 77.1367 51.1444 77.1367C50.4107 77.1367 49.7635 76.9772 49.203 76.6582C48.6424 76.3346 48.2118 75.8721 47.911 75.2705C47.6102 74.6689 47.4598 73.9671 47.4598 73.165C47.4598 71.9163 47.7857 70.9456 48.4373 70.2529C49.089 69.5602 50.0051 69.2139 51.1854 69.2139C51.9191 69.2139 52.5662 69.3734 53.1268 69.6924C53.6873 70.0114 54.118 70.4694 54.4188 71.0664C54.7196 71.6634 54.87 72.363 54.87 73.165ZM61.1382 69.2139C61.4208 69.2139 61.6555 69.2344 61.8423 69.2754L61.6851 71.2305C61.5165 71.1849 61.3114 71.1621 61.0699 71.1621C60.4045 71.1621 59.885 71.333 59.5113 71.6748C59.1422 72.0166 58.9576 72.4951 58.9576 73.1104V77H56.8726V69.3574H58.4517L58.7593 70.6426H58.8619C59.0989 70.2142 59.4179 69.8701 59.8189 69.6104C60.2245 69.346 60.6643 69.2139 61.1382 69.2139ZM66.6751 70.6973C66.233 70.6973 65.8867 70.8385 65.636 71.1211C65.3854 71.3991 65.2418 71.7956 65.2054 72.3105H68.1311C68.122 71.7956 67.9876 71.3991 67.7278 71.1211C67.468 70.8385 67.1171 70.6973 66.6751 70.6973ZM66.969 77.1367C65.7386 77.1367 64.777 76.7972 64.0843 76.1182C63.3916 75.4391 63.0452 74.4775 63.0452 73.2334C63.0452 71.9528 63.3642 70.9639 64.0022 70.2666C64.6448 69.5648 65.5312 69.2139 66.6614 69.2139C67.7415 69.2139 68.5823 69.5215 69.1839 70.1367C69.7854 70.752 70.0862 71.6019 70.0862 72.6865V73.6982H65.1575C65.1803 74.2907 65.3557 74.7533 65.6839 75.0859C66.012 75.4186 66.4723 75.585 67.0647 75.585C67.525 75.585 67.9602 75.5371 68.3704 75.4414C68.7805 75.3457 69.2089 75.193 69.6555 74.9834V76.5967C69.291 76.779 68.9013 76.9134 68.4866 77C68.0719 77.0911 67.566 77.1367 66.969 77.1367ZM76.1423 77V67.0059H78.2614V77H76.1423ZM87.9477 77H85.8627V72.5361C85.8627 71.9847 85.7648 71.5723 85.5688 71.2988C85.3728 71.0208 85.0607 70.8818 84.6323 70.8818C84.0489 70.8818 83.6274 71.0778 83.3676 71.4697C83.1079 71.8571 82.978 72.502 82.978 73.4043V77H80.893V69.3574H82.4858L82.7661 70.335H82.8823C83.1147 69.9658 83.4337 69.6878 83.8393 69.501C84.2495 69.3096 84.7143 69.2139 85.2338 69.2139C86.1225 69.2139 86.797 69.4554 87.2573 69.9385C87.7176 70.417 87.9477 71.1097 87.9477 72.0166V77ZM94.5988 70.9229H92.7941V77H90.7091V70.9229H89.5607V69.918L90.7091 69.3574V68.7969C90.7091 67.9264 90.9233 67.2907 91.3517 66.8896C91.7801 66.4886 92.466 66.2881 93.4093 66.2881C94.1294 66.2881 94.7697 66.3952 95.3302 66.6094L94.797 68.1406C94.3778 68.0085 93.9904 67.9424 93.6349 67.9424C93.3387 67.9424 93.1245 68.0312 92.9923 68.209C92.8602 68.3822 92.7941 68.6055 92.7941 68.8789V69.3574H94.5988V70.9229ZM97.743 73.165C97.743 73.9215 97.8661 74.4935 98.1122 74.8809C98.3628 75.2682 98.7684 75.4619 99.329 75.4619C99.885 75.4619 100.284 75.2705 100.525 74.8877C100.771 74.5003 100.894 73.9261 100.894 73.165C100.894 72.4085 100.771 71.8411 100.525 71.4629C100.279 71.0846 99.8759 70.8955 99.3153 70.8955C98.7593 70.8955 98.3583 71.0846 98.1122 71.4629C97.8661 71.8366 97.743 72.404 97.743 73.165ZM103.027 73.165C103.027 74.4092 102.699 75.3822 102.043 76.084C101.387 76.7858 100.473 77.1367 99.3016 77.1367C98.5679 77.1367 97.9208 76.9772 97.3602 76.6582C96.7997 76.3346 96.369 75.8721 96.0682 75.2705C95.7675 74.6689 95.6171 73.9671 95.6171 73.165C95.6171 71.9163 95.9429 70.9456 96.5946 70.2529C97.2463 69.5602 98.1623 69.2139 99.3427 69.2139C100.076 69.2139 100.724 69.3734 101.284 69.6924C101.845 70.0114 102.275 70.4694 102.576 71.0664C102.877 71.6634 103.027 72.363 103.027 73.165Z" fill="#6A707E"/>
<path d="M20.1544 140.452C20.1544 142.567 19.5509 144.188 18.3439 145.312C17.1427 146.438 15.4054 147 13.132 147H9.49332V134.15H13.5275C15.6252 134.15 17.2541 134.704 18.4142 135.812C19.5744 136.919 20.1544 138.466 20.1544 140.452ZM17.3244 140.522C17.3244 137.763 16.1056 136.383 13.6681 136.383H12.2179V144.75H13.3869C16.0119 144.75 17.3244 143.341 17.3244 140.522ZM27.0359 138.896C26.4676 138.896 26.0223 139.078 25.7 139.441C25.3777 139.799 25.1932 140.309 25.1463 140.971H28.908C28.8963 140.309 28.7234 139.799 28.3895 139.441C28.0555 139.078 27.6043 138.896 27.0359 138.896ZM27.4139 147.176C25.8318 147.176 24.5955 146.739 23.7049 145.866C22.8143 144.993 22.3689 143.757 22.3689 142.157C22.3689 140.511 22.7791 139.239 23.5994 138.343C24.4256 137.44 25.5652 136.989 27.0184 136.989C28.407 136.989 29.4881 137.385 30.2615 138.176C31.035 138.967 31.4217 140.06 31.4217 141.454V142.755H25.0848C25.1141 143.517 25.3396 144.111 25.7615 144.539C26.1834 144.967 26.7752 145.181 27.5369 145.181C28.1287 145.181 28.6883 145.119 29.2156 144.996C29.743 144.873 30.2937 144.677 30.868 144.407V146.481C30.3992 146.716 29.8982 146.889 29.365 147C28.8318 147.117 28.1814 147.176 27.4139 147.176ZM36.642 147H33.9614V133.324H36.642V147ZM43.8927 138.896C43.3243 138.896 42.879 139.078 42.5567 139.441C42.2345 139.799 42.0499 140.309 42.003 140.971H45.7647C45.753 140.309 45.5802 139.799 45.2462 139.441C44.9122 139.078 44.461 138.896 43.8927 138.896ZM44.2706 147.176C42.6886 147.176 41.4522 146.739 40.5616 145.866C39.671 144.993 39.2257 143.757 39.2257 142.157C39.2257 140.511 39.6358 139.239 40.4561 138.343C41.2823 137.44 42.422 136.989 43.8751 136.989C45.2637 136.989 46.3448 137.385 47.1182 138.176C47.8917 138.967 48.2784 140.06 48.2784 141.454V142.755H41.9415C41.9708 143.517 42.1964 144.111 42.6182 144.539C43.0401 144.967 43.6319 145.181 44.3936 145.181C44.9854 145.181 45.545 145.119 46.0723 144.996C46.5997 144.873 47.1505 144.677 47.7247 144.407V146.481C47.2559 146.716 46.755 146.889 46.2218 147C45.6886 147.117 45.0382 147.176 44.2706 147.176ZM54.9577 145.04C55.4265 145.04 55.989 144.938 56.6452 144.732V146.728C55.9773 147.026 55.1569 147.176 54.1843 147.176C53.112 147.176 52.3298 146.906 51.8376 146.367C51.3513 145.822 51.1081 145.008 51.1081 143.924V139.187H49.8249V138.053L51.3015 137.156L52.0749 135.082H53.7888V137.174H56.5398V139.187H53.7888V143.924C53.7888 144.305 53.8943 144.586 54.1052 144.768C54.322 144.949 54.6062 145.04 54.9577 145.04ZM63.0697 138.896C62.5013 138.896 62.056 139.078 61.7337 139.441C61.4115 139.799 61.2269 140.309 61.18 140.971H64.9418C64.93 140.309 64.7572 139.799 64.4232 139.441C64.0892 139.078 63.638 138.896 63.0697 138.896ZM63.4476 147.176C61.8656 147.176 60.6293 146.739 59.7386 145.866C58.848 144.993 58.4027 143.757 58.4027 142.157C58.4027 140.511 58.8128 139.239 59.6332 138.343C60.4593 137.44 61.599 136.989 63.0521 136.989C64.4408 136.989 65.5218 137.385 66.2953 138.176C67.0687 138.967 67.4554 140.06 67.4554 141.454V142.755H61.1185C61.1478 143.517 61.3734 144.111 61.7953 144.539C62.2171 144.967 62.8089 145.181 63.5707 145.181C64.1625 145.181 64.722 145.119 65.2494 144.996C65.7767 144.873 66.3275 144.677 66.9017 144.407V146.481C66.433 146.716 65.932 146.889 65.3988 147C64.8656 147.117 64.2152 147.176 63.4476 147.176ZM73.1064 147.176C71.9521 147.176 71.0439 146.728 70.3818 145.831C69.7256 144.935 69.3975 143.692 69.3975 142.104C69.3975 140.493 69.7314 139.239 70.3994 138.343C71.0732 137.44 71.999 136.989 73.1768 136.989C74.4131 136.989 75.3564 137.47 76.0068 138.431H76.0947C75.96 137.698 75.8926 137.045 75.8926 136.471V133.324H78.582V147H76.5254L76.0068 145.726H75.8926C75.2832 146.692 74.3545 147.176 73.1064 147.176ZM74.0469 145.04C74.7324 145.04 75.2334 144.841 75.5498 144.442C75.8721 144.044 76.0479 143.367 76.0771 142.412V142.122C76.0771 141.067 75.9131 140.312 75.585 139.854C75.2627 139.397 74.7354 139.169 74.0029 139.169C73.4053 139.169 72.9395 139.424 72.6055 139.934C72.2773 140.438 72.1133 141.173 72.1133 142.14C72.1133 143.106 72.2803 143.833 72.6143 144.319C72.9482 144.8 73.4258 145.04 74.0469 145.04ZM97.4514 134.15V142.465C97.4514 143.414 97.2376 144.246 96.8098 144.961C96.388 145.676 95.7757 146.224 94.9729 146.604C94.1702 146.985 93.221 147.176 92.1253 147.176C90.4729 147.176 89.1897 146.754 88.2757 145.91C87.3616 145.061 86.9046 143.9 86.9046 142.43V134.15H89.6204V142.017C89.6204 143.007 89.8196 143.733 90.218 144.196C90.6165 144.659 91.2757 144.891 92.1956 144.891C93.0862 144.891 93.7307 144.659 94.1292 144.196C94.5335 143.728 94.7356 142.995 94.7356 141.999V134.15H97.4514ZM107.602 144.082C107.602 145.09 107.251 145.857 106.548 146.385C105.851 146.912 104.805 147.176 103.41 147.176C102.695 147.176 102.086 147.126 101.582 147.026C101.078 146.933 100.606 146.792 100.167 146.604V144.39C100.665 144.624 101.225 144.82 101.846 144.979C102.473 145.137 103.023 145.216 103.498 145.216C104.471 145.216 104.957 144.935 104.957 144.372C104.957 144.161 104.892 143.991 104.764 143.862C104.635 143.728 104.412 143.578 104.096 143.414C103.779 143.244 103.357 143.048 102.83 142.825C102.074 142.509 101.517 142.216 101.16 141.946C100.809 141.677 100.551 141.369 100.387 141.023C100.228 140.672 100.149 140.241 100.149 139.731C100.149 138.858 100.486 138.185 101.16 137.71C101.84 137.229 102.801 136.989 104.043 136.989C105.226 136.989 106.378 137.247 107.497 137.763L106.688 139.696C106.196 139.485 105.736 139.312 105.309 139.178C104.881 139.043 104.444 138.976 103.999 138.976C103.208 138.976 102.812 139.189 102.812 139.617C102.812 139.857 102.938 140.065 103.19 140.241C103.448 140.417 104.008 140.678 104.869 141.023C105.637 141.334 106.199 141.624 106.557 141.894C106.914 142.163 107.178 142.474 107.348 142.825C107.517 143.177 107.602 143.596 107.602 144.082ZM114.124 138.896C113.555 138.896 113.11 139.078 112.788 139.441C112.465 139.799 112.281 140.309 112.234 140.971H115.996C115.984 140.309 115.811 139.799 115.477 139.441C115.143 139.078 114.692 138.896 114.124 138.896ZM114.502 147.176C112.919 147.176 111.683 146.739 110.793 145.866C109.902 144.993 109.457 143.757 109.457 142.157C109.457 140.511 109.867 139.239 110.687 138.343C111.513 137.44 112.653 136.989 114.106 136.989C115.495 136.989 116.576 137.385 117.349 138.176C118.123 138.967 118.509 140.06 118.509 141.454V142.755H112.172C112.202 143.517 112.427 144.111 112.849 144.539C113.271 144.967 113.863 145.181 114.625 145.181C115.216 145.181 115.776 145.119 116.303 144.996C116.831 144.873 117.381 144.677 117.956 144.407V146.481C117.487 146.716 116.986 146.889 116.453 147C115.919 147.117 115.269 147.176 114.502 147.176ZM126.533 136.989C126.897 136.989 127.198 137.016 127.439 137.068L127.237 139.582C127.02 139.523 126.756 139.494 126.446 139.494C125.59 139.494 124.922 139.714 124.442 140.153C123.967 140.593 123.73 141.208 123.73 141.999V147H121.049V137.174H123.079L123.475 138.826H123.607C123.911 138.275 124.321 137.833 124.837 137.499C125.359 137.159 125.924 136.989 126.533 136.989ZM136.438 144.082C136.438 145.09 136.087 145.857 135.384 146.385C134.686 146.912 133.64 147.176 132.246 147.176C131.531 147.176 130.922 147.126 130.418 147.026C129.914 146.933 129.442 146.792 129.003 146.604V144.39C129.501 144.624 130.06 144.82 130.681 144.979C131.308 145.137 131.859 145.216 132.334 145.216C133.306 145.216 133.793 144.935 133.793 144.372C133.793 144.161 133.728 143.991 133.599 143.862C133.471 143.728 133.248 143.578 132.931 143.414C132.615 143.244 132.193 143.048 131.666 142.825C130.91 142.509 130.353 142.216 129.996 141.946C129.644 141.677 129.387 141.369 129.223 141.023C129.064 140.672 128.985 140.241 128.985 139.731C128.985 138.858 129.322 138.185 129.996 137.71C130.676 137.229 131.637 136.989 132.879 136.989C134.062 136.989 135.214 137.247 136.333 137.763L135.524 139.696C135.032 139.485 134.572 139.312 134.144 139.178C133.717 139.043 133.28 138.976 132.835 138.976C132.044 138.976 131.648 139.189 131.648 139.617C131.648 139.857 131.774 140.065 132.026 140.241C132.284 140.417 132.844 140.678 133.705 141.023C134.473 141.334 135.035 141.624 135.392 141.894C135.75 142.163 136.014 142.474 136.183 142.825C136.353 143.177 136.438 143.596 136.438 144.082Z" fill="#6A707E"/>
</svg>
