<svg width="39" height="41" viewBox="0 0 39 41" fill="none" xmlns="http://www.w3.org/2000/svg">
<path fill-rule="evenodd" clip-rule="evenodd" d="M37.7339 16.0885L35.5523 18.2717L29.473 12.19L31.6553 10.0066C32.3429 9.31867 33.3766 9.23357 33.9598 9.81674L37.9241 13.7833C38.5067 14.3662 38.4215 15.4005 37.7339 16.0885ZM28.4595 13.2032L34.5388 19.2855L20.043 33.7884C19.976 33.8554 19.7914 34.0397 19.5324 34.1061C19.5027 34.1202 19.4721 34.1325 19.4417 34.1421L11.8761 36.5543C11.6645 36.6217 11.4516 36.5783 11.3136 36.4398C11.1752 36.3014 11.1324 36.0887 11.1986 35.8768L13.6097 28.3088C13.6199 28.2777 13.6322 28.2471 13.6461 28.2182C13.7123 27.9582 13.8964 27.7744 13.9636 27.7074L16.6879 24.9814H7.48659C7.11558 24.9814 6.81472 24.6808 6.81472 24.3092C6.81472 23.9376 7.11558 23.6369 7.48659 23.6369H18.0317L28.4595 13.2032ZM18.1726 33.321L14.4303 29.5775L13.4264 32.7307L15.0215 34.3268L18.1726 33.321ZM28.2259 15.6205C28.0107 15.405 27.6621 15.405 27.4473 15.6205L16.1459 26.9267C15.931 27.1416 15.931 27.4908 16.1459 27.7066C16.3609 27.9215 16.7102 27.9215 16.9252 27.7066L28.2259 16.4004C28.4415 16.1849 28.4415 15.8356 28.2259 15.6205ZM27.5435 37.1452C27.5435 37.5491 27.2151 37.8778 26.8112 37.8778H13.4763L12.2718 38.262C12.0299 38.3391 11.7812 38.3785 11.5323 38.3785C11.0023 38.3785 10.5097 38.1964 10.1065 37.8778H3.18421C2.78032 37.8778 2.45085 37.5495 2.45085 37.1452V6.35915C2.45085 5.95499 2.77987 5.62608 3.18421 5.62608H5.93125V6.7867C5.93125 7.19129 6.25909 7.51959 6.66421 7.51959C7.06901 7.51959 7.39688 7.19129 7.39688 6.7867V5.62608H11.6093V6.7867C11.6093 7.19129 11.9372 7.51959 12.342 7.51959C12.7471 7.51959 13.075 7.19129 13.075 6.7867V5.62608H16.7379V6.7867C16.7379 7.19129 17.0659 7.51959 17.4709 7.51959C17.8757 7.51959 18.2035 7.19129 18.2035 6.7867V5.62608H22.2331V6.7867C22.2331 7.19129 22.5612 7.51959 22.9654 7.51959C23.3704 7.51959 23.6985 7.19129 23.6985 6.7867V5.62608H26.8121C27.2159 5.62608 27.5444 5.95499 27.5444 6.35915V11.4362L28.3126 10.6682L29.7428 9.23735V6.35915C29.7428 4.74274 28.428 3.42737 26.8121 3.42737H23.6985V1.65607C23.6985 1.25131 23.3709 0.922788 22.9654 0.922788C22.5612 0.922788 22.2331 1.25079 22.2331 1.65607V3.42737H18.2026V1.65607C18.2026 1.25131 17.8749 0.922788 17.47 0.922788C17.065 0.922788 16.7371 1.25079 16.7371 1.65607V3.42737H13.0741V1.65607C13.0741 1.25131 12.7462 0.922788 12.3412 0.922788C11.9363 0.922788 11.6084 1.25079 11.6084 1.65607V3.42737H7.39606V1.65607C7.39606 1.25131 7.06823 0.922788 6.66331 0.922788C6.25831 0.922788 5.93044 1.25079 5.93044 1.65607V3.42737H3.18339C1.56771 3.42737 0.25255 4.74274 0.25255 6.35915V37.1443C0.25255 38.7609 1.56771 40.0765 3.18339 40.0765H26.8104C28.4263 40.0765 29.7411 38.7609 29.7411 37.1443V26.4715L27.5426 28.6707V37.1452H27.5435ZM21.8202 12.2093H7.48659C7.11558 12.2093 6.81472 12.51 6.81472 12.8815C6.81472 13.2531 7.11558 13.5537 7.48659 13.5537H21.8202C22.1911 13.5537 22.4921 13.2531 22.4921 12.8815C22.4921 12.51 22.1911 12.2093 21.8202 12.2093ZM21.8202 17.6291H7.48659C7.11558 17.6291 6.81472 17.9299 6.81472 18.3013C6.81472 18.6728 7.11558 18.9734 7.48659 18.9734H21.8202C22.1911 18.9734 22.4921 18.6728 22.4921 18.3013C22.4921 17.9299 22.1911 17.6291 21.8202 17.6291Z" fill="#FC9E45"/>
</svg>
