<svg width="765" height="436" viewBox="0 0 765 436" fill="none" xmlns="http://www.w3.org/2000/svg">
<path fill-rule="evenodd" clip-rule="evenodd" d="M88.4999 76.9999C92.0898 76.9999 95 79.9101 95 83.5V344.5C95 348.09 92.0898 351 88.4999 351C84.9101 351 81.9999 348.09 81.9999 344.5V83.5C81.9999 79.9101 84.9101 76.9999 88.4999 76.9999Z" fill="#F1F3F7"/>
<path fill-rule="evenodd" clip-rule="evenodd" d="M135.5 76.9999C139.09 76.9999 142 79.9101 142 83.5V344.5C142 348.09 139.09 351 135.5 351C131.91 351 129 348.09 129 344.5V83.5C129 79.9101 131.91 76.9999 135.5 76.9999Z" fill="#F1F3F7"/>
<path fill-rule="evenodd" clip-rule="evenodd" d="M182.5 76.9999C186.09 76.9999 189 79.9101 189 83.5V344.5C189 348.09 186.09 351 182.5 351C178.91 351 176 348.09 176 344.5V83.5C176 79.9101 178.91 76.9999 182.5 76.9999Z" fill="#F1F3F7"/>
<path fill-rule="evenodd" clip-rule="evenodd" d="M229.5 76.9999C233.09 76.9999 236 79.9101 236 83.5V344.5C236 348.09 233.09 351 229.5 351C225.91 351 223 348.09 223 344.5V83.5C223 79.9101 225.91 76.9999 229.5 76.9999Z" fill="#F1F3F7"/>
<path fill-rule="evenodd" clip-rule="evenodd" d="M275.5 76.9999C279.09 76.9999 282 79.9101 282 83.5V344.5C282 348.09 279.09 351 275.5 351C271.91 351 269 348.09 269 344.5V83.5C269 79.9101 271.91 76.9999 275.5 76.9999Z" fill="#F1F3F7"/>
<path fill-rule="evenodd" clip-rule="evenodd" d="M322.5 76.9999C326.09 76.9999 329 79.9101 329 83.5V344.5C329 348.09 326.09 351 322.5 351C318.91 351 316 348.09 316 344.5V83.5C316 79.9101 318.91 76.9999 322.5 76.9999Z" fill="#F1F3F7"/>
<path fill-rule="evenodd" clip-rule="evenodd" d="M369.5 76.9999C373.09 76.9999 376 79.9101 376 83.5V344.5C376 348.09 373.09 351 369.5 351C365.91 351 363 348.09 363 344.5V83.5C363 79.9101 365.91 76.9999 369.5 76.9999Z" fill="#F1F3F7"/>
<path fill-rule="evenodd" clip-rule="evenodd" d="M416.5 76.9999C420.09 76.9999 423 79.9101 423 83.5V344.5C423 348.09 420.09 351 416.5 351C412.91 351 410 348.09 410 344.5V83.5C410 79.9101 412.91 76.9999 416.5 76.9999Z" fill="#F1F3F7"/>
<path fill-rule="evenodd" clip-rule="evenodd" d="M463.5 76.9999C467.09 76.9999 470 79.9101 470 83.5V344.5C470 348.09 467.09 351 463.5 351C459.91 351 457 348.09 457 344.5V83.5C457 79.9101 459.91 76.9999 463.5 76.9999Z" fill="#F1F3F7"/>
<path fill-rule="evenodd" clip-rule="evenodd" d="M510.5 76.9999C514.09 76.9999 517 79.9101 517 83.5V344.5C517 348.09 514.09 351 510.5 351C506.91 351 504 348.09 504 344.5V83.5C504 79.9101 506.91 76.9999 510.5 76.9999Z" fill="#F1F3F7"/>
<path fill-rule="evenodd" clip-rule="evenodd" d="M557.5 76.9999C561.09 76.9999 564 79.9101 564 83.5V344.5C564 348.09 561.09 351 557.5 351C553.91 351 551 348.09 551 344.5V83.5C551 79.9101 553.91 76.9999 557.5 76.9999Z" fill="#F1F3F7"/>
<path fill-rule="evenodd" clip-rule="evenodd" d="M603.5 76.9999C607.09 76.9999 610 79.9101 610 83.5V344.5C610 348.09 607.09 351 603.5 351C599.91 351 597 348.09 597 344.5V83.5C597 79.9101 599.91 76.9999 603.5 76.9999Z" fill="#F1F3F7"/>
<path fill-rule="evenodd" clip-rule="evenodd" d="M650.5 76.9999C654.09 76.9999 657 79.9101 657 83.5V344.5C657 348.09 654.09 351 650.5 351C646.91 351 644 348.09 644 344.5V83.5C644 79.9101 646.91 76.9999 650.5 76.9999Z" fill="#F1F3F7"/>
<path fill-rule="evenodd" clip-rule="evenodd" d="M697.5 76.9999C701.09 76.9999 704 79.9101 704 83.5V344.5C704 348.09 701.09 351 697.5 351C693.91 351 691 348.09 691 344.5V83.5C691 79.9101 693.91 76.9999 697.5 76.9999Z" fill="#F1F3F7"/>
<path fill-rule="evenodd" clip-rule="evenodd" d="M744.5 76.9999C748.09 76.9999 751 79.9101 751 83.5V344.5C751 348.09 748.09 351 744.5 351C740.91 351 738 348.09 738 344.5V83.5C738 79.9101 740.91 76.9999 744.5 76.9999Z" fill="#F1F3F7"/>
<path fill-rule="evenodd" clip-rule="evenodd" d="M88.5 277C92.0898 277 95 279.91 95 283.5V344.5C95 348.09 92.0898 351 88.5 351C84.9102 351 81.9999 348.09 81.9999 344.5V283.5C81.9999 279.91 84.9102 277 88.5 277Z" fill="#D78AFD"/>
<path fill-rule="evenodd" clip-rule="evenodd" d="M135.5 222C139.09 222 142 224.91 142 228.5V344.5C142 348.09 139.09 351 135.5 351C131.91 351 129 348.09 129 344.5V228.5C129 224.91 131.91 222 135.5 222Z" fill="#D78AFD"/>
<path fill-rule="evenodd" clip-rule="evenodd" d="M182.5 137C186.09 137 189 139.91 189 143.5V344.5C189 348.09 186.09 351 182.5 351C178.91 351 176 348.09 176 344.5V143.5C176 139.91 178.91 137 182.5 137Z" fill="#D78AFD"/>
<path fill-rule="evenodd" clip-rule="evenodd" d="M229.5 177C233.09 177 236 179.91 236 183.5V344.5C236 348.09 233.09 351 229.5 351C225.91 351 223 348.09 223 344.5V183.5C223 179.91 225.91 177 229.5 177Z" fill="#D78AFD"/>
<path fill-rule="evenodd" clip-rule="evenodd" d="M275.5 277C279.09 277 282 279.91 282 283.5V344.5C282 348.09 279.09 351 275.5 351C271.91 351 269 348.09 269 344.5V283.5C269 279.91 271.91 277 275.5 277Z" fill="#D78AFD"/>
<path fill-rule="evenodd" clip-rule="evenodd" d="M322.5 147C326.09 147 329 149.91 329 153.5V344.5C329 348.09 326.09 351 322.5 351C318.91 351 316 348.09 316 344.5V153.5C316 149.91 318.91 147 322.5 147Z" fill="#D78AFD"/>
<path fill-rule="evenodd" clip-rule="evenodd" d="M369.5 177C373.09 177 376 179.91 376 183.5V344.5C376 348.09 373.09 351 369.5 351C365.91 351 363 348.09 363 344.5V183.5C363 179.91 365.91 177 369.5 177Z" fill="#D78AFD"/>
<path fill-rule="evenodd" clip-rule="evenodd" d="M416.5 297C420.09 297 423 299.91 423 303.5V344.5C423 348.09 420.09 351 416.5 351C412.91 351 410 348.09 410 344.5V303.5C410 299.91 412.91 297 416.5 297Z" fill="#D78AFD"/>
<path fill-rule="evenodd" clip-rule="evenodd" d="M463.5 107C467.09 107 470 109.91 470 113.5V344.5C470 348.09 467.09 351 463.5 351C459.91 351 457 348.09 457 344.5V113.5C457 109.91 459.91 107 463.5 107Z" fill="#D78AFD"/>
<path fill-rule="evenodd" clip-rule="evenodd" d="M510.5 237C514.09 237 517 239.91 517 243.5V344.5C517 348.09 514.09 351 510.5 351C506.91 351 504 348.09 504 344.5V243.5C504 239.91 506.91 237 510.5 237Z" fill="#D78AFD"/>
<path fill-rule="evenodd" clip-rule="evenodd" d="M557.5 207C561.09 207 564 209.91 564 213.5V344.5C564 348.09 561.09 351 557.5 351C553.91 351 551 348.09 551 344.5V213.5C551 209.91 553.91 207 557.5 207Z" fill="#D78AFD"/>
<path fill-rule="evenodd" clip-rule="evenodd" d="M603.5 157C607.09 157 610 159.91 610 163.5V344.5C610 348.09 607.09 351 603.5 351C599.91 351 597 348.09 597 344.5V163.5C597 159.91 599.91 157 603.5 157Z" fill="#D78AFD"/>
<path fill-rule="evenodd" clip-rule="evenodd" d="M650.5 237C654.09 237 657 239.91 657 243.5V344.5C657 348.09 654.09 351 650.5 351C646.91 351 644 348.09 644 344.5V243.5C644 239.91 646.91 237 650.5 237Z" fill="#D78AFD"/>
<path fill-rule="evenodd" clip-rule="evenodd" d="M697.5 127C701.09 127 704 129.91 704 133.5V344.5C704 348.09 701.09 351 697.5 351C693.91 351 691 348.09 691 344.5V133.5C691 129.91 693.91 127 697.5 127Z" fill="#D78AFD"/>
<path fill-rule="evenodd" clip-rule="evenodd" d="M744.5 307C748.09 307 751 309.91 751 313.5V344.5C751 348.09 748.09 351 744.5 351C740.91 351 738 348.09 738 344.5V313.5C738 309.91 740.91 307 744.5 307Z" fill="#D78AFD"/>
<path d="M90.2451 375.432C90.2451 376.592 89.8262 377.506 88.9883 378.174C88.1562 378.842 86.9961 379.176 85.5078 379.176C84.1367 379.176 82.9238 378.918 81.8691 378.402V375.871C82.7363 376.258 83.4688 376.53 84.0664 376.688C84.6699 376.847 85.2207 376.926 85.7188 376.926C86.3164 376.926 86.7734 376.812 87.0898 376.583C87.4121 376.354 87.5732 376.015 87.5732 375.563C87.5732 375.312 87.5029 375.089 87.3623 374.896C87.2217 374.696 87.0137 374.506 86.7383 374.324C86.4688 374.143 85.915 373.853 85.0771 373.454C84.292 373.085 83.7031 372.73 83.3105 372.391C82.918 372.051 82.6045 371.655 82.3701 371.204C82.1357 370.753 82.0186 370.226 82.0186 369.622C82.0186 368.485 82.4023 367.592 83.1699 366.941C83.9434 366.291 85.0098 365.966 86.3691 365.966C87.0371 365.966 87.6729 366.045 88.2764 366.203C88.8857 366.361 89.5215 366.584 90.1836 366.871L89.3047 368.989C88.6191 368.708 88.0508 368.512 87.5996 368.4C87.1543 368.289 86.7148 368.233 86.2812 368.233C85.7656 368.233 85.3701 368.354 85.0947 368.594C84.8193 368.834 84.6816 369.147 84.6816 369.534C84.6816 369.774 84.7373 369.985 84.8486 370.167C84.96 370.343 85.1357 370.516 85.376 370.686C85.6221 370.85 86.1992 371.148 87.1074 371.582C88.3086 372.156 89.1318 372.733 89.5771 373.313C90.0225 373.888 90.2451 374.594 90.2451 375.432Z" fill="#6A707E"/>
<path d="M131.567 379L128.474 368.919H128.395C128.506 370.97 128.562 372.338 128.562 373.023V379H126.127V366.15H129.836L132.877 375.977H132.93L136.155 366.15H139.864V379H137.324V372.918C137.324 372.631 137.327 372.3 137.333 371.925C137.345 371.55 137.386 370.554 137.456 368.937H137.377L134.063 379H131.567Z" fill="#6A707E"/>
<path d="M181.862 379H179.138V368.418H175.648V366.15H185.352V368.418H181.862V379Z" fill="#6A707E"/>
<path d="M232.432 379H229.329L227.589 372.25C227.524 372.01 227.413 371.515 227.255 370.765C227.103 370.009 227.015 369.502 226.991 369.244C226.956 369.561 226.868 370.07 226.728 370.773C226.587 371.471 226.479 371.969 226.402 372.268L224.671 379H221.577L218.299 366.15H220.979L222.623 373.164C222.91 374.459 223.118 375.581 223.247 376.53C223.282 376.196 223.361 375.681 223.484 374.983C223.613 374.28 223.733 373.735 223.845 373.349L225.717 366.15H228.292L230.164 373.349C230.246 373.671 230.349 374.163 230.472 374.825C230.595 375.487 230.688 376.056 230.753 376.53C230.812 376.073 230.905 375.505 231.034 374.825C231.163 374.14 231.28 373.586 231.386 373.164L233.021 366.15H235.701L232.432 379Z" fill="#6A707E"/>
<path d="M275.862 379H273.138V368.418H269.648V366.15H279.352V368.418H275.862V379Z" fill="#6A707E"/>
<path d="M321.358 379H318.678V366.15H326.043V368.383H321.358V371.696H325.718V373.92H321.358V379Z" fill="#6A707E"/>
<path d="M372.245 375.432C372.245 376.592 371.826 377.506 370.988 378.174C370.156 378.842 368.996 379.176 367.508 379.176C366.137 379.176 364.924 378.918 363.869 378.402V375.871C364.736 376.258 365.469 376.53 366.066 376.688C366.67 376.847 367.221 376.926 367.719 376.926C368.316 376.926 368.773 376.812 369.09 376.583C369.412 376.354 369.573 376.015 369.573 375.563C369.573 375.312 369.503 375.089 369.362 374.896C369.222 374.696 369.014 374.506 368.738 374.324C368.469 374.143 367.915 373.853 367.077 373.454C366.292 373.085 365.703 372.73 365.311 372.391C364.918 372.051 364.604 371.655 364.37 371.204C364.136 370.753 364.019 370.226 364.019 369.622C364.019 368.485 364.402 367.592 365.17 366.941C365.943 366.291 367.01 365.966 368.369 365.966C369.037 365.966 369.673 366.045 370.276 366.203C370.886 366.361 371.521 366.584 372.184 366.871L371.305 368.989C370.619 368.708 370.051 368.512 369.6 368.4C369.154 368.289 368.715 368.233 368.281 368.233C367.766 368.233 367.37 368.354 367.095 368.594C366.819 368.834 366.682 369.147 366.682 369.534C366.682 369.774 366.737 369.985 366.849 370.167C366.96 370.343 367.136 370.516 367.376 370.686C367.622 370.85 368.199 371.148 369.107 371.582C370.309 372.156 371.132 372.733 371.577 373.313C372.022 373.888 372.245 374.594 372.245 375.432Z" fill="#6A707E"/>
<path d="M420.245 375.432C420.245 376.592 419.826 377.506 418.988 378.174C418.156 378.842 416.996 379.176 415.508 379.176C414.137 379.176 412.924 378.918 411.869 378.402V375.871C412.736 376.258 413.469 376.53 414.066 376.688C414.67 376.847 415.221 376.926 415.719 376.926C416.316 376.926 416.773 376.812 417.09 376.583C417.412 376.354 417.573 376.015 417.573 375.563C417.573 375.312 417.503 375.089 417.362 374.896C417.222 374.696 417.014 374.506 416.738 374.324C416.469 374.143 415.915 373.853 415.077 373.454C414.292 373.085 413.703 372.73 413.311 372.391C412.918 372.051 412.604 371.655 412.37 371.204C412.136 370.753 412.019 370.226 412.019 369.622C412.019 368.485 412.402 367.592 413.17 366.941C413.943 366.291 415.01 365.966 416.369 365.966C417.037 365.966 417.673 366.045 418.276 366.203C418.886 366.361 419.521 366.584 420.184 366.871L419.305 368.989C418.619 368.708 418.051 368.512 417.6 368.4C417.154 368.289 416.715 368.233 416.281 368.233C415.766 368.233 415.37 368.354 415.095 368.594C414.819 368.834 414.682 369.147 414.682 369.534C414.682 369.774 414.737 369.985 414.849 370.167C414.96 370.343 415.136 370.516 415.376 370.686C415.622 370.85 416.199 371.148 417.107 371.582C418.309 372.156 419.132 372.733 419.577 373.313C420.022 373.888 420.245 374.594 420.245 375.432Z" fill="#6A707E"/>
<path d="M461.567 379L458.474 368.919H458.395C458.506 370.97 458.562 372.338 458.562 373.023V379H456.127V366.15H459.836L462.877 375.977H462.93L466.155 366.15H469.864V379H467.324V372.918C467.324 372.631 467.327 372.3 467.333 371.925C467.345 371.55 467.386 370.554 467.456 368.937H467.377L464.063 379H461.567Z" fill="#6A707E"/>
<path d="M511.862 379H509.138V368.418H505.648V366.15H515.352V368.418H511.862V379Z" fill="#6A707E"/>
<path d="M562.432 379H559.329L557.589 372.25C557.524 372.01 557.413 371.515 557.255 370.765C557.103 370.009 557.015 369.502 556.991 369.244C556.956 369.561 556.868 370.07 556.728 370.773C556.587 371.471 556.479 371.969 556.402 372.268L554.671 379H551.577L548.299 366.15H550.979L552.623 373.164C552.91 374.459 553.118 375.581 553.247 376.53C553.282 376.196 553.361 375.681 553.484 374.983C553.613 374.28 553.733 373.735 553.845 373.349L555.717 366.15H558.292L560.164 373.349C560.246 373.671 560.349 374.163 560.472 374.825C560.595 375.487 560.688 376.056 560.753 376.53C560.812 376.073 560.905 375.505 561.034 374.825C561.163 374.14 561.28 373.586 561.386 373.164L563.021 366.15H565.701L562.432 379Z" fill="#6A707E"/>
<path d="M605.862 379H603.138V368.418H599.648V366.15H609.352V368.418H605.862V379Z" fill="#6A707E"/>
<path d="M651.358 380H648.678V367.15H656.043V369.383H651.358V372.696H655.718V374.92H651.358V380Z" fill="#6A707E"/>
<path d="M697.974 372.784H703.071V379.446C702.245 379.716 701.466 379.903 700.733 380.009C700.007 380.12 699.263 380.176 698.501 380.176C696.562 380.176 695.079 379.607 694.054 378.471C693.034 377.328 692.524 375.69 692.524 373.558C692.524 371.483 693.116 369.866 694.3 368.706C695.489 367.546 697.136 366.966 699.239 366.966C700.558 366.966 701.829 367.229 703.054 367.757L702.148 369.937C701.211 369.468 700.235 369.233 699.222 369.233C698.044 369.233 697.101 369.629 696.392 370.42C695.683 371.211 695.328 372.274 695.328 373.61C695.328 375.005 695.612 376.071 696.181 376.81C696.755 377.542 697.587 377.908 698.677 377.908C699.245 377.908 699.822 377.85 700.408 377.732V375.052H697.974V372.784Z" fill="#6A707E"/>
<path d="M749.245 376.432C749.245 377.592 748.826 378.506 747.988 379.174C747.156 379.842 745.996 380.176 744.508 380.176C743.137 380.176 741.924 379.918 740.869 379.402V376.871C741.736 377.258 742.469 377.53 743.066 377.688C743.67 377.847 744.221 377.926 744.719 377.926C745.316 377.926 745.773 377.812 746.09 377.583C746.412 377.354 746.573 377.015 746.573 376.563C746.573 376.312 746.503 376.089 746.362 375.896C746.222 375.696 746.014 375.506 745.738 375.324C745.469 375.143 744.915 374.853 744.077 374.454C743.292 374.085 742.703 373.73 742.311 373.391C741.918 373.051 741.604 372.655 741.37 372.204C741.136 371.753 741.019 371.226 741.019 370.622C741.019 369.485 741.402 368.592 742.17 367.941C742.943 367.291 744.01 366.966 745.369 366.966C746.037 366.966 746.673 367.045 747.276 367.203C747.886 367.361 748.521 367.584 749.184 367.871L748.305 369.989C747.619 369.708 747.051 369.512 746.6 369.4C746.154 369.289 745.715 369.233 745.281 369.233C744.766 369.233 744.37 369.354 744.095 369.594C743.819 369.834 743.682 370.147 743.682 370.534C743.682 370.774 743.737 370.985 743.849 371.167C743.96 371.343 744.136 371.516 744.376 371.686C744.622 371.85 745.199 372.148 746.107 372.582C747.309 373.156 748.132 373.733 748.577 374.313C749.022 374.888 749.245 375.594 749.245 376.432Z" fill="#6A707E"/>
<path d="M61.3496 349.575C61.3496 351.819 60.9805 353.48 60.2422 354.559C59.5098 355.637 58.3789 356.176 56.8496 356.176C55.3672 356.176 54.248 355.619 53.4922 354.506C52.7422 353.393 52.3672 351.749 52.3672 349.575C52.3672 347.308 52.7334 345.638 53.4658 344.565C54.1982 343.487 55.3262 342.948 56.8496 342.948C58.332 342.948 59.4512 343.511 60.207 344.636C60.9688 345.761 61.3496 347.407 61.3496 349.575ZM55.0654 349.575C55.0654 351.151 55.2002 352.282 55.4697 352.968C55.7451 353.647 56.2051 353.987 56.8496 353.987C57.4824 353.987 57.9395 353.642 58.2207 352.95C58.502 352.259 58.6426 351.134 58.6426 349.575C58.6426 347.999 58.499 346.868 58.2119 346.183C57.9307 345.491 57.4766 345.146 56.8496 345.146C56.2109 345.146 55.7539 345.491 55.4785 346.183C55.2031 346.868 55.0654 347.999 55.0654 349.575Z" fill="#6A707E"/>
<path d="M37.8659 305H35.1501V297.564L35.1765 296.343L35.2204 295.007C34.7693 295.458 34.4558 295.754 34.28 295.895L32.8034 297.081L31.4939 295.446L35.6335 292.15H37.8659V305ZM50.7064 298.575C50.7064 300.819 50.3373 302.48 49.599 303.559C48.8666 304.637 47.7357 305.176 46.2064 305.176C44.724 305.176 43.6048 304.619 42.849 303.506C42.099 302.393 41.724 300.749 41.724 298.575C41.724 296.308 42.0902 294.638 42.8226 293.565C43.555 292.487 44.683 291.948 46.2064 291.948C47.6888 291.948 48.808 292.511 49.5638 293.636C50.3255 294.761 50.7064 296.407 50.7064 298.575ZM44.4222 298.575C44.4222 300.151 44.557 301.282 44.8265 301.968C45.1019 302.647 45.5619 302.987 46.2064 302.987C46.8392 302.987 47.2962 302.642 47.5775 301.95C47.8587 301.259 47.9994 300.134 47.9994 298.575C47.9994 296.999 47.8558 295.868 47.5687 295.183C47.2875 294.491 46.8334 294.146 46.2064 294.146C45.5677 294.146 45.1107 294.491 44.8353 295.183C44.5599 295.868 44.4222 296.999 44.4222 298.575ZM61.3496 298.575C61.3496 300.819 60.9805 302.48 60.2422 303.559C59.5098 304.637 58.3789 305.176 56.8496 305.176C55.3672 305.176 54.248 304.619 53.4922 303.506C52.7422 302.393 52.3672 300.749 52.3672 298.575C52.3672 296.308 52.7334 294.638 53.4658 293.565C54.1982 292.487 55.3262 291.948 56.8496 291.948C58.332 291.948 59.4512 292.511 60.207 293.636C60.9688 294.761 61.3496 296.407 61.3496 298.575ZM55.0654 298.575C55.0654 300.151 55.2002 301.282 55.4697 301.968C55.7451 302.647 56.2051 302.987 56.8496 302.987C57.4824 302.987 57.9395 302.642 58.2207 301.95C58.502 301.259 58.6426 300.134 58.6426 298.575C58.6426 296.999 58.499 295.868 58.2119 295.183C57.9307 294.491 57.4766 294.146 56.8496 294.146C56.2109 294.146 55.7539 294.491 55.4785 295.183C55.2031 295.868 55.0654 296.999 55.0654 298.575Z" fill="#6A707E"/>
<path d="M40.1335 253H31.1511V251.11L34.3767 247.85C35.3318 246.871 35.9558 246.194 36.2488 245.819C36.5417 245.438 36.7527 245.087 36.8816 244.765C37.0105 244.442 37.0749 244.108 37.0749 243.763C37.0749 243.247 36.9314 242.863 36.6443 242.611C36.363 242.359 35.9851 242.233 35.5105 242.233C35.0124 242.233 34.529 242.348 34.0603 242.576C33.5915 242.805 33.1023 243.13 32.5925 243.552L31.1159 241.803C31.7488 241.264 32.2732 240.883 32.6892 240.66C33.1052 240.438 33.5593 240.268 34.0515 240.15C34.5437 240.027 35.0945 239.966 35.7038 239.966C36.5066 239.966 37.2155 240.112 37.8308 240.405C38.446 240.698 38.9236 241.108 39.2634 241.636C39.6032 242.163 39.7732 242.767 39.7732 243.446C39.7732 244.038 39.6677 244.595 39.4568 245.116C39.2517 245.632 38.9294 246.162 38.49 246.707C38.0564 247.252 37.2888 248.028 36.1872 249.036L34.5349 250.592V250.715H40.1335V253ZM50.7064 246.575C50.7064 248.819 50.3373 250.48 49.599 251.559C48.8666 252.637 47.7357 253.176 46.2064 253.176C44.724 253.176 43.6048 252.619 42.849 251.506C42.099 250.393 41.724 248.749 41.724 246.575C41.724 244.308 42.0902 242.638 42.8226 241.565C43.555 240.487 44.683 239.948 46.2064 239.948C47.6888 239.948 48.808 240.511 49.5638 241.636C50.3255 242.761 50.7064 244.407 50.7064 246.575ZM44.4222 246.575C44.4222 248.151 44.557 249.282 44.8265 249.968C45.1019 250.647 45.5619 250.987 46.2064 250.987C46.8392 250.987 47.2962 250.642 47.5775 249.95C47.8587 249.259 47.9994 248.134 47.9994 246.575C47.9994 244.999 47.8558 243.868 47.5687 243.183C47.2875 242.491 46.8334 242.146 46.2064 242.146C45.5677 242.146 45.1107 242.491 44.8353 243.183C44.5599 243.868 44.4222 244.999 44.4222 246.575ZM61.3496 246.575C61.3496 248.819 60.9805 250.48 60.2422 251.559C59.5098 252.637 58.3789 253.176 56.8496 253.176C55.3672 253.176 54.248 252.619 53.4922 251.506C52.7422 250.393 52.3672 248.749 52.3672 246.575C52.3672 244.308 52.7334 242.638 53.4658 241.565C54.1982 240.487 55.3262 239.948 56.8496 239.948C58.332 239.948 59.4512 240.511 60.207 241.636C60.9688 242.761 61.3496 244.407 61.3496 246.575ZM55.0654 246.575C55.0654 248.151 55.2002 249.282 55.4697 249.968C55.7451 250.647 56.2051 250.987 56.8496 250.987C57.4824 250.987 57.9395 250.642 58.2207 249.95C58.502 249.259 58.6426 248.134 58.6426 246.575C58.6426 244.999 58.499 243.868 58.2119 243.183C57.9307 242.491 57.4766 242.146 56.8496 242.146C56.2109 242.146 55.7539 242.491 55.4785 243.183C55.2031 243.868 55.0654 244.999 55.0654 246.575Z" fill="#6A707E"/>
<path d="M39.6325 192.024C39.6325 192.827 39.3894 193.51 38.903 194.072C38.4167 194.635 37.7341 195.021 36.8552 195.232V195.285C37.8923 195.414 38.6775 195.73 39.2107 196.234C39.7439 196.732 40.0105 197.406 40.0105 198.256C40.0105 199.492 39.5622 200.456 38.6657 201.147C37.7693 201.833 36.489 202.176 34.8249 202.176C33.4304 202.176 32.1941 201.944 31.1159 201.481V199.17C31.614 199.422 32.1618 199.627 32.7595 199.785C33.3571 199.943 33.9489 200.022 34.5349 200.022C35.4314 200.022 36.0935 199.87 36.5212 199.565C36.9489 199.261 37.1628 198.771 37.1628 198.098C37.1628 197.494 36.9167 197.066 36.4245 196.814C35.9323 196.562 35.1472 196.437 34.0691 196.437H33.0935V194.354H34.0866C35.0827 194.354 35.8093 194.225 36.2663 193.967C36.7292 193.703 36.9607 193.255 36.9607 192.622C36.9607 191.649 36.3513 191.163 35.1325 191.163C34.7107 191.163 34.28 191.233 33.8405 191.374C33.407 191.515 32.9236 191.758 32.3904 192.104L31.1335 190.231C32.3054 189.388 33.7029 188.966 35.3259 188.966C36.656 188.966 37.7048 189.235 38.4724 189.774C39.2458 190.313 39.6325 191.063 39.6325 192.024ZM50.7064 195.575C50.7064 197.819 50.3373 199.48 49.599 200.559C48.8666 201.637 47.7357 202.176 46.2064 202.176C44.724 202.176 43.6048 201.619 42.849 200.506C42.099 199.393 41.724 197.749 41.724 195.575C41.724 193.308 42.0902 191.638 42.8226 190.565C43.555 189.487 44.683 188.948 46.2064 188.948C47.6888 188.948 48.808 189.511 49.5638 190.636C50.3255 191.761 50.7064 193.407 50.7064 195.575ZM44.4222 195.575C44.4222 197.151 44.557 198.282 44.8265 198.968C45.1019 199.647 45.5619 199.987 46.2064 199.987C46.8392 199.987 47.2962 199.642 47.5775 198.95C47.8587 198.259 47.9994 197.134 47.9994 195.575C47.9994 193.999 47.8558 192.868 47.5687 192.183C47.2875 191.491 46.8334 191.146 46.2064 191.146C45.5677 191.146 45.1107 191.491 44.8353 192.183C44.5599 192.868 44.4222 193.999 44.4222 195.575ZM61.3496 195.575C61.3496 197.819 60.9805 199.48 60.2422 200.559C59.5098 201.637 58.3789 202.176 56.8496 202.176C55.3672 202.176 54.248 201.619 53.4922 200.506C52.7422 199.393 52.3672 197.749 52.3672 195.575C52.3672 193.308 52.7334 191.638 53.4658 190.565C54.1982 189.487 55.3262 188.948 56.8496 188.948C58.332 188.948 59.4512 189.511 60.207 190.636C60.9688 191.761 61.3496 193.407 61.3496 195.575ZM55.0654 195.575C55.0654 197.151 55.2002 198.282 55.4697 198.968C55.7451 199.647 56.2051 199.987 56.8496 199.987C57.4824 199.987 57.9395 199.642 58.2207 198.95C58.502 198.259 58.6426 197.134 58.6426 195.575C58.6426 193.999 58.499 192.868 58.2119 192.183C57.9307 191.491 57.4766 191.146 56.8496 191.146C56.2109 191.146 55.7539 191.491 55.4785 192.183C55.2031 192.868 55.0654 193.999 55.0654 195.575Z" fill="#6A707E"/>
<path d="M40.4236 147.337H38.8767V150H36.2224V147.337H30.738V145.447L36.3718 137.15H38.8767V145.228H40.4236V147.337ZM36.2224 145.228V143.048C36.2224 142.685 36.237 142.157 36.2663 141.466C36.2956 140.774 36.3191 140.373 36.3366 140.262H36.2663C36.0495 140.742 35.7888 141.211 35.4841 141.668L33.1286 145.228H36.2224ZM50.7064 143.575C50.7064 145.819 50.3373 147.48 49.599 148.559C48.8666 149.637 47.7357 150.176 46.2064 150.176C44.724 150.176 43.6048 149.619 42.849 148.506C42.099 147.393 41.724 145.749 41.724 143.575C41.724 141.308 42.0902 139.638 42.8226 138.565C43.555 137.487 44.683 136.948 46.2064 136.948C47.6888 136.948 48.808 137.511 49.5638 138.636C50.3255 139.761 50.7064 141.407 50.7064 143.575ZM44.4222 143.575C44.4222 145.151 44.557 146.282 44.8265 146.968C45.1019 147.647 45.5619 147.987 46.2064 147.987C46.8392 147.987 47.2962 147.642 47.5775 146.95C47.8587 146.259 47.9994 145.134 47.9994 143.575C47.9994 141.999 47.8558 140.868 47.5687 140.183C47.2875 139.491 46.8334 139.146 46.2064 139.146C45.5677 139.146 45.1107 139.491 44.8353 140.183C44.5599 140.868 44.4222 141.999 44.4222 143.575ZM61.3496 143.575C61.3496 145.819 60.9805 147.48 60.2422 148.559C59.5098 149.637 58.3789 150.176 56.8496 150.176C55.3672 150.176 54.248 149.619 53.4922 148.506C52.7422 147.393 52.3672 145.749 52.3672 143.575C52.3672 141.308 52.7334 139.638 53.4658 138.565C54.1982 137.487 55.3262 136.948 56.8496 136.948C58.332 136.948 59.4512 137.511 60.207 138.636C60.9688 139.761 61.3496 141.407 61.3496 143.575ZM55.0654 143.575C55.0654 145.151 55.2002 146.282 55.4697 146.968C55.7451 147.647 56.2051 147.987 56.8496 147.987C57.4824 147.987 57.9395 147.642 58.2207 146.95C58.502 146.259 58.6426 145.134 58.6426 143.575C58.6426 141.999 58.499 140.868 58.2119 140.183C57.9307 139.491 57.4766 139.146 56.8496 139.146C56.2109 139.146 55.7539 139.491 55.4785 140.183C55.2031 140.868 55.0654 141.999 55.0654 143.575Z" fill="#6A707E"/>
<path d="M35.8269 90.791C37.0691 90.791 38.0564 91.1396 38.7888 91.8369C39.5271 92.5342 39.8962 93.4893 39.8962 94.7021C39.8962 96.1377 39.4538 97.2422 38.5691 98.0156C37.6843 98.7891 36.4187 99.1758 34.7722 99.1758C33.3425 99.1758 32.1882 98.9443 31.3093 98.4814V96.1348C31.7722 96.3809 32.3113 96.583 32.9265 96.7412C33.5417 96.8936 34.1247 96.9697 34.6755 96.9697C36.3337 96.9697 37.1628 96.29 37.1628 94.9307C37.1628 93.6357 36.3044 92.9883 34.5876 92.9883C34.2771 92.9883 33.9343 93.0205 33.5593 93.085C33.1843 93.1436 32.8796 93.208 32.6452 93.2783L31.5642 92.6982L32.0476 86.1504H39.0173V88.4531H34.4294L34.1921 90.9756L34.4997 90.9141C34.8571 90.832 35.2995 90.791 35.8269 90.791ZM50.7064 92.5752C50.7064 94.8193 50.3373 96.4805 49.599 97.5586C48.8666 98.6367 47.7357 99.1758 46.2064 99.1758C44.724 99.1758 43.6048 98.6191 42.849 97.5059C42.099 96.3926 41.724 94.749 41.724 92.5752C41.724 90.3076 42.0902 88.6377 42.8226 87.5654C43.555 86.4873 44.683 85.9482 46.2064 85.9482C47.6888 85.9482 48.808 86.5107 49.5638 87.6357C50.3255 88.7607 50.7064 90.4072 50.7064 92.5752ZM44.4222 92.5752C44.4222 94.1514 44.557 95.2822 44.8265 95.9678C45.1019 96.6475 45.5619 96.9873 46.2064 96.9873C46.8392 96.9873 47.2962 96.6416 47.5775 95.9502C47.8587 95.2588 47.9994 94.1338 47.9994 92.5752C47.9994 90.999 47.8558 89.8682 47.5687 89.1826C47.2875 88.4912 46.8334 88.1455 46.2064 88.1455C45.5677 88.1455 45.1107 88.4912 44.8353 89.1826C44.5599 89.8682 44.4222 90.999 44.4222 92.5752ZM61.3496 92.5752C61.3496 94.8193 60.9805 96.4805 60.2422 97.5586C59.5098 98.6367 58.3789 99.1758 56.8496 99.1758C55.3672 99.1758 54.248 98.6191 53.4922 97.5059C52.7422 96.3926 52.3672 94.749 52.3672 92.5752C52.3672 90.3076 52.7334 88.6377 53.4658 87.5654C54.1982 86.4873 55.3262 85.9482 56.8496 85.9482C58.332 85.9482 59.4512 86.5107 60.207 87.6357C60.9688 88.7607 61.3496 90.4072 61.3496 92.5752ZM55.0654 92.5752C55.0654 94.1514 55.2002 95.2822 55.4697 95.9678C55.7451 96.6475 56.2051 96.9873 56.8496 96.9873C57.4824 96.9873 57.9395 96.6416 58.2207 95.9502C58.502 95.2588 58.6426 94.1338 58.6426 92.5752C58.6426 90.999 58.499 89.8682 58.2119 89.1826C57.9307 88.4912 57.4766 88.1455 56.8496 88.1455C56.2109 88.1455 55.7539 88.4912 55.4785 89.1826C55.2031 89.8682 55.0654 90.999 55.0654 92.5752Z" fill="#6A707E"/>
<path d="M350.185 416L349.253 412.941H344.569L343.637 416H340.701L345.237 403.098H348.568L353.12 416H350.185ZM348.603 410.656C347.741 407.885 347.255 406.317 347.144 405.954C347.038 405.591 346.962 405.304 346.915 405.093C346.722 405.843 346.168 407.697 345.254 410.656H348.603ZM360.292 416.176C359.138 416.176 358.232 415.757 357.576 414.919H357.435C357.529 415.739 357.576 416.214 357.576 416.343V420.324H354.895V406.174H357.075L357.453 407.448H357.576C358.203 406.476 359.132 405.989 360.362 405.989C361.522 405.989 362.431 406.438 363.087 407.334C363.743 408.23 364.071 409.476 364.071 411.069C364.071 412.118 363.916 413.029 363.605 413.803C363.301 414.576 362.864 415.165 362.296 415.569C361.727 415.974 361.059 416.176 360.292 416.176ZM359.501 408.134C358.839 408.134 358.355 408.339 358.051 408.749C357.746 409.153 357.588 409.824 357.576 410.762V411.052C357.576 412.106 357.731 412.862 358.042 413.319C358.358 413.776 358.856 414.005 359.536 414.005C360.737 414.005 361.338 413.015 361.338 411.034C361.338 410.067 361.188 409.344 360.889 408.863C360.597 408.377 360.134 408.134 359.501 408.134ZM372.042 416.176C370.888 416.176 369.983 415.757 369.327 414.919H369.186C369.28 415.739 369.327 416.214 369.327 416.343V420.324H366.646V406.174H368.826L369.204 407.448H369.327C369.954 406.476 370.882 405.989 372.113 405.989C373.273 405.989 374.181 406.438 374.837 407.334C375.494 408.23 375.822 409.476 375.822 411.069C375.822 412.118 375.666 413.029 375.356 413.803C375.051 414.576 374.615 415.165 374.046 415.569C373.478 415.974 372.81 416.176 372.042 416.176ZM371.251 408.134C370.589 408.134 370.106 408.339 369.801 408.749C369.497 409.153 369.338 409.824 369.327 410.762V411.052C369.327 412.106 369.482 412.862 369.792 413.319C370.109 413.776 370.607 414.005 371.287 414.005C372.488 414.005 373.088 413.015 373.088 411.034C373.088 410.067 372.939 409.344 372.64 408.863C372.347 408.377 371.884 408.134 371.251 408.134ZM381.077 416H378.397V402.324H381.077V416ZM384.144 403.634C384.144 402.761 384.631 402.324 385.603 402.324C386.576 402.324 387.062 402.761 387.062 403.634C387.062 404.05 386.939 404.375 386.693 404.609C386.453 404.838 386.09 404.952 385.603 404.952C384.631 404.952 384.144 404.513 384.144 403.634ZM386.939 416H384.259V406.174H386.939V416ZM394.111 416.176C391.052 416.176 389.523 414.497 389.523 411.14C389.523 409.47 389.939 408.195 390.771 407.316C391.603 406.432 392.795 405.989 394.348 405.989C395.485 405.989 396.504 406.212 397.407 406.657L396.616 408.731C396.194 408.562 395.801 408.424 395.438 408.318C395.075 408.207 394.711 408.151 394.348 408.151C392.954 408.151 392.256 409.142 392.256 411.122C392.256 413.044 392.954 414.005 394.348 414.005C394.864 414.005 395.341 413.938 395.781 413.803C396.22 413.662 396.66 413.445 397.099 413.152V415.446C396.665 415.722 396.226 415.912 395.781 416.018C395.341 416.123 394.785 416.176 394.111 416.176ZM405.984 416L405.466 414.664H405.396C404.944 415.232 404.479 415.628 403.998 415.851C403.523 416.067 402.902 416.176 402.135 416.176C401.191 416.176 400.447 415.906 399.902 415.367C399.363 414.828 399.094 414.061 399.094 413.064C399.094 412.021 399.457 411.254 400.184 410.762C400.916 410.264 402.018 409.988 403.488 409.936L405.193 409.883V409.452C405.193 408.456 404.684 407.958 403.664 407.958C402.879 407.958 401.956 408.195 400.896 408.67L400.008 406.859C401.139 406.268 402.393 405.972 403.77 405.972C405.088 405.972 406.099 406.259 406.802 406.833C407.505 407.407 407.856 408.28 407.856 409.452V416H405.984ZM405.193 411.447L404.156 411.482C403.377 411.506 402.797 411.646 402.416 411.904C402.035 412.162 401.845 412.555 401.845 413.082C401.845 413.838 402.278 414.216 403.146 414.216C403.767 414.216 404.262 414.037 404.631 413.68C405.006 413.322 405.193 412.848 405.193 412.256V411.447ZM420.055 416H417.375V410.261C417.375 409.552 417.249 409.021 416.997 408.67C416.745 408.312 416.343 408.134 415.793 408.134C415.043 408.134 414.501 408.386 414.167 408.89C413.833 409.388 413.666 410.217 413.666 411.377V416H410.985V406.174H413.033L413.393 407.431H413.543C413.841 406.956 414.252 406.599 414.773 406.358C415.3 406.112 415.898 405.989 416.566 405.989C417.709 405.989 418.576 406.3 419.168 406.921C419.759 407.536 420.055 408.427 420.055 409.593V416ZM427.315 414.04C427.784 414.04 428.346 413.938 429.002 413.732V415.728C428.334 416.026 427.514 416.176 426.541 416.176C425.469 416.176 424.687 415.906 424.195 415.367C423.708 414.822 423.465 414.008 423.465 412.924V408.187H422.182V407.053L423.659 406.156L424.432 404.082H426.146V406.174H428.897V408.187H426.146V412.924C426.146 413.305 426.251 413.586 426.462 413.768C426.679 413.949 426.963 414.04 427.315 414.04ZM438.213 413.082C438.213 414.09 437.861 414.857 437.158 415.385C436.461 415.912 435.415 416.176 434.02 416.176C433.306 416.176 432.696 416.126 432.192 416.026C431.688 415.933 431.217 415.792 430.777 415.604V413.39C431.275 413.624 431.835 413.82 432.456 413.979C433.083 414.137 433.634 414.216 434.108 414.216C435.081 414.216 435.567 413.935 435.567 413.372C435.567 413.161 435.503 412.991 435.374 412.862C435.245 412.728 435.022 412.578 434.706 412.414C434.39 412.244 433.968 412.048 433.44 411.825C432.685 411.509 432.128 411.216 431.77 410.946C431.419 410.677 431.161 410.369 430.997 410.023C430.839 409.672 430.76 409.241 430.76 408.731C430.76 407.858 431.097 407.185 431.77 406.71C432.45 406.229 433.411 405.989 434.653 405.989C435.837 405.989 436.988 406.247 438.107 406.763L437.299 408.696C436.807 408.485 436.347 408.312 435.919 408.178C435.491 408.043 435.055 407.976 434.609 407.976C433.818 407.976 433.423 408.189 433.423 408.617C433.423 408.857 433.549 409.065 433.801 409.241C434.059 409.417 434.618 409.678 435.479 410.023C436.247 410.334 436.81 410.624 437.167 410.894C437.524 411.163 437.788 411.474 437.958 411.825C438.128 412.177 438.213 412.596 438.213 413.082ZM451.642 403.15L446.852 416H444.417L449.207 403.15H451.642ZM469.404 409.452C469.404 411.567 468.8 413.188 467.593 414.312C466.392 415.438 464.655 416 462.381 416H458.743V403.15H462.777C464.875 403.15 466.503 403.704 467.664 404.812C468.824 405.919 469.404 407.466 469.404 409.452ZM466.574 409.522C466.574 406.763 465.355 405.383 462.918 405.383H461.467V413.75H462.636C465.261 413.75 466.574 412.341 466.574 409.522ZM478.456 416L477.938 414.664H477.867C477.416 415.232 476.95 415.628 476.47 415.851C475.995 416.067 475.374 416.176 474.607 416.176C473.663 416.176 472.919 415.906 472.374 415.367C471.835 414.828 471.566 414.061 471.566 413.064C471.566 412.021 471.929 411.254 472.655 410.762C473.388 410.264 474.489 409.988 475.96 409.936L477.665 409.883V409.452C477.665 408.456 477.155 407.958 476.136 407.958C475.351 407.958 474.428 408.195 473.367 408.67L472.48 406.859C473.611 406.268 474.864 405.972 476.241 405.972C477.56 405.972 478.57 406.259 479.274 406.833C479.977 407.407 480.328 408.28 480.328 409.452V416H478.456ZM477.665 411.447L476.628 411.482C475.849 411.506 475.269 411.646 474.888 411.904C474.507 412.162 474.317 412.555 474.317 413.082C474.317 413.838 474.75 414.216 475.617 414.216C476.238 414.216 476.734 414.037 477.103 413.68C477.478 413.322 477.665 412.848 477.665 412.256V411.447ZM482.051 406.174H484.986L486.841 411.702C486.999 412.183 487.107 412.751 487.166 413.407H487.219C487.283 412.804 487.409 412.235 487.596 411.702L489.416 406.174H492.29L488.133 417.257C487.752 418.282 487.207 419.05 486.498 419.56C485.795 420.069 484.971 420.324 484.028 420.324C483.565 420.324 483.111 420.274 482.666 420.175V418.048C482.988 418.124 483.34 418.162 483.721 418.162C484.195 418.162 484.608 418.016 484.96 417.723C485.317 417.436 485.596 416.999 485.795 416.413L485.953 415.93L482.051 406.174Z" fill="#6A707E"/>
<g filter="url(#filter0_d)">
<path fill-rule="evenodd" clip-rule="evenodd" d="M206 19.9999H452C453.657 19.9999 455 21.343 455 23V117C455 118.657 453.657 120 452 120C452 120 397.5 120 336 120C331.157 120 326.313 134 321.5 134C317.642 134 313.804 120 310 120C258.288 120 206 120 206 120C204.343 120 203 118.657 203 117V23C203 21.343 204.343 19.9999 206 19.9999Z" fill="white"/>
</g>
<path d="M226.582 67.5H224.348V56.792H230.485V58.6523H226.582V61.4136H230.214V63.2666H226.582V67.5ZM237.275 59.1577C237.577 59.1577 237.829 59.1797 238.029 59.2236L237.861 61.3184C237.68 61.2695 237.46 61.2451 237.201 61.2451C236.488 61.2451 235.932 61.4282 235.531 61.7944C235.136 62.1606 234.938 62.6733 234.938 63.3325V67.5H232.704V59.3115H234.396L234.726 60.6885H234.836C235.09 60.2295 235.431 59.8608 235.861 59.5825C236.296 59.2993 236.767 59.1577 237.275 59.1577ZM239.721 57.1948C239.721 56.4673 240.126 56.1035 240.936 56.1035C241.747 56.1035 242.152 56.4673 242.152 57.1948C242.152 57.5415 242.05 57.8125 241.845 58.0078C241.644 58.1982 241.342 58.2935 240.936 58.2935C240.126 58.2935 239.721 57.9272 239.721 57.1948ZM242.05 67.5H239.816V59.3115H242.05V67.5ZM247.294 67.6465C246.332 67.6465 245.575 67.2729 245.023 66.5259C244.476 65.7788 244.203 64.7437 244.203 63.4204C244.203 62.0776 244.481 61.0327 245.038 60.2856C245.599 59.5337 246.371 59.1577 247.352 59.1577C248.382 59.1577 249.169 59.5581 249.711 60.3589H249.784C249.671 59.7485 249.615 59.2041 249.615 58.7256V56.1035H251.857V67.5H250.143L249.711 66.438H249.615C249.108 67.2437 248.334 67.6465 247.294 67.6465ZM248.077 65.8667C248.649 65.8667 249.066 65.7007 249.33 65.3687C249.598 65.0366 249.745 64.4727 249.769 63.6768V63.4351C249.769 62.5562 249.632 61.9263 249.359 61.5454C249.09 61.1646 248.651 60.9741 248.041 60.9741C247.543 60.9741 247.154 61.1865 246.876 61.6113C246.603 62.0312 246.466 62.644 246.466 63.4497C246.466 64.2554 246.605 64.8608 246.883 65.2661C247.162 65.6665 247.56 65.8667 248.077 65.8667ZM259.693 67.5L259.261 66.3867H259.202C258.826 66.8604 258.438 67.1899 258.038 67.3755C257.642 67.5562 257.125 67.6465 256.485 67.6465C255.699 67.6465 255.079 67.4219 254.625 66.9727C254.176 66.5234 253.951 65.8838 253.951 65.0537C253.951 64.1846 254.254 63.5449 254.859 63.1348C255.47 62.7197 256.388 62.4902 257.613 62.4463L259.034 62.4023V62.0435C259.034 61.2134 258.609 60.7983 257.76 60.7983C257.105 60.7983 256.336 60.9961 255.452 61.3916L254.713 59.8828C255.655 59.3896 256.7 59.1431 257.847 59.1431C258.946 59.1431 259.788 59.3823 260.374 59.8608C260.96 60.3394 261.253 61.0669 261.253 62.0435V67.5H259.693ZM259.034 63.7061L258.17 63.7354C257.52 63.7549 257.037 63.8721 256.72 64.0869C256.402 64.3018 256.243 64.6289 256.243 65.0684C256.243 65.6982 256.605 66.0132 257.327 66.0132C257.845 66.0132 258.258 65.8643 258.565 65.5664C258.878 65.2686 259.034 64.873 259.034 64.3799V63.7061ZM262.688 59.3115H265.135L266.68 63.9185C266.812 64.3188 266.902 64.7925 266.951 65.3394H266.995C267.049 64.8364 267.154 64.3628 267.31 63.9185L268.826 59.3115H271.221L267.757 68.5474C267.439 69.4019 266.985 70.0415 266.395 70.4663C265.809 70.8911 265.123 71.1035 264.336 71.1035C263.951 71.1035 263.572 71.062 263.201 70.979V69.2065C263.47 69.27 263.763 69.3018 264.08 69.3018C264.476 69.3018 264.82 69.1797 265.113 68.9355C265.411 68.6963 265.643 68.3325 265.809 67.8442L265.94 67.4414L262.688 59.3115ZM274.89 65.9253C274.636 66.9116 274.207 68.0811 273.601 69.4336H271.99C272.307 68.1348 272.554 66.9092 272.73 65.7568H274.78L274.89 65.9253ZM288.403 62.146C288.403 64.0161 288.095 65.4004 287.48 66.2988C286.87 67.1973 285.927 67.6465 284.653 67.6465C283.418 67.6465 282.485 67.1826 281.855 66.2549C281.23 65.3271 280.918 63.9575 280.918 62.146C280.918 60.2563 281.223 58.8647 281.833 57.9712C282.443 57.0728 283.383 56.6235 284.653 56.6235C285.888 56.6235 286.821 57.0923 287.451 58.0298C288.086 58.9673 288.403 60.3394 288.403 62.146ZM283.166 62.146C283.166 63.4595 283.278 64.4019 283.503 64.9731C283.733 65.5396 284.116 65.8228 284.653 65.8228C285.18 65.8228 285.561 65.5347 285.796 64.9585C286.03 64.3823 286.147 63.4448 286.147 62.146C286.147 60.8325 286.027 59.8901 285.788 59.3188C285.554 58.7427 285.175 58.4546 284.653 58.4546C284.121 58.4546 283.74 58.7427 283.51 59.3188C283.281 59.8901 283.166 60.8325 283.166 62.146ZM297.573 65.2808H296.283V67.5H294.072V65.2808H289.501V63.7061L294.196 56.792H296.283V63.5229H297.573V65.2808ZM294.072 63.5229V61.7065C294.072 61.4038 294.084 60.9644 294.108 60.3882C294.133 59.812 294.152 59.4775 294.167 59.3848H294.108C293.928 59.7852 293.71 60.1758 293.456 60.5566L291.493 63.5229H294.072ZM302.538 70.6494C302.025 70.6494 301.578 70.5957 301.197 70.4883V68.5986C301.588 68.6963 301.945 68.7451 302.267 68.7451C302.765 68.7451 303.121 68.5889 303.336 68.2764C303.551 67.9688 303.658 67.4854 303.658 66.8262V56.792H305.929V66.8115C305.929 68.0615 305.643 69.0137 305.072 69.668C304.501 70.3223 303.656 70.6494 302.538 70.6494ZM314.549 67.5L314.249 66.4526H314.132C313.892 66.8335 313.553 67.1289 313.114 67.3389C312.674 67.5439 312.174 67.6465 311.612 67.6465C310.65 67.6465 309.925 67.3901 309.437 66.8774C308.949 66.3599 308.704 65.6177 308.704 64.6509V59.3115H310.938V64.0942C310.938 64.6851 311.043 65.1294 311.253 65.4272C311.463 65.7202 311.798 65.8667 312.257 65.8667C312.882 65.8667 313.333 65.6592 313.612 65.2441C313.89 64.8242 314.029 64.1309 314.029 63.1641V59.3115H316.263V67.5H314.549ZM326.465 67.5H324.232V62.7173C324.232 62.1265 324.127 61.6846 323.917 61.3916C323.707 61.0938 323.372 60.9448 322.913 60.9448C322.288 60.9448 321.837 61.1548 321.558 61.5747C321.28 61.9897 321.141 62.6807 321.141 63.6475V67.5H318.907V59.3115H320.613L320.914 60.3589H321.038C321.287 59.9634 321.629 59.6655 322.064 59.4653C322.503 59.2603 323.001 59.1577 323.558 59.1577C324.51 59.1577 325.233 59.4165 325.726 59.9341C326.219 60.4468 326.465 61.189 326.465 62.1606V67.5ZM332.456 60.7471C331.983 60.7471 331.612 60.8984 331.343 61.2012C331.075 61.499 330.921 61.9238 330.882 62.4756H334.016C334.007 61.9238 333.863 61.499 333.584 61.2012C333.306 60.8984 332.93 60.7471 332.456 60.7471ZM332.771 67.6465C331.453 67.6465 330.423 67.2827 329.68 66.5552C328.938 65.8276 328.567 64.7974 328.567 63.4644C328.567 62.0923 328.909 61.0327 329.593 60.2856C330.281 59.5337 331.231 59.1577 332.442 59.1577C333.599 59.1577 334.5 59.4873 335.144 60.1465C335.789 60.8057 336.111 61.7163 336.111 62.8784V63.9624H330.83C330.855 64.5972 331.043 65.0928 331.394 65.4492C331.746 65.8057 332.239 65.9839 332.874 65.9839C333.367 65.9839 333.833 65.9326 334.273 65.8301C334.712 65.7275 335.171 65.564 335.65 65.3394V67.0679C335.259 67.2632 334.842 67.4072 334.397 67.5C333.953 67.5977 333.411 67.6465 332.771 67.6465ZM349.338 67.5H341.853V65.9253L344.541 63.208C345.337 62.3926 345.857 61.8286 346.101 61.5161C346.345 61.1987 346.521 60.9058 346.628 60.6372C346.736 60.3687 346.789 60.0903 346.789 59.8022C346.789 59.3726 346.67 59.0527 346.43 58.8428C346.196 58.6328 345.881 58.5278 345.486 58.5278C345.071 58.5278 344.668 58.623 344.277 58.8135C343.886 59.0039 343.479 59.2749 343.054 59.6265L341.823 58.1689C342.351 57.7197 342.788 57.4023 343.134 57.2168C343.481 57.0312 343.86 56.8896 344.27 56.792C344.68 56.6895 345.139 56.6382 345.647 56.6382C346.316 56.6382 346.906 56.7603 347.419 57.0044C347.932 57.2485 348.33 57.5903 348.613 58.0298C348.896 58.4692 349.038 58.9722 349.038 59.5386C349.038 60.0317 348.95 60.4956 348.774 60.9302C348.603 61.3599 348.335 61.8018 347.968 62.2559C347.607 62.71 346.967 63.3569 346.05 64.1968L344.673 65.4932V65.5957H349.338V67.5ZM358.149 62.146C358.149 64.0161 357.841 65.4004 357.226 66.2988C356.616 67.1973 355.673 67.6465 354.399 67.6465C353.163 67.6465 352.231 67.1826 351.601 66.2549C350.976 65.3271 350.663 63.9575 350.663 62.146C350.663 60.2563 350.969 58.8647 351.579 57.9712C352.189 57.0728 353.129 56.6235 354.399 56.6235C355.634 56.6235 356.567 57.0923 357.197 58.0298C357.831 58.9673 358.149 60.3394 358.149 62.146ZM352.912 62.146C352.912 63.4595 353.024 64.4019 353.249 64.9731C353.478 65.5396 353.862 65.8228 354.399 65.8228C354.926 65.8228 355.307 65.5347 355.541 64.9585C355.776 64.3823 355.893 63.4448 355.893 62.146C355.893 60.8325 355.773 59.8901 355.534 59.3188C355.3 58.7427 354.921 58.4546 354.399 58.4546C353.867 58.4546 353.486 58.7427 353.256 59.3188C353.027 59.8901 352.912 60.8325 352.912 62.146ZM365.187 67.5H362.924V61.3037L362.946 60.2856L362.983 59.1724C362.607 59.5483 362.345 59.7949 362.199 59.9121L360.968 60.9009L359.877 59.5386L363.327 56.792H365.187V67.5ZM372.152 56.6528C373.178 56.6528 374.003 56.8872 374.628 57.356C375.258 57.8198 375.573 58.4473 375.573 59.2383C375.573 59.7852 375.421 60.2734 375.118 60.7031C374.816 61.1279 374.327 61.5088 373.654 61.8457C374.454 62.2754 375.028 62.7246 375.375 63.1934C375.726 63.6572 375.902 64.1675 375.902 64.7241C375.902 65.603 375.558 66.311 374.869 66.8481C374.181 67.3804 373.275 67.6465 372.152 67.6465C370.98 67.6465 370.06 67.3975 369.391 66.8994C368.722 66.4014 368.387 65.6958 368.387 64.7827C368.387 64.1724 368.549 63.6304 368.871 63.1567C369.198 62.6831 369.721 62.2656 370.438 61.9043C369.828 61.5186 369.388 61.106 369.12 60.6665C368.851 60.2271 368.717 59.7461 368.717 59.2236C368.717 58.457 369.034 57.8369 369.669 57.3633C370.304 56.8896 371.132 56.6528 372.152 56.6528ZM370.482 64.6509C370.482 65.0708 370.629 65.3979 370.922 65.6323C371.215 65.8667 371.615 65.9839 372.123 65.9839C372.684 65.9839 373.104 65.8643 373.383 65.625C373.661 65.3809 373.8 65.061 373.8 64.6655C373.8 64.3384 373.661 64.0332 373.383 63.75C373.109 63.4619 372.662 63.1567 372.042 62.8345C371.002 63.313 370.482 63.9185 370.482 64.6509ZM372.137 58.3081C371.752 58.3081 371.439 58.4082 371.2 58.6084C370.966 58.8037 370.848 59.0674 370.848 59.3994C370.848 59.6924 370.941 59.9561 371.127 60.1904C371.317 60.4199 371.659 60.6567 372.152 60.9009C372.631 60.6763 372.965 60.4468 373.156 60.2124C373.346 59.978 373.441 59.707 373.441 59.3994C373.441 59.0625 373.319 58.7964 373.075 58.6011C372.831 58.4058 372.518 58.3081 372.137 58.3081Z" fill="#6A707E"/>
<path d="M229.668 81.187C229.668 81.856 229.466 82.4248 229.061 82.8936C228.655 83.3623 228.086 83.6846 227.354 83.8604V83.9043C228.218 84.0117 228.873 84.2754 229.317 84.6953C229.761 85.1104 229.983 85.6719 229.983 86.3799C229.983 87.4102 229.61 88.2134 228.863 88.7896C228.116 89.3608 227.049 89.6465 225.662 89.6465C224.5 89.6465 223.47 89.4536 222.571 89.0679V87.1416C222.986 87.3516 223.443 87.5225 223.941 87.6543C224.439 87.7861 224.932 87.8521 225.42 87.8521C226.167 87.8521 226.719 87.7251 227.076 87.4712C227.432 87.2173 227.61 86.8096 227.61 86.248C227.61 85.7451 227.405 85.3887 226.995 85.1787C226.585 84.9688 225.931 84.8638 225.032 84.8638H224.219V83.1279H225.047C225.877 83.1279 226.482 83.0205 226.863 82.8057C227.249 82.5859 227.442 82.2124 227.442 81.6851C227.442 80.8745 226.934 80.4692 225.918 80.4692C225.567 80.4692 225.208 80.5278 224.842 80.645C224.48 80.7622 224.078 80.9648 223.633 81.2529L222.586 79.6929C223.562 78.9897 224.727 78.6382 226.08 78.6382C227.188 78.6382 228.062 78.8628 228.702 79.312C229.346 79.7612 229.668 80.3862 229.668 81.187ZM235.161 78.6528C236.187 78.6528 237.012 78.8872 237.637 79.356C238.267 79.8198 238.582 80.4473 238.582 81.2383C238.582 81.7852 238.43 82.2734 238.128 82.7031C237.825 83.1279 237.337 83.5088 236.663 83.8457C237.464 84.2754 238.037 84.7246 238.384 85.1934C238.736 85.6572 238.911 86.1675 238.911 86.7241C238.911 87.603 238.567 88.311 237.879 88.8481C237.19 89.3804 236.284 89.6465 235.161 89.6465C233.989 89.6465 233.069 89.3975 232.4 88.8994C231.731 88.4014 231.397 87.6958 231.397 86.7827C231.397 86.1724 231.558 85.6304 231.88 85.1567C232.207 84.6831 232.73 84.2656 233.447 83.9043C232.837 83.5186 232.398 83.106 232.129 82.6665C231.861 82.2271 231.726 81.7461 231.726 81.2236C231.726 80.457 232.044 79.8369 232.678 79.3633C233.313 78.8896 234.141 78.6528 235.161 78.6528ZM233.491 86.6509C233.491 87.0708 233.638 87.3979 233.931 87.6323C234.224 87.8667 234.624 87.9839 235.132 87.9839C235.694 87.9839 236.113 87.8643 236.392 87.625C236.67 87.3809 236.809 87.061 236.809 86.6655C236.809 86.3384 236.67 86.0332 236.392 85.75C236.118 85.4619 235.672 85.1567 235.051 84.8345C234.011 85.313 233.491 85.9185 233.491 86.6509ZM235.147 80.3081C234.761 80.3081 234.448 80.4082 234.209 80.6084C233.975 80.8037 233.858 81.0674 233.858 81.3994C233.858 81.6924 233.95 81.9561 234.136 82.1904C234.326 82.4199 234.668 82.6567 235.161 82.9009C235.64 82.6763 235.974 82.4468 236.165 82.2124C236.355 81.978 236.45 81.707 236.45 81.3994C236.45 81.0625 236.328 80.7964 236.084 80.6011C235.84 80.4058 235.528 80.3081 235.147 80.3081ZM241.401 89.5L245.422 80.7109H240.142V78.8066H247.825V80.2275L243.774 89.5H241.401ZM260.707 89.5L259.931 86.9512H256.027L255.251 89.5H252.804L256.584 78.748H259.36L263.154 89.5H260.707ZM259.389 85.0469C258.671 82.7373 258.266 81.4312 258.173 81.1284C258.085 80.8257 258.022 80.5864 257.983 80.4106C257.822 81.0356 257.36 82.5811 256.598 85.0469H259.389ZM269.13 89.6465C268.168 89.6465 267.414 89.2974 266.867 88.5991H266.75C266.828 89.2827 266.867 89.6782 266.867 89.7856V93.1035H264.633V81.3115H266.449L266.764 82.3735H266.867C267.389 81.563 268.163 81.1577 269.188 81.1577C270.155 81.1577 270.912 81.5312 271.459 82.2783C272.006 83.0254 272.279 84.063 272.279 85.3911C272.279 86.2651 272.15 87.0244 271.891 87.6689C271.637 88.3135 271.273 88.8042 270.8 89.1411C270.326 89.478 269.77 89.6465 269.13 89.6465ZM268.471 82.9448C267.919 82.9448 267.516 83.1157 267.262 83.4575C267.008 83.7944 266.876 84.3535 266.867 85.1348V85.3765C266.867 86.2554 266.996 86.8853 267.255 87.2661C267.519 87.647 267.934 87.8374 268.5 87.8374C269.501 87.8374 270.001 87.0122 270.001 85.3618C270.001 84.5562 269.877 83.9531 269.628 83.5527C269.384 83.1475 268.998 82.9448 268.471 82.9448ZM278.922 89.6465C277.96 89.6465 277.206 89.2974 276.659 88.5991H276.542C276.62 89.2827 276.659 89.6782 276.659 89.7856V93.1035H274.425V81.3115H276.241L276.556 82.3735H276.659C277.181 81.563 277.955 81.1577 278.981 81.1577C279.947 81.1577 280.704 81.5312 281.251 82.2783C281.798 83.0254 282.071 84.063 282.071 85.3911C282.071 86.2651 281.942 87.0244 281.683 87.6689C281.429 88.3135 281.066 88.8042 280.592 89.1411C280.118 89.478 279.562 89.6465 278.922 89.6465ZM278.263 82.9448C277.711 82.9448 277.308 83.1157 277.054 83.4575C276.8 83.7944 276.669 84.3535 276.659 85.1348V85.3765C276.659 86.2554 276.788 86.8853 277.047 87.2661C277.311 87.647 277.726 87.8374 278.292 87.8374C279.293 87.8374 279.794 87.0122 279.794 85.3618C279.794 84.5562 279.669 83.9531 279.42 83.5527C279.176 83.1475 278.79 82.9448 278.263 82.9448ZM286.451 89.5H284.217V78.1035H286.451V89.5ZM289.007 79.1948C289.007 78.4673 289.412 78.1035 290.223 78.1035C291.033 78.1035 291.439 78.4673 291.439 79.1948C291.439 79.5415 291.336 79.8125 291.131 80.0078C290.931 80.1982 290.628 80.2935 290.223 80.2935C289.412 80.2935 289.007 79.9272 289.007 79.1948ZM291.336 89.5H289.102V81.3115H291.336V89.5ZM297.312 89.6465C294.763 89.6465 293.489 88.2476 293.489 85.4497C293.489 84.0581 293.836 82.9961 294.529 82.2637C295.222 81.5264 296.216 81.1577 297.51 81.1577C298.457 81.1577 299.307 81.3433 300.059 81.7144L299.4 83.4429C299.048 83.3013 298.721 83.1865 298.418 83.0986C298.116 83.0059 297.813 82.9595 297.51 82.9595C296.348 82.9595 295.767 83.7847 295.767 85.4351C295.767 87.0366 296.348 87.8374 297.51 87.8374C297.94 87.8374 298.338 87.7812 298.704 87.6689C299.07 87.5518 299.436 87.3711 299.803 87.127V89.0386C299.441 89.2681 299.075 89.4268 298.704 89.5146C298.338 89.6025 297.874 89.6465 297.312 89.6465ZM307.207 89.5L306.775 88.3867H306.716C306.34 88.8604 305.952 89.1899 305.552 89.3755C305.156 89.5562 304.639 89.6465 303.999 89.6465C303.213 89.6465 302.593 89.4219 302.139 88.9727C301.689 88.5234 301.465 87.8838 301.465 87.0537C301.465 86.1846 301.768 85.5449 302.373 85.1348C302.983 84.7197 303.901 84.4902 305.127 84.4463L306.548 84.4023V84.0435C306.548 83.2134 306.123 82.7983 305.273 82.7983C304.619 82.7983 303.85 82.9961 302.966 83.3916L302.227 81.8828C303.169 81.3896 304.214 81.1431 305.361 81.1431C306.46 81.1431 307.302 81.3823 307.888 81.8608C308.474 82.3394 308.767 83.0669 308.767 84.0435V89.5H307.207ZM306.548 85.7061L305.684 85.7354C305.034 85.7549 304.551 85.8721 304.233 86.0869C303.916 86.3018 303.757 86.6289 303.757 87.0684C303.757 87.6982 304.119 88.0132 304.841 88.0132C305.359 88.0132 305.771 87.8643 306.079 87.5664C306.392 87.2686 306.548 86.873 306.548 86.3799V85.7061ZM318.933 89.5H316.699V84.7173C316.699 84.1265 316.594 83.6846 316.384 83.3916C316.174 83.0938 315.84 82.9448 315.381 82.9448C314.756 82.9448 314.304 83.1548 314.026 83.5747C313.747 83.9897 313.608 84.6807 313.608 85.6475V89.5H311.374V81.3115H313.081L313.381 82.3589H313.506C313.755 81.9634 314.096 81.6655 314.531 81.4653C314.97 81.2603 315.468 81.1577 316.025 81.1577C316.977 81.1577 317.7 81.4165 318.193 81.9341C318.686 82.4468 318.933 83.189 318.933 84.1606V89.5ZM324.982 87.8667C325.373 87.8667 325.842 87.7812 326.389 87.6104V89.2729C325.832 89.522 325.148 89.6465 324.338 89.6465C323.444 89.6465 322.792 89.4219 322.382 88.9727C321.977 88.5186 321.774 87.8398 321.774 86.9365V82.9888H320.705V82.0439L321.935 81.2969L322.58 79.5684H324.008V81.3115H326.301V82.9888H324.008V86.9365C324.008 87.2539 324.096 87.4883 324.272 87.6396C324.453 87.791 324.689 87.8667 324.982 87.8667ZM334.064 87.0684C334.064 87.9082 333.771 88.5479 333.185 88.9873C332.604 89.4268 331.733 89.6465 330.57 89.6465C329.975 89.6465 329.467 89.605 329.047 89.522C328.627 89.4438 328.234 89.3267 327.868 89.1704V87.3247C328.283 87.52 328.749 87.6836 329.267 87.8154C329.789 87.9473 330.248 88.0132 330.644 88.0132C331.454 88.0132 331.859 87.7788 331.859 87.3101C331.859 87.1343 331.806 86.9927 331.698 86.8853C331.591 86.7729 331.405 86.6484 331.142 86.5117C330.878 86.3701 330.526 86.2065 330.087 86.021C329.457 85.7573 328.993 85.5132 328.695 85.2886C328.402 85.064 328.188 84.8076 328.051 84.5195C327.919 84.2266 327.853 83.8677 327.853 83.4429C327.853 82.7153 328.134 82.1538 328.695 81.7583C329.262 81.3579 330.063 81.1577 331.098 81.1577C332.084 81.1577 333.044 81.3726 333.976 81.8022L333.302 83.4136C332.892 83.2378 332.509 83.0938 332.152 82.9814C331.796 82.8691 331.432 82.813 331.061 82.813C330.402 82.813 330.072 82.9912 330.072 83.3477C330.072 83.5479 330.177 83.7212 330.387 83.8677C330.602 84.0142 331.068 84.2314 331.786 84.5195C332.426 84.7783 332.895 85.02 333.192 85.2446C333.49 85.4692 333.71 85.728 333.852 86.021C333.993 86.314 334.064 86.6631 334.064 87.0684ZM338.297 87.9253C338.043 88.9116 337.614 90.0811 337.008 91.4336H335.397C335.714 90.1348 335.961 88.9092 336.137 87.7568H338.187L338.297 87.9253Z" fill="#FC9E45"/>
<path d="M347.672 89.5H340.187V87.9253L342.875 85.208C343.67 84.3926 344.19 83.8286 344.435 83.5161C344.679 83.1987 344.854 82.9058 344.962 82.6372C345.069 82.3687 345.123 82.0903 345.123 81.8022C345.123 81.3726 345.003 81.0527 344.764 80.8428C344.53 80.6328 344.215 80.5278 343.819 80.5278C343.404 80.5278 343.001 80.623 342.611 80.8135C342.22 81.0039 341.812 81.2749 341.388 81.6265L340.157 80.1689C340.685 79.7197 341.122 79.4023 341.468 79.2168C341.815 79.0312 342.193 78.8896 342.604 78.792C343.014 78.6895 343.473 78.6382 343.98 78.6382C344.649 78.6382 345.24 78.7603 345.753 79.0044C346.266 79.2485 346.664 79.5903 346.947 80.0298C347.23 80.4692 347.372 80.9722 347.372 81.5386C347.372 82.0317 347.284 82.4956 347.108 82.9302C346.937 83.3599 346.668 83.8018 346.302 84.2559C345.941 84.71 345.301 85.3569 344.383 86.1968L343.006 87.4932V87.5957H347.672V89.5ZM352.747 78.6528C353.773 78.6528 354.598 78.8872 355.223 79.356C355.853 79.8198 356.168 80.4473 356.168 81.2383C356.168 81.7852 356.016 82.2734 355.714 82.7031C355.411 83.1279 354.923 83.5088 354.249 83.8457C355.05 84.2754 355.623 84.7246 355.97 85.1934C356.321 85.6572 356.497 86.1675 356.497 86.7241C356.497 87.603 356.153 88.311 355.465 88.8481C354.776 89.3804 353.87 89.6465 352.747 89.6465C351.575 89.6465 350.655 89.3975 349.986 88.8994C349.317 88.4014 348.983 87.6958 348.983 86.7827C348.983 86.1724 349.144 85.6304 349.466 85.1567C349.793 84.6831 350.316 84.2656 351.033 83.9043C350.423 83.5186 349.984 83.106 349.715 82.6665C349.446 82.2271 349.312 81.7461 349.312 81.2236C349.312 80.457 349.63 79.8369 350.264 79.3633C350.899 78.8896 351.727 78.6528 352.747 78.6528ZM351.077 86.6509C351.077 87.0708 351.224 87.3979 351.517 87.6323C351.81 87.8667 352.21 87.9839 352.718 87.9839C353.279 87.9839 353.699 87.8643 353.978 87.625C354.256 87.3809 354.395 87.061 354.395 86.6655C354.395 86.3384 354.256 86.0332 353.978 85.75C353.704 85.4619 353.258 85.1567 352.637 84.8345C351.597 85.313 351.077 85.9185 351.077 86.6509ZM352.733 80.3081C352.347 80.3081 352.034 80.4082 351.795 80.6084C351.561 80.8037 351.444 81.0674 351.444 81.3994C351.444 81.6924 351.536 81.9561 351.722 82.1904C351.912 82.4199 352.254 82.6567 352.747 82.9009C353.226 82.6763 353.56 82.4468 353.751 82.2124C353.941 81.978 354.036 81.707 354.036 81.3994C354.036 81.0625 353.914 80.7964 353.67 80.6011C353.426 80.4058 353.113 80.3081 352.733 80.3081ZM362.869 89.5V78.792H365.139V89.5H362.869ZM375.517 89.5H373.283V84.7173C373.283 84.1265 373.179 83.6846 372.969 83.3916C372.759 83.0938 372.424 82.9448 371.965 82.9448C371.34 82.9448 370.888 83.1548 370.61 83.5747C370.332 83.9897 370.193 84.6807 370.193 85.6475V89.5H367.959V81.3115H369.665L369.966 82.3589H370.09C370.339 81.9634 370.681 81.6655 371.116 81.4653C371.555 81.2603 372.053 81.1577 372.61 81.1577C373.562 81.1577 374.284 81.4165 374.778 81.9341C375.271 82.4468 375.517 83.189 375.517 84.1606V89.5ZM381.567 87.8667C381.958 87.8667 382.426 87.7812 382.973 87.6104V89.2729C382.417 89.522 381.733 89.6465 380.922 89.6465C380.029 89.6465 379.377 89.4219 378.967 88.9727C378.562 88.5186 378.359 87.8398 378.359 86.9365V82.9888H377.29V82.0439L378.52 81.2969L379.165 79.5684H380.593V81.3115H382.885V82.9888H380.593V86.9365C380.593 87.2539 380.681 87.4883 380.856 87.6396C381.037 87.791 381.274 87.8667 381.567 87.8667ZM388.327 82.7471C387.853 82.7471 387.482 82.8984 387.214 83.2012C386.945 83.499 386.791 83.9238 386.752 84.4756H389.887C389.877 83.9238 389.733 83.499 389.455 83.2012C389.176 82.8984 388.8 82.7471 388.327 82.7471ZM388.642 89.6465C387.323 89.6465 386.293 89.2827 385.551 88.5552C384.809 87.8276 384.438 86.7974 384.438 85.4644C384.438 84.0923 384.779 83.0327 385.463 82.2856C386.152 81.5337 387.101 81.1577 388.312 81.1577C389.469 81.1577 390.37 81.4873 391.015 82.1465C391.659 82.8057 391.982 83.7163 391.982 84.8784V85.9624H386.701C386.725 86.5972 386.913 87.0928 387.265 87.4492C387.616 87.8057 388.11 87.9839 388.744 87.9839C389.238 87.9839 389.704 87.9326 390.143 87.8301C390.583 87.7275 391.042 87.564 391.52 87.3394V89.0679C391.13 89.2632 390.712 89.4072 390.268 89.5C389.823 89.5977 389.281 89.6465 388.642 89.6465ZM398.668 81.1577C398.971 81.1577 399.223 81.1797 399.423 81.2236L399.254 83.3184C399.074 83.2695 398.854 83.2451 398.595 83.2451C397.882 83.2451 397.326 83.4282 396.925 83.7944C396.53 84.1606 396.332 84.6733 396.332 85.3325V89.5H394.098V81.3115H395.79L396.12 82.6885H396.229C396.483 82.2295 396.825 81.8608 397.255 81.5825C397.689 81.2993 398.161 81.1577 398.668 81.1577ZM403.158 89.5L400.038 81.3115H402.374L403.956 85.9771C404.132 86.5679 404.242 87.127 404.286 87.6543H404.33C404.354 87.1855 404.464 86.6265 404.659 85.9771L406.234 81.3115H408.57L405.45 89.5H403.158ZM409.954 79.1948C409.954 78.4673 410.36 78.1035 411.17 78.1035C411.981 78.1035 412.386 78.4673 412.386 79.1948C412.386 79.5415 412.283 79.8125 412.078 80.0078C411.878 80.1982 411.575 80.2935 411.17 80.2935C410.36 80.2935 409.954 79.9272 409.954 79.1948ZM412.283 89.5H410.05V81.3115H412.283V89.5ZM418.326 82.7471C417.852 82.7471 417.481 82.8984 417.212 83.2012C416.944 83.499 416.79 83.9238 416.751 84.4756H419.886C419.876 83.9238 419.732 83.499 419.454 83.2012C419.175 82.8984 418.799 82.7471 418.326 82.7471ZM418.641 89.6465C417.322 89.6465 416.292 89.2827 415.55 88.5552C414.808 87.8276 414.437 86.7974 414.437 85.4644C414.437 84.0923 414.778 83.0327 415.462 82.2856C416.15 81.5337 417.1 81.1577 418.311 81.1577C419.468 81.1577 420.369 81.4873 421.014 82.1465C421.658 82.8057 421.98 83.7163 421.98 84.8784V85.9624H416.7C416.724 86.5972 416.912 87.0928 417.264 87.4492C417.615 87.8057 418.108 87.9839 418.743 87.9839C419.236 87.9839 419.703 87.9326 420.142 87.8301C420.582 87.7275 421.041 87.564 421.519 87.3394V89.0679C421.128 89.2632 420.711 89.4072 420.267 89.5C419.822 89.5977 419.28 89.6465 418.641 89.6465ZM430.828 89.5L430.198 86.6362L429.348 83.0181H429.297L427.803 89.5H425.401L423.071 81.3115H425.298L426.243 84.937C426.394 85.5864 426.548 86.4824 426.704 87.625H426.748C426.768 87.2539 426.853 86.6655 427.005 85.8599L427.122 85.2373L428.133 81.3115H430.593L431.553 85.2373C431.572 85.3447 431.602 85.5034 431.641 85.7134C431.685 85.9233 431.726 86.1479 431.765 86.3872C431.804 86.6216 431.839 86.8535 431.868 87.083C431.902 87.3076 431.922 87.4883 431.926 87.625H431.97C432.014 87.2734 432.092 86.7925 432.205 86.1821C432.317 85.5669 432.398 85.1519 432.446 84.937L433.428 81.3115H435.618L433.259 89.5H430.828ZM442.956 87.0684C442.956 87.9082 442.663 88.5479 442.078 88.9873C441.496 89.4268 440.625 89.6465 439.463 89.6465C438.867 89.6465 438.359 89.605 437.939 89.522C437.519 89.4438 437.126 89.3267 436.76 89.1704V87.3247C437.175 87.52 437.642 87.6836 438.159 87.8154C438.682 87.9473 439.141 88.0132 439.536 88.0132C440.347 88.0132 440.752 87.7788 440.752 87.3101C440.752 87.1343 440.698 86.9927 440.591 86.8853C440.483 86.7729 440.298 86.6484 440.034 86.5117C439.77 86.3701 439.419 86.2065 438.979 86.021C438.35 85.7573 437.886 85.5132 437.588 85.2886C437.295 85.064 437.08 84.8076 436.943 84.5195C436.811 84.2266 436.746 83.8677 436.746 83.4429C436.746 82.7153 437.026 82.1538 437.588 81.7583C438.154 81.3579 438.955 81.1577 439.99 81.1577C440.976 81.1577 441.936 81.3726 442.869 81.8022L442.195 83.4136C441.785 83.2378 441.401 83.0938 441.045 82.9814C440.688 82.8691 440.325 82.813 439.954 82.813C439.294 82.813 438.965 82.9912 438.965 83.3477C438.965 83.5479 439.07 83.7212 439.28 83.8677C439.495 84.0142 439.961 84.2314 440.679 84.5195C441.318 84.7783 441.787 85.02 442.085 85.2446C442.383 85.4692 442.602 85.728 442.744 86.021C442.886 86.314 442.956 86.6631 442.956 87.0684Z" fill="#D78AFD"/>
<defs>
<filter id="filter0_d" x="173" y="-0.00012207" width="312" height="174" filterUnits="userSpaceOnUse" color-interpolation-filters="sRGB">
<feFlood flood-opacity="0" result="BackgroundImageFix"/>
<feColorMatrix in="SourceAlpha" type="matrix" values="0 0 0 0 0 0 0 0 0 0 0 0 0 0 0 0 0 0 127 0" result="hardAlpha"/>
<feOffset dy="10"/>
<feGaussianBlur stdDeviation="15"/>
<feColorMatrix type="matrix" values="0 0 0 0 0 0 0 0 0 0 0 0 0 0 0 0 0 0 0.1 0"/>
<feBlend mode="normal" in2="BackgroundImageFix" result="effect1_dropShadow"/>
<feBlend mode="normal" in="SourceGraphic" in2="effect1_dropShadow" result="shape"/>
</filter>
</defs>
</svg>
