<svg width="42" height="37" viewBox="0 0 42 37" fill="none" xmlns="http://www.w3.org/2000/svg">
<path fill-rule="evenodd" clip-rule="evenodd" d="M8.11676 0.779804C5.9663 0.779804 4.21673 2.52755 4.21673 4.67551C4.21673 6.82281 5.9663 8.57044 8.11676 8.57044C10.2671 8.57044 12.0167 6.82281 12.0167 4.67551C12.0167 2.52755 10.2671 0.779804 8.11676 0.779804ZM11.3936 15.2919V12.5205C11.3936 10.6442 9.86633 9.11789 7.98792 9.11789C6.1104 9.11789 4.58237 10.6442 4.58237 12.5205V22.0963H12.1999V15.2919H11.3936ZM30.6639 12.5205C30.6639 10.6442 32.1919 9.11789 34.0696 9.11789C35.9479 9.11789 37.4759 10.6442 37.4759 12.5205V22.0963H29.8799V15.2919H30.6639V12.5205ZM34.1367 0.779804C31.9095 0.779804 30.0976 2.58991 30.0976 4.81463C30.0976 7.03938 31.9095 8.84937 34.1367 8.84937C36.364 8.84937 38.1759 7.03938 38.1759 4.81463C38.1759 2.58991 36.364 0.779804 34.1367 0.779804ZM27.48 12.4438H14.6V36.22H27.48V12.4438ZM41.48 26.251V9.24011H39.0799V23.8536H29.8799V26.251H33.1715V33.8225H32.1256V36.2198H36.5166V33.8225H35.5715V26.251H41.48ZM12.1999 23.8536V26.251H8.82837V33.8225H9.87438V36.2198H5.48327V33.8225H6.4283V26.251H0.51998V9.24011H2.91992V23.8536H12.1999Z" fill="#D78AFD"/>
</svg>
