<svg width="49" height="23" viewBox="0 0 49 23" fill="none" xmlns="http://www.w3.org/2000/svg">
<path fill-rule="evenodd" clip-rule="evenodd" d="M1.4559 18.9258L0.935399 19.6763C0.704012 20.0099 0.734918 20.4607 1.01011 20.7584C1.28536 21.0563 1.73018 21.1226 2.07912 20.9149L2.85953 20.4515C2.98157 20.3785 3.22042 20.2422 3.31334 20.1891C3.33384 20.1774 3.34723 20.1698 3.35071 20.1677C7.86319 17.4615 12.3107 16.0893 16.5677 16.0893C19.7538 16.0893 21.6679 16.8941 21.9131 17.0011L21.9137 21.4078C21.9137 21.7167 22.078 22.0024 22.3445 22.1568C22.4781 22.2339 22.6266 22.2726 22.775 22.2726C22.9234 22.2726 23.0724 22.2343 23.206 22.1568L40.2925 12.2452C40.559 12.0913 40.7234 11.8055 40.7234 11.4966C40.7234 11.1877 40.559 10.9021 40.2925 10.7476L23.2054 0.835425C22.9388 0.680975 22.6111 0.680975 22.3445 0.835425C22.078 0.989875 21.9137 1.27563 21.9137 1.58453V5.73513H21.9131C21.7932 5.75055 9.82689 7.42253 1.4559 18.9258ZM42.9469 10.7476C43.213 10.9021 43.3773 11.1877 43.3773 11.4966C43.3773 11.8055 43.213 12.0913 42.9474 12.2452L29.4103 20.0971V21.4078C29.4103 21.7167 29.5746 22.0024 29.8411 22.1568C29.9747 22.2339 30.1231 22.2726 30.2717 22.2726C30.4201 22.2726 30.5689 22.2343 30.7021 22.1568L47.7891 12.2452C48.0552 12.0913 48.22 11.8055 48.22 11.4966C48.22 11.1877 48.0552 10.9021 47.7891 10.7476L30.7021 0.835425C30.436 0.680975 30.1082 0.680975 29.8417 0.835425C29.5752 0.989875 29.4107 1.27563 29.4107 1.58453V2.89525L42.9469 10.7476Z" fill="#51CCA9"/>
</svg>
